<svg width="476" height="233" viewBox="0 0 476 233" fill="none" xmlns="http://www.w3.org/2000/svg">
<path d="M246.856 201.15C237.661 200.537 227.06 198.925 218.698 196.504C217.132 196.05 210.647 193.666 208.997 192.909C179.886 179.425 159.606 149.988 159.606 115.838C159.606 68.9973 197.714 30.8437 244.585 30.8437C291.04 30.8437 328.891 68.3465 329.542 114.657H360.242C359.591 51.4263 307.975 0.18161 244.585 0.18161C180.817 0.18161 128.914 52.0544 128.914 115.838C128.914 159.811 153.643 198.055 189.852 217.593C196.39 221.052 205.773 224.616 208.959 225.592C219.281 228.664 231.948 230.707 243.223 231.562C247.052 231.85 260.423 232.001 264.32 232.016H475.732V201.438H264.676C261.869 201.438 249.602 201.332 246.856 201.15ZM264.676 153.136C262.444 153.136 250.768 153.061 248.611 152.879C244.956 152.569 239.659 152.024 236.254 151.245C232.41 150.215 228.8 148.853 227.173 147.96C215.77 141.793 207.998 129.731 207.998 115.838C207.998 95.6261 224.366 79.2356 244.585 79.2356C264.381 79.2356 280.476 94.9828 281.12 114.657H310.616C309.996 78.7135 280.696 49.7464 244.585 49.7464C208.074 49.7464 178.479 79.334 178.479 115.838C178.479 141.581 193.235 163.814 214.725 174.703C218.032 176.64 224.252 178.668 226.023 179.13C232.092 180.726 240.242 181.816 246.856 182.3C249.3 182.505 261.271 182.595 263.798 182.61V182.656H475.724V153.136H264.676ZM109.996 231.903H79.0919V30.9118H33.9311V0H109.996V231.903ZM0 46.3564V76.0801H33.9311V231.903H63.6246V46.3564H0Z" fill="#EB7367"/>
</svg>
