<svg width="80" height="40" viewBox="0 0 80 40" fill="none" xmlns="http://www.w3.org/2000/svg">
<path d="M41.5117 33.8258C39.9656 33.7227 38.1829 33.4517 36.7767 33.0445C36.5133 32.9681 35.4228 32.5673 35.1454 32.44C30.25 30.1724 26.8397 25.2224 26.8397 19.4796C26.8397 11.6027 33.2481 5.18675 41.13 5.18675C48.9419 5.18675 55.307 11.4933 55.4164 19.281H60.579C60.4696 8.64797 51.7898 0.0305496 41.13 0.0305496C30.4066 0.0305496 21.6784 8.75359 21.6784 19.4796C21.6784 26.8741 25.837 33.3053 31.9259 36.591C33.0254 37.1725 34.6033 37.7718 35.139 37.936C36.8747 38.4526 39.0049 38.7962 40.9009 38.94C41.5448 38.9884 43.7933 39.0138 44.4487 39.0164H80V33.8742H44.5085C44.0364 33.8742 41.9737 33.8563 41.5117 33.8258ZM44.5085 25.7517C44.1331 25.7517 42.1696 25.739 41.807 25.7085C41.1923 25.6563 40.3016 25.5647 39.729 25.4336C39.0825 25.2606 38.4755 25.0315 38.2019 24.8813C36.2843 23.8443 34.9774 21.8159 34.9774 19.4796C34.9774 16.0807 37.7298 13.3244 41.13 13.3244C44.4589 13.3244 47.1655 15.9725 47.2737 19.281H52.2339C52.1295 13.2366 47.2024 8.36547 41.13 8.36547C34.9901 8.36547 30.0134 13.341 30.0134 19.4796C30.0134 23.8086 32.4948 27.5472 36.1087 29.3784C36.6648 29.7041 37.7108 30.0452 38.0085 30.1228C39.0291 30.3913 40.3996 30.5745 41.5117 30.656C41.9228 30.6903 43.9359 30.7056 44.3609 30.7082V30.7158H79.9987V25.7517H44.5085ZM18.4972 38.9973H13.3002V5.1982H5.70592V9.25868e-06H18.4972V38.9973ZM0 7.79539V12.7938H5.70592V38.9973H10.6992V7.79539H0Z" fill="#000000"/>
</svg>
