<svg width="451" height="404" viewBox="0 0 451 404" fill="none" xmlns="http://www.w3.org/2000/svg">
<path d="M87.2912 289.395C89.2274 290.278 91.5129 289.425 92.3959 287.488C93.2789 285.552 92.4252 283.267 90.489 282.384C88.5528 281.501 86.2673 282.355 85.3843 284.291C84.5013 286.227 85.355 288.512 87.2912 289.395Z" stroke="#FDB914" stroke-width="1.26514" stroke-linecap="round" stroke-linejoin="round"/>
<path d="M91.3413 280.514L91.8743 279.345" stroke="#FDB913" stroke-width="1.26514" stroke-linecap="round" stroke-linejoin="round"/>
<path d="M86.8223 280.355L86.3728 279.152" stroke="#FDB913" stroke-width="1.26514" stroke-linecap="round" stroke-linejoin="round"/>
<path d="M83.5141 283.438L82.3455 282.905" stroke="#FDB913" stroke-width="1.26514" stroke-linecap="round" stroke-linejoin="round"/>
<path d="M83.3551 287.957L82.152 288.407" stroke="#FDB913" stroke-width="1.26514" stroke-linecap="round" stroke-linejoin="round"/>
<path d="M86.438 291.265L85.905 292.434" stroke="#FDB913" stroke-width="1.26514" stroke-linecap="round" stroke-linejoin="round"/>
<path d="M90.9575 291.425L91.407 292.628" stroke="#FDB913" stroke-width="1.26514" stroke-linecap="round" stroke-linejoin="round"/>
<path d="M94.2651 288.341L95.4337 288.874" stroke="#FDB913" stroke-width="1.26514" stroke-linecap="round" stroke-linejoin="round"/>
<path d="M94.4247 283.822L95.6278 283.372" stroke="#FDB913" stroke-width="1.26514" stroke-linecap="round" stroke-linejoin="round"/>
<path d="M433.807 311.091C435.915 310.798 437.385 308.851 437.092 306.744C436.798 304.636 434.852 303.165 432.744 303.459C430.636 303.752 429.165 305.699 429.459 307.807C429.753 309.914 431.699 311.385 433.807 311.091Z" stroke="#FDB914" stroke-width="1.26514" stroke-linecap="round" stroke-linejoin="round"/>
<path d="M432.46 301.423L432.283 300.151" stroke="#FDB913" stroke-width="1.26514" stroke-linecap="round" stroke-linejoin="round"/>
<path d="M428.561 303.713L427.536 302.939" stroke="#FDB913" stroke-width="1.26514" stroke-linecap="round" stroke-linejoin="round"/>
<path d="M427.423 308.09L426.151 308.268" stroke="#FDB913" stroke-width="1.26514" stroke-linecap="round" stroke-linejoin="round"/>
<path d="M429.714 311.99L428.939 313.015" stroke="#FDB913" stroke-width="1.26514" stroke-linecap="round" stroke-linejoin="round"/>
<path d="M434.09 313.127L434.267 314.399" stroke="#FDB913" stroke-width="1.26514" stroke-linecap="round" stroke-linejoin="round"/>
<path d="M437.99 310.837L439.014 311.611" stroke="#FDB913" stroke-width="1.26514" stroke-linecap="round" stroke-linejoin="round"/>
<path d="M439.127 306.46L440.399 306.283" stroke="#FDB913" stroke-width="1.26514" stroke-linecap="round" stroke-linejoin="round"/>
<path d="M436.837 302.561L437.611 301.536" stroke="#FDB913" stroke-width="1.26514" stroke-linecap="round" stroke-linejoin="round"/>
<path d="M338.395 23.7098C340.504 23.431 341.989 21.4947 341.71 19.385C341.431 17.2753 339.495 15.7911 337.385 16.0699C335.275 16.3487 333.791 18.285 334.07 20.3947C334.349 22.5044 336.285 23.9886 338.395 23.7098Z" stroke="#FDB914" stroke-width="1.26514" stroke-linecap="round" stroke-linejoin="round"/>
<path d="M337.115 14.0326L336.947 12.7593" stroke="#FDB913" stroke-width="1.26514" stroke-linecap="round" stroke-linejoin="round"/>
<path d="M333.2 16.2953L332.181 15.5139" stroke="#FDB913" stroke-width="1.26514" stroke-linecap="round" stroke-linejoin="round"/>
<path d="M332.032 20.6642L330.759 20.8325" stroke="#FDB913" stroke-width="1.26514" stroke-linecap="round" stroke-linejoin="round"/>
<path d="M334.295 24.5793L333.514 25.5986" stroke="#FDB913" stroke-width="1.26514" stroke-linecap="round" stroke-linejoin="round"/>
<path d="M338.664 25.7476L338.832 27.0209" stroke="#FDB913" stroke-width="1.26514" stroke-linecap="round" stroke-linejoin="round"/>
<path d="M342.579 23.4844L343.598 24.2658" stroke="#FDB913" stroke-width="1.26514" stroke-linecap="round" stroke-linejoin="round"/>
<path d="M343.747 19.116L345.02 18.9477" stroke="#FDB913" stroke-width="1.26514" stroke-linecap="round" stroke-linejoin="round"/>
<path d="M341.484 15.2007L342.265 14.1813" stroke="#FDB913" stroke-width="1.26514" stroke-linecap="round" stroke-linejoin="round"/>
<path d="M110.614 396.045C104.507 390.745 100.244 383.717 98.4389 375.844C98.3237 376.074 98.1701 376.304 98.0549 376.535C99.7448 376.266 101.243 376.765 102.433 377.956C102.932 378.417 103.624 377.841 103.355 377.265C99.0918 368.623 95.7121 359.636 93.2541 350.342C93.0237 350.572 92.7932 350.803 92.5628 351.033C94.2143 351.302 95.4433 352.032 96.4802 353.337C96.8259 353.798 97.6324 353.299 97.4404 352.761C94.4831 344.197 92.5244 335.325 91.5642 326.338C91.3338 326.53 91.0649 326.722 90.8345 326.876C93.4845 327.605 94.6751 330.255 95.7505 332.56C96.9795 335.248 98.2085 337.975 99.4375 340.702C101.895 346.232 104.353 351.801 106.735 357.37C111.574 368.7 116.183 380.145 120.638 391.667C120.907 392.358 122.02 392.051 121.752 391.36C117.104 379.3 112.227 367.317 107.157 355.411C104.622 349.497 102.049 343.582 99.3991 337.706C98.2085 335.056 97.1331 332.252 95.6737 329.679C94.6367 327.836 93.2925 326.299 91.1802 325.723C90.8345 325.647 90.412 325.915 90.4504 326.261C91.4106 335.363 93.3693 344.35 96.365 352.992C96.6722 352.8 97.0179 352.608 97.3252 352.416C96.173 350.995 94.7135 350.111 92.87 349.843C92.4476 349.766 92.0251 350.111 92.1787 350.534C94.7135 359.905 98.1317 369.007 102.395 377.764C102.702 377.533 103.009 377.303 103.317 377.073C101.78 375.575 99.8984 374.999 97.786 375.344C97.4788 375.383 97.3252 375.767 97.402 376.036C99.2839 384.101 103.624 391.321 109.884 396.737C110.383 397.351 111.19 396.545 110.614 396.045Z" fill="#E8E8E8"/>
<path d="M110.69 364.514C109.922 361.748 109.308 358.983 108.962 356.141C108.77 354.72 108.655 353.337 108.578 351.916C108.54 351.071 108.079 348.729 108.732 348.037C109.461 347.96 110.191 347.884 110.921 347.807C111.113 348.114 111.266 348.46 111.382 348.805C111.727 349.574 111.996 350.342 112.303 351.11C112.841 352.416 113.34 353.721 113.878 355.027C114.953 357.754 116.029 360.481 117.143 363.208C121.444 374 125.746 384.754 130.009 395.546C130.278 396.237 131.391 395.93 131.123 395.239C125.707 381.604 120.292 368.009 114.838 354.374C114.147 352.608 113.417 350.803 112.726 349.036C112.342 348.114 112.035 347 111.228 346.347C110.037 345.349 108.578 345.887 107.887 347.154C106.735 349.343 107.426 352.454 107.695 354.758C108.04 358.177 108.732 361.518 109.653 364.782C109.807 365.551 110.921 365.243 110.69 364.514Z" fill="#E8E8E8"/>
<path d="M199.063 386.789C197.872 378.417 196.72 369.122 201.483 361.595C201.137 361.595 200.83 361.595 200.484 361.595C201.79 364.36 202.635 367.241 203.096 370.275C203.173 370.928 204.248 370.774 204.209 370.121C203.672 357.524 205.554 344.965 209.663 333.021C209.356 333.097 209.01 333.174 208.703 333.289C210.086 334.442 209.932 336.285 209.932 337.937C209.894 339.434 209.894 340.971 209.855 342.468C209.817 345.887 209.74 349.266 209.702 352.685C209.586 359.367 209.471 366.05 209.394 372.771C209.394 373.501 210.547 373.501 210.547 372.771C210.662 365.32 210.777 357.869 210.892 350.419C210.969 346.77 211.007 343.083 211.084 339.434C211.123 337.092 211.584 334.134 209.548 332.444C209.202 332.176 208.741 332.252 208.588 332.713C204.402 344.734 202.558 357.409 203.057 370.121C203.441 370.083 203.825 370.006 204.171 369.967C203.71 366.818 202.827 363.861 201.444 360.98C201.252 360.558 200.676 360.635 200.446 360.98C195.491 368.777 196.643 378.378 197.911 387.058C198.065 387.826 199.178 387.519 199.063 386.789Z" fill="#E8E8E8"/>
<path d="M211.2 365.397C211.584 363.899 212.045 362.401 212.659 360.98C213.005 360.174 213.965 357.485 214.81 357.178C215.271 357.408 215.693 357.639 216.154 357.869C216.116 358.253 216.077 358.676 216.039 359.06C215.962 359.674 215.924 360.327 215.847 360.942C215.693 362.44 215.54 363.976 215.386 365.474C214.81 371.388 214.234 377.303 213.658 383.179C213.581 383.909 214.733 383.909 214.81 383.179C215.232 379.031 215.616 374.883 216.039 370.735C216.461 366.549 217.153 362.286 217.268 358.061C217.306 356.371 216.154 354.797 214.387 355.987C213.158 356.832 212.505 358.445 211.891 359.751C211.084 361.48 210.47 363.246 210.009 365.09C209.894 365.781 211.008 366.088 211.2 365.397Z" fill="#E8E8E8"/>
<path d="M422.703 371.465C423.01 360.903 425.929 350.649 431.114 341.508C430.768 341.508 430.461 341.508 430.115 341.508C431.421 344.005 431.882 346.693 431.421 349.458C431.306 350.188 432.42 350.495 432.535 349.766C434.762 337.284 439.371 325.378 446.208 314.701C445.862 314.662 445.516 314.624 445.171 314.547C446.361 318.503 444.902 322.881 444.134 326.799C443.327 330.908 442.521 335.018 441.714 339.127C440.139 347.231 438.526 355.296 436.952 363.4C436.798 364.13 437.912 364.437 438.065 363.707C439.755 355.142 441.445 346.539 443.135 337.975C443.98 333.75 444.787 329.525 445.631 325.301C446.361 321.691 447.398 317.927 446.284 314.278C446.131 313.779 445.516 313.741 445.247 314.125C438.373 324.878 433.687 336.899 431.46 349.458C431.844 349.574 432.189 349.65 432.573 349.766C433.111 346.693 432.612 343.697 431.152 340.932C430.96 340.548 430.384 340.548 430.154 340.932C424.854 350.265 421.896 360.75 421.551 371.504C421.512 372.233 422.665 372.233 422.703 371.465Z" fill="#E8E8E8"/>
<path d="M442.136 345.464C443.058 343.851 444.018 342.238 445.055 340.663C445.593 339.895 446.131 339.127 446.668 338.359C447.014 337.86 448.012 335.978 448.665 335.863C450.586 335.517 449.549 338.244 449.395 338.897C449.203 339.895 448.973 340.855 448.781 341.854C448.397 343.697 447.974 345.541 447.59 347.384C445.9 355.104 444.172 362.824 442.328 370.543C442.175 371.273 443.288 371.58 443.442 370.851C445.785 360.827 448.051 350.764 450.202 340.702C450.47 339.511 452.468 333.059 448.896 334.365C447.283 334.941 446.015 337.322 445.094 338.666C443.673 340.663 442.367 342.737 441.176 344.888C440.792 345.541 441.791 346.117 442.136 345.464Z" fill="#E8E8E8"/>
<path d="M22.0488 254.941C22.8554 252.598 25.6206 252.56 27.6561 253.136C30.0757 253.827 31.7656 255.709 33.6859 257.245C36.6432 259.588 40.0998 260.74 43.4027 258.397C46.4752 256.247 48.3955 252.137 52.2745 251.254C56.384 250.294 60.3783 253.404 63.7964 255.248C66.9457 256.938 70.5175 258.359 74.0509 256.938C78.506 255.133 80.9256 250.639 85.9184 249.679C88.7605 249.141 91.7178 249.564 94.2526 250.946C96.4033 252.099 98.2468 253.75 100.321 255.094C103.547 257.168 107.003 257.783 110.306 255.594C114.147 253.059 117.45 248.143 122.52 251.215C125.861 253.251 128.357 257.015 132.582 257.091C133.312 257.091 133.312 255.939 132.582 255.939C128.434 255.862 125.938 251.715 122.52 249.91C119.063 248.104 115.991 249.525 113.225 251.83C111.535 253.212 109.922 254.941 107.772 255.632C105.122 256.515 102.587 255.286 100.436 253.827C96.4417 251.138 92.9852 248.181 87.8771 248.335C85.5344 248.412 83.23 249.065 81.2328 250.294C79.1589 251.561 77.5459 253.443 75.5487 254.826C71.132 257.898 66.7921 255.709 62.6442 253.366C59.6101 251.676 56.2304 249.564 52.5818 250.102C48.6259 250.678 46.5136 254.249 43.7099 256.707C41.3288 258.82 38.6403 259.204 35.8751 257.514C33.6859 256.17 31.996 254.019 29.7301 252.828C26.8496 251.292 22.1256 250.946 20.8582 254.672C20.7046 255.325 21.8184 255.632 22.0488 254.941Z" fill="#E8E8E8"/>
<path d="M77.8915 235.43C79.0821 230.783 84.7662 232.896 87.3395 234.739C89.9127 236.544 92.4091 239.002 95.7504 239.156C101.473 239.463 104.123 232.972 109.346 232.051C115.184 231.052 118.794 238.503 124.747 237.773C130.354 237.082 133.235 230.476 138.996 230.207C144.872 229.938 151.055 236.006 156.74 232.319C157.354 231.935 156.778 230.937 156.163 231.321C150.902 234.739 144.411 228.671 138.765 229.055C136.077 229.247 133.849 230.745 131.814 232.396C129.51 234.24 126.975 236.736 123.825 236.659C118.141 236.544 114.685 229.516 108.617 231.014C102.664 232.512 99.4758 240.615 92.5627 236.928C89.2982 235.2 86.6866 231.782 82.7691 231.398C80.1959 231.129 77.4691 232.473 76.8161 235.085C76.5857 235.853 77.6995 236.16 77.8915 235.43Z" fill="#E8E8E8"/>
<path d="M337.979 161.383C339.861 158.579 343.586 157.274 346.812 158.349C350.077 159.424 351.882 162.804 355.146 163.995C357.911 164.993 361.099 164.84 363.711 163.457C366.399 162.074 368.358 159.578 371.008 158.157C377.153 154.931 380.648 162.689 385.833 164.264C391.133 165.877 394.82 160.692 399.083 158.618C406.611 154.931 412.295 167.106 419.669 162.612C420.283 162.228 419.707 161.23 419.093 161.614C415.214 163.995 411.181 160.5 407.955 158.541C405.42 157.005 402.655 156.045 399.736 157.082C394.589 158.925 390.442 165.838 384.45 162.343C380.264 159.885 376.923 154.47 371.354 156.736C368.473 157.888 366.438 160.461 363.826 162.074C359.947 164.417 355.453 163.611 352.112 160.73C349.654 158.618 347.503 156.659 344.047 156.813C341.166 156.928 338.555 158.387 336.942 160.769C336.558 161.422 337.556 161.998 337.979 161.383Z" fill="#E8E8E8"/>
<path d="M362.751 146.673C365.017 144.369 368.435 141.105 371.968 142.679C374.234 143.716 375.463 146.174 377.268 147.749C380.456 150.514 383.989 149.208 387.062 146.981C388.867 145.713 390.557 144.177 392.592 143.294C395.511 141.988 398.008 143.025 400.542 144.638C402.578 145.905 404.613 147.288 407.071 147.403C409.414 147.518 411.603 146.558 413.601 145.444C416.75 143.716 419.592 141.565 423.241 141.066C427.312 140.49 431.344 141.527 435.262 142.526C435.991 142.718 436.299 141.604 435.569 141.412C429.347 139.837 423.24 138.762 417.326 141.95C414.714 143.371 412.218 145.291 409.299 146.021C405.804 146.866 403.231 144.907 400.389 143.217C398.468 142.065 396.433 141.22 394.167 141.604C392.055 141.988 390.211 143.255 388.521 144.484C386.678 145.829 384.757 147.557 382.453 148.095C379.534 148.786 377.652 146.635 375.924 144.638C374.273 142.718 372.429 140.951 369.702 141.105C366.553 141.297 363.98 143.716 361.906 145.829C361.406 146.405 362.213 147.211 362.751 146.673Z" fill="#E8E8E8"/>
<path d="M299.035 252.867C301.723 250.14 304.988 247.106 309.136 247.759C312.093 248.22 314.551 250.293 316.97 251.945C319.16 253.443 321.541 254.825 324.268 254.941C326.687 255.056 328.953 254.134 330.95 252.828C335.866 249.525 339.323 243.841 345.199 242.113C349.424 240.884 353.226 242.075 356.875 244.225C359.563 245.8 362.29 247.336 365.478 246.914C368.934 246.453 371.738 244.11 374.733 242.459C379.035 240.116 383.989 239.655 388.675 241.114C389.366 241.345 389.673 240.231 388.982 240.001C385.526 238.925 381.877 238.81 378.382 239.732C374.887 240.692 372.122 242.881 368.972 244.494C367.014 245.493 364.94 246.146 362.751 245.685C360.83 245.301 359.14 244.187 357.451 243.227C354.417 241.46 351.382 240.231 347.811 240.5C341.397 240.961 337.364 245.877 332.871 249.833C330.566 251.868 327.916 253.788 324.729 253.827C321.426 253.827 318.66 251.753 316.087 249.948C313.629 248.258 310.902 246.453 307.791 246.53C303.912 246.645 300.84 249.449 298.267 252.099C297.691 252.598 298.497 253.404 299.035 252.867Z" fill="#E8E8E8"/>
<path d="M1.07904 75.4682C2.88414 72.9334 5.22692 70.5906 8.26101 69.6304C11.1031 68.7087 13.8299 69.4768 16.2879 71.0131C20.0133 73.3558 23.2394 77.0812 27.925 77.1965C33.6475 77.3501 37.8338 72.6261 42.5962 70.2449C45.7455 68.6703 49.5477 67.7869 52.505 70.1681C54.5405 71.7812 56 73.9319 58.3427 75.1993C62.9899 77.6573 68.8661 77.2733 73.0908 74.1624C73.6668 73.7399 73.0908 72.7413 72.5147 73.1638C67.7523 76.6588 60.7623 76.5051 56.384 72.3573C54.5021 70.5906 53.0043 68.4782 50.3927 67.7869C48.0883 67.1724 45.6303 67.6717 43.4411 68.5935C37.9106 70.8594 32.7258 77.4653 26.1583 75.8522C21.3959 74.6616 18.4003 70.0913 13.8299 68.5551C8.26101 66.6731 3.15298 70.5906 0.118888 74.9305C-0.341987 75.5066 0.656575 76.0827 1.07904 75.4682Z" fill="#E8E8E8"/>
<path d="M62.9516 132.924C65.3328 130.312 68.6742 128.2 72.3612 129.083C75.088 129.736 77.2772 131.733 79.6583 133.116C84.2287 135.766 89.4519 135.267 93.7534 132.271C96.0578 130.697 97.7093 128.315 100.052 126.856C103.317 124.782 106.85 125.896 110.038 127.47C112.688 128.776 115.223 130.159 118.026 131.119C121.06 132.118 124.171 132.694 127.359 132.886C128.089 132.924 128.089 131.772 127.359 131.733C123.826 131.503 120.369 130.812 117.066 129.544C113.955 128.354 111.151 126.51 108.041 125.358C105.544 124.436 102.856 124.167 100.398 125.32C97.7861 126.587 96.0194 129.045 93.7534 130.812C91.1034 132.886 87.6469 134.153 84.2287 133.654C81.0794 133.193 78.6982 131.081 76.0482 129.506C70.9785 126.51 65.9857 127.893 62.0683 132.118C61.6458 132.655 62.4523 133.462 62.9516 132.924Z" fill="#E8E8E8"/>
<path d="M324.882 55.9196C331.603 51.6949 338.747 58.3007 345.161 59.9522C351.92 61.7189 357.258 57.4558 363.596 55.9964C370.393 54.3833 377.115 57.4558 383.912 57.4558C386.908 57.4558 389.673 56.7645 392.285 55.3051C395.204 53.692 398.046 51.3492 401.502 51.1572C407.878 50.7731 413.024 56.9949 419.553 55.113C420.283 54.921 419.976 53.8072 419.246 53.9992C413.37 55.6891 408.3 50.3122 402.539 50.005C399.582 49.8514 396.971 51.1572 394.513 52.655C391.402 54.4985 388.521 56.15 384.834 56.3036C378.113 56.5725 371.622 53.6152 364.901 54.5753C357.911 55.5739 352.227 60.9124 344.853 58.6848C338.363 56.6877 331.219 50.6195 324.344 54.921C323.653 55.3435 324.229 56.342 324.882 55.9196Z" fill="#E8E8E8"/>
<path d="M35.3758 181.047C35.9903 184.696 40.7142 184.888 43.4027 183.62C46.0911 182.353 48.3187 179.703 51.468 179.664C54.0796 179.626 56.4608 181.239 58.8036 182.199C60.6855 182.967 62.721 183.467 64.7181 182.814C67.0993 182.007 68.6356 179.856 70.6711 178.512C76.8161 174.479 83.8445 179.664 89.1829 182.583C89.8358 182.929 90.4119 181.93 89.759 181.585C85.1503 179.088 80.4647 175.67 74.9726 175.977C72.7451 176.093 70.7863 176.899 69.0581 178.282C66.7153 180.164 64.7565 182.545 61.4152 181.854C57.0753 180.97 53.5419 177.206 48.8564 179.088C46.552 180.01 44.7853 181.853 42.5193 182.775C40.4454 183.62 36.9504 183.505 36.4896 180.778C36.3743 180.01 35.2606 180.356 35.3758 181.047Z" fill="#A9A9A9"/>
<path d="M171.718 287.048C174.368 282.708 180.82 288.7 184.085 289.045C185.928 289.237 187.388 288.469 188.694 287.24C189.538 286.434 190.268 285.474 191.267 284.821C192.803 283.861 194.493 284.053 196.106 284.667C199.409 285.934 203.518 289.468 207.09 286.741C207.935 286.088 208.434 285.128 209.202 284.398C210.662 283.016 212.736 284.014 214.349 284.59C217.153 285.589 219.995 286.549 222.798 287.548C223.49 287.778 223.797 286.664 223.106 286.434C220.071 285.358 216.999 284.283 213.965 283.208C211.968 282.516 210.086 281.94 208.396 283.553C207.397 284.513 206.86 285.742 205.515 286.28C203.902 286.895 202.097 286.28 200.599 285.589C198.372 284.552 196.298 282.977 193.763 282.9C191.574 282.824 190.076 284.129 188.655 285.589C187.618 286.626 186.543 287.701 185.007 287.855C183.24 288.008 181.473 286.971 179.975 286.126C177.21 284.629 172.832 282.977 170.719 286.395C170.335 287.125 171.334 287.701 171.718 287.048Z" fill="#A9A9A9"/>
<path d="M367.398 214.806C368.78 211.311 373.658 213.615 375.962 214.499C378.536 215.497 380.955 215.766 383.221 213.923C384.527 212.886 385.564 211.695 387.1 210.927C388.713 210.12 390.518 209.66 392.285 209.621C396.01 209.544 398.392 211.58 401.618 213.001C404.076 214.076 406.226 213.769 408.339 212.233C409.529 211.349 410.605 210.236 411.911 209.544C413.293 208.815 414.868 208.661 416.404 208.738C421.474 209.007 426.812 211.964 431.651 209.199C432.304 208.815 431.728 207.854 431.075 208.2C426.851 210.581 421.858 208.162 417.441 207.662C415.521 207.432 413.562 207.509 411.795 208.315C409.529 209.352 407.955 211.772 405.535 212.425C402.616 213.193 400.043 210.581 397.585 209.506C395.588 208.623 393.322 208.315 391.171 208.546C388.905 208.776 386.678 209.621 384.834 210.965C384.028 211.541 383.375 212.271 382.645 212.924C380.994 214.307 379.188 214.345 377.23 213.692C373.965 212.617 368.243 209.775 366.361 214.499C366.015 215.19 367.129 215.497 367.398 214.806Z" fill="#A9A9A9"/>
<path d="M171.795 27.883C171.833 25.6554 174.982 27.3837 175.635 27.9598C176.25 28.5359 176.826 29.1888 177.517 29.7265C178.669 30.5714 180.014 30.8402 181.358 30.2641C182.894 29.6112 183.97 28.1902 185.237 27.1532C187.004 25.6938 188.924 25.6554 191.075 26.3083C193.955 27.1916 197.028 29.2272 200.177 28.4206C201.79 27.9982 202.75 26.7692 203.787 25.5402C206.476 22.5061 209.471 24.196 212.083 26.4235C212.659 26.9228 213.465 26.0779 212.889 25.617C211.123 24.1191 208.934 22.3525 206.437 22.5829C204.286 22.8133 203.288 24.5032 201.944 25.8858C198.41 29.5728 193.456 25.2329 189.423 24.7337C187.695 24.5416 186.159 24.9641 184.776 26.0011C182.51 27.7293 180.551 30.9555 177.594 28.267C176.25 27.038 175.213 25.617 173.254 25.617C171.872 25.6554 170.681 26.3467 170.643 27.8446C170.604 28.6127 171.756 28.6127 171.795 27.883Z" fill="#A9A9A9"/>
<path d="M84.9966 193.798C84.9198 191.109 88.2228 191.609 89.6822 192.377C90.796 192.953 91.7561 193.721 92.8699 194.259C94.5214 195.027 96.3265 195.18 97.8243 194.028C99.8215 192.492 100.551 190.188 103.547 190.495C106.235 190.764 108.386 192.569 110.882 193.414C112.764 194.028 114.608 194.028 116.375 193.03C118.218 191.993 119.639 190.034 121.79 189.535C124.133 189.035 126.322 190.649 128.242 191.686C129.817 192.569 131.391 193.26 133.235 193.26C133.965 193.26 133.965 192.108 133.235 192.108C128.895 192.031 125.554 187.077 120.983 188.536C118.948 189.189 117.604 190.994 115.76 191.993C112.457 193.836 109.346 191.225 106.312 190.034C104.315 189.228 101.972 188.805 100.052 190.072C99.2838 190.572 98.7461 191.34 98.1316 191.993C96.5953 193.798 94.9055 194.028 92.8315 192.953C90.9496 191.993 89.2213 190.303 86.9938 190.495C85.2271 190.649 83.7292 191.916 83.8061 193.759C83.8445 194.566 84.9966 194.566 84.9966 193.798Z" fill="#FFC300"/>
<path d="M356.874 224.369C357.719 222.679 359.717 221.681 361.56 222.257C363.135 222.756 363.826 224.485 365.401 224.984C367.743 225.752 369.51 223.524 371.315 222.487C374.503 220.682 376.423 224.83 379.611 224.945C382.914 225.061 385.948 222.449 389.251 223.524C389.942 223.755 390.249 222.641 389.558 222.411C386.025 221.22 383.068 223.947 379.611 223.793C377.46 223.678 376.423 221.834 374.58 221.066C373.389 220.567 372.237 220.721 371.085 221.297C369.779 221.95 368.78 223.102 367.475 223.678C365.17 224.715 364.21 222.18 362.367 221.335C359.947 220.221 356.951 221.412 355.799 223.755C355.569 224.446 356.567 225.022 356.874 224.369Z" fill="#FFC300"/>
<path d="M81.3481 99.8563C83.5753 99.8563 85.3807 98.0508 85.3807 95.8237C85.3807 93.5965 83.5753 91.791 81.3481 91.791C79.1209 91.791 77.3154 93.5965 77.3154 95.8237C77.3154 98.0508 79.1209 99.8563 81.3481 99.8563Z" fill="#FFC300"/>
<path d="M438.373 247.029C440.706 247.029 442.597 245.138 442.597 242.804C442.597 240.471 440.706 238.58 438.373 238.58C436.039 238.58 434.148 240.471 434.148 242.804C434.148 245.138 436.039 247.029 438.373 247.029Z" fill="#FFC300"/>
<path d="M83.4221 317.812C84.5675 317.812 85.496 316.883 85.496 315.738C85.496 314.592 84.5675 313.664 83.4221 313.664C82.2767 313.664 81.3481 314.592 81.3481 315.738C81.3481 316.883 82.2767 317.812 83.4221 317.812Z" fill="#FFC300"/>
<path d="M376.615 94.9786C379.182 94.9786 381.263 92.898 381.263 90.3315C381.263 87.7649 379.182 85.6843 376.615 85.6843C374.049 85.6843 371.968 87.7649 371.968 90.3315C371.968 92.898 374.049 94.9786 376.615 94.9786Z" fill="#FFC300"/>
<path d="M206.476 193.836C207.833 193.836 208.934 192.736 208.934 191.378C208.934 190.021 207.833 188.92 206.476 188.92C205.118 188.92 204.018 190.021 204.018 191.378C204.018 192.736 205.118 193.836 206.476 193.836Z" fill="#FFC300"/>
<path d="M93.8686 91.7909C95.4806 91.7909 96.7874 90.4841 96.7874 88.872C96.7874 87.26 95.4806 85.9531 93.8686 85.9531C92.2565 85.9531 90.9497 87.26 90.9497 88.872C90.9497 90.4841 92.2565 91.7909 93.8686 91.7909Z" fill="#EC615B"/>
<path d="M124.286 10.1392C127.086 10.1392 129.356 7.8695 129.356 5.06963C129.356 2.26975 127.086 0 124.286 0C121.487 0 119.217 2.26975 119.217 5.06963C119.217 7.8695 121.487 10.1392 124.286 10.1392Z" fill="#EC615B"/>
<path d="M333.754 199.405C335.811 199.405 337.479 197.737 337.479 195.68C337.479 193.622 335.811 191.954 333.754 191.954C331.696 191.954 330.029 193.622 330.029 195.68C330.029 197.737 331.696 199.405 333.754 199.405Z" fill="#EC615B"/>
<path d="M179.937 256.323C181.994 256.323 183.662 254.655 183.662 252.598C183.662 250.54 181.994 248.873 179.937 248.873C177.879 248.873 176.211 250.54 176.211 252.598C176.211 254.655 177.879 256.323 179.937 256.323Z" fill="white"/>
<path d="M157.316 401.537C157.316 401.537 134.464 401.307 128.012 394.432C125.976 392.281 125.208 389.785 125.208 389.785C124.863 388.71 124.709 387.596 124.709 386.405V329.18C124.709 322.881 129.817 317.812 136.077 317.812H180.821C187.119 317.812 192.189 322.92 192.189 329.18V386.405C192.074 388.863 191.459 392.435 189.116 395.546C184.431 401.691 175.328 401.729 157.316 401.537Z" fill="white" stroke="#9B9B9B" stroke-width="3" stroke-miterlimit="10"/>
<path d="M125.208 324.802C128.473 328.489 133.158 330.025 137.844 330.908C143.874 332.022 150.134 332.713 156.24 333.098C168.031 333.866 180.552 332.483 190.23 325.109C190.806 324.648 190.23 323.65 189.654 324.11C180.321 331.254 168.377 332.675 157.009 331.984C151.094 331.638 145.141 330.947 139.303 329.987C134.426 329.18 129.433 327.797 126.053 323.957C125.515 323.419 124.709 324.264 125.208 324.802Z" fill="#9B9B9B"/>
<path d="M124.824 338.167C128.281 342.008 133.35 343.237 138.189 344.351C144.642 345.848 151.209 347.193 157.853 347.385C164.306 347.577 170.412 346.348 176.557 344.427C181.934 342.737 187.618 341.163 192.035 337.514C192.611 337.053 191.805 336.247 191.228 336.708C186.889 340.318 181.204 341.816 175.904 343.467C169.99 345.311 164.075 346.463 157.853 346.271C151.67 346.079 145.602 344.888 139.572 343.506C134.618 342.392 129.202 341.316 125.631 337.361C125.131 336.784 124.325 337.629 124.824 338.167Z" fill="#9B9B9B"/>
<path d="M124.709 353.03C145.026 364.821 171.065 365.128 191.651 353.798C192.304 353.453 191.728 352.454 191.075 352.8C170.873 363.938 145.256 363.63 125.323 352.032C124.632 351.648 124.056 352.646 124.709 353.03Z" fill="#9B9B9B"/>
<path d="M124.44 365.359C125.669 370.582 132.39 372.349 136.807 373.77C142.99 375.728 149.404 376.881 155.856 377.265C162.309 377.649 168.838 377.188 175.175 375.959C181.051 374.807 187.273 373.194 191.728 368.93C192.265 368.431 191.459 367.586 190.921 368.124C186.735 372.157 180.782 373.654 175.213 374.807C169.299 375.997 163.269 376.458 157.239 376.228C151.324 375.997 145.448 375.075 139.764 373.501C136.845 372.694 133.888 371.734 131.084 370.505C128.665 369.43 126.207 367.893 125.554 365.128C125.362 364.322 124.286 364.629 124.44 365.359Z" fill="#9B9B9B"/>
<path d="M124.632 382.104C128.934 386.559 134.733 388.978 140.686 390.399C147.253 391.974 154.128 392.742 160.849 392.742C172.102 392.781 182.818 389.67 192.419 383.794C193.034 383.409 192.458 382.411 191.843 382.795C182.587 388.479 172.294 391.552 161.425 391.59C154.781 391.628 148.022 390.899 141.569 389.401C135.616 388.057 129.779 385.752 125.439 381.259C124.939 380.759 124.133 381.566 124.632 382.104Z" fill="#9B9B9B"/>
<path d="M381.109 381.643C381.109 381.643 358.257 381.336 351.805 372.733C349.77 370.006 349.001 366.895 349.001 366.895C348.656 365.551 348.502 364.13 348.502 362.67V290.927C348.502 283.054 353.61 276.679 359.87 276.679H404.614C410.912 276.679 415.982 283.054 415.982 290.927V362.67C415.867 365.781 415.252 370.236 412.909 374.115C408.262 381.835 399.122 381.873 381.109 381.643Z" fill="white" stroke="#9B9B9B" stroke-width="3" stroke-miterlimit="10"/>
<path d="M348.118 364.552C356.759 372.848 369.126 375.421 380.725 376.113C393.245 376.842 406.419 374.538 415.828 365.705C416.366 365.205 415.559 364.399 415.022 364.898C405.804 373.539 392.9 375.69 380.725 374.999C369.433 374.346 357.374 371.888 348.963 363.784C348.387 363.208 347.58 364.015 348.118 364.552Z" fill="#9B9B9B"/>
<path d="M348.003 356.026C368.089 370.889 395.972 370.774 415.982 355.796C416.558 355.373 415.982 354.336 415.406 354.797C405.919 361.941 394.282 366.012 382.376 366.089C370.24 366.204 358.334 362.209 348.617 354.989C347.964 354.605 347.388 355.604 348.003 356.026Z" fill="#9B9B9B"/>
<path d="M348.425 347.385C358.757 353.683 370.739 358.484 383.029 357.754C389.482 357.37 395.511 355.181 401.503 352.915C406.726 350.956 411.911 348.806 416.059 345.003C416.596 344.504 415.79 343.698 415.252 344.197C410.989 348.114 405.574 350.15 400.274 352.185C394.474 354.375 388.637 356.41 382.376 356.679C370.471 357.178 359.025 352.493 349.001 346.424C348.387 346.002 347.811 347.001 348.425 347.385Z" fill="#9B9B9B"/>
<path d="M348.272 337.476C369.395 348.498 395.857 347.615 416.174 335.133C416.788 334.749 416.212 333.75 415.598 334.134C395.626 346.386 369.625 347.308 348.848 336.477C348.195 336.132 347.619 337.13 348.272 337.476Z" fill="#9B9B9B"/>
<path d="M348.348 326.953C369.741 336.055 394.551 335.517 415.521 325.493C416.174 325.186 415.598 324.187 414.945 324.495C394.398 334.327 369.894 334.864 348.925 325.954C348.272 325.647 347.657 326.645 348.348 326.953Z" fill="#9B9B9B"/>
<path d="M348.541 317.044C370.586 323.458 394.436 322.459 415.828 314.24C416.52 313.971 416.212 312.857 415.521 313.126C394.282 321.268 370.663 322.267 348.848 315.93C348.118 315.699 347.811 316.813 348.541 317.044Z" fill="#9B9B9B"/>
<path d="M348.924 305.675C370.509 313.28 394.589 312.243 415.482 302.949C416.174 302.641 415.559 301.643 414.906 301.95C394.321 311.129 370.509 312.051 349.232 304.562C348.54 304.331 348.233 305.445 348.924 305.675Z" fill="#9B9B9B"/>
<path d="M348.54 294.307C370.394 301.796 394.743 300.606 415.79 291.081C416.481 290.774 415.867 289.775 415.214 290.082C394.474 299.492 370.432 300.606 348.886 293.193C348.156 292.924 347.849 294.038 348.54 294.307Z" fill="#9B9B9B"/>
<path d="M349.808 284.283C370.624 289.545 392.669 289.122 413.255 283.054C413.946 282.862 413.677 281.748 412.948 281.94C392.516 287.932 370.739 288.354 350.115 283.169C349.385 282.977 349.078 284.091 349.808 284.283Z" fill="#9B9B9B"/>
<path d="M368.38 358.31C375.069 336.245 371.934 315.764 361.378 312.564C350.823 309.365 336.844 324.658 330.155 346.723C323.466 368.788 326.601 389.269 337.156 392.469C347.712 395.669 361.691 380.376 368.38 358.31Z" fill="#9B9B9B" stroke="#9B9B9B" stroke-width="3" stroke-miterlimit="10"/>
<path d="M363.101 356.709C369.79 334.644 366.655 314.163 356.1 310.963C345.544 307.763 331.565 323.057 324.876 345.122C318.187 367.187 321.322 387.668 331.878 390.868C342.433 394.068 356.412 378.774 363.101 356.709Z" fill="white" stroke="#9B9B9B" stroke-width="3" stroke-miterlimit="10"/>
<path d="M231.9 368.009C231.862 370.428 231.824 372.848 231.747 375.267C227.791 377.418 223.682 379.838 219.457 382.565C213.926 386.098 208.895 389.708 204.402 393.203C205.093 393.856 205.784 394.47 206.476 395.123C210.201 394.394 214.042 393.587 217.959 392.665C227.292 390.476 235.933 387.903 243.922 385.215C243.768 380.491 243.614 375.728 243.461 371.004C241.925 371.004 239.851 370.851 237.508 370.275C235.165 369.622 233.283 368.777 231.9 368.009Z" fill="black"/>
<path d="M239.313 164.571C238.814 168.565 238.084 174.71 237.201 182.199C233.859 210.389 230.71 239.578 229.289 254.556C227.407 274.105 224.757 308.94 223.874 360.519C225.794 362.67 228.828 365.512 233.168 367.586C243.807 372.732 254.253 369.622 257.018 368.661C257.249 359.559 257.71 346.731 258.593 331.407C259.015 323.764 261.166 287.97 267.388 238.311C269.193 224.023 271.728 205.473 275.223 183.735C281.176 174.633 284.133 164.379 280.293 158.963C275.223 151.858 257.402 151.436 239.313 164.571Z" fill="white"/>
<path opacity="0.09" d="M257.057 191.954C256.788 196.102 256.481 200.288 256.212 204.436C252.371 259.972 248.146 315.507 243.499 371.004C247.993 370.236 252.525 369.43 257.018 368.661C257.364 355.104 257.978 341.163 258.862 326.952C260.897 294.153 264.2 263.083 268.348 233.856C268.963 221.335 269.577 208.776 270.153 196.256C265.775 194.796 261.397 193.375 257.057 191.954Z" fill="#777777"/>
<path d="M238.737 164.571C235.664 189.996 232.592 215.459 230.019 240.961C227.445 266.424 225.371 291.964 224.258 317.543C223.643 331.984 223.336 346.424 223.413 360.865C223.413 361.595 224.565 361.595 224.565 360.865C224.411 335.248 225.487 309.67 227.369 284.129C229.25 258.589 231.862 233.087 234.781 207.624C236.432 193.26 238.161 178.896 239.889 164.532C240.004 163.841 238.852 163.841 238.737 164.571Z" fill="#9B9B9B"/>
<path d="M271.92 203.553C265.045 246.069 260.398 288.93 257.978 331.945C257.287 344.158 256.788 356.41 256.442 368.623C256.404 369.353 257.556 369.353 257.594 368.623C258.785 325.762 262.126 282.939 267.695 240.385C269.308 228.171 271.075 215.997 273.034 203.822C273.11 203.131 272.035 202.823 271.92 203.553Z" fill="#9B9B9B"/>
<path d="M223.374 360.75C230.979 371.311 244.728 372.732 256.519 369.852C257.249 369.66 256.941 368.584 256.212 368.738C244.959 371.465 231.632 370.236 224.334 360.135C223.912 359.597 222.913 360.173 223.374 360.75Z" fill="#9B9B9B"/>
<path d="M231.324 368.008C231.363 369.852 231.709 372.079 231.401 373.923C231.056 375.997 228.674 376.611 226.985 377.533C223.643 379.338 220.379 381.297 217.153 383.332C214.157 385.253 211.2 387.25 208.281 389.362C206.937 390.322 202.981 392.166 203.941 394.355C204.978 396.813 208.934 395.277 210.7 394.893C214.31 394.125 217.882 393.28 221.454 392.396C229.097 390.476 236.625 388.248 244.075 385.752C244.767 385.521 244.459 384.408 243.768 384.638C237.239 386.827 230.672 388.824 223.989 390.553C220.648 391.436 217.306 392.243 213.965 393.011C212.275 393.395 210.624 393.74 208.934 394.125C208.434 394.24 207.973 394.317 207.474 394.432C206.552 394.893 206.13 394.624 206.245 393.548C205.746 392.857 205.823 392.358 206.552 392.089C206.937 391.82 207.321 391.513 207.705 391.244C213.043 387.288 218.65 383.64 224.45 380.337C225.909 379.492 227.369 378.724 228.828 377.917C229.903 377.341 231.517 376.88 232.169 375.766C232.592 375.113 232.553 374.384 232.553 373.616C232.553 371.772 232.515 369.929 232.477 368.085C232.477 367.279 231.324 367.279 231.324 368.008Z" fill="#9B9B9B"/>
<path d="M242.923 370.966C243.038 375.651 243.192 380.298 243.307 384.984C243.346 385.714 244.498 385.714 244.459 384.984C244.344 380.298 244.19 375.651 244.075 370.966C244.037 370.236 242.885 370.236 242.923 370.966Z" fill="#9B9B9B"/>
<path d="M293.235 370.582C293.581 373.731 293.888 376.88 294.234 380.03C289.049 383.102 282.674 387.749 276.759 394.701C274.647 397.197 272.842 399.655 271.344 401.998C272.65 402.075 274.647 402.075 277.028 401.844C283.787 401.192 288.089 399.041 296.385 395.469C299.534 394.125 304.335 392.089 310.403 389.708C309.904 386.482 309.404 383.141 308.982 379.761C308.214 373.885 307.638 368.201 307.177 362.708C302.491 365.359 297.882 367.97 293.235 370.582Z" fill="black"/>
<path d="M257.21 164.84C255.943 167.259 254.829 171.599 254.522 175.824C253.984 183.044 255.789 188.805 257.057 191.954C259.707 193.183 262.357 194.412 265.007 195.603C265.621 202.516 266.198 209.468 266.812 216.381C268.463 235.546 270.153 254.71 271.805 273.875C275.031 311.091 276.721 330.025 279.256 346.348C280.869 356.64 282.443 365.051 283.519 370.582C284.978 370.889 287.052 371.273 289.587 371.465C293.082 371.734 298.344 372.118 304.028 370.121C310.173 367.97 314.205 363.976 316.394 361.364C315.55 356.717 314.321 349.535 313.13 340.74C310.71 322.92 309.75 308.287 308.368 279.06C307.676 264.043 308.022 269.996 306.678 239.079C305.372 209.352 304.565 192.838 302.069 171.177C301.378 165.224 300.725 160.308 300.264 157.043C279.64 152.319 261.934 155.814 257.21 164.84Z" fill="white"/>
<path d="M256.75 192.454C259.438 193.721 262.126 194.95 264.815 196.217C265.468 196.525 266.082 195.526 265.391 195.219C262.703 193.951 260.014 192.722 257.326 191.455C256.673 191.148 256.097 192.108 256.75 192.454Z" fill="#9B9B9B"/>
<path d="M264.431 195.603C266.428 218.57 268.425 241.498 270.422 264.465C272.381 286.971 273.955 309.593 276.759 332.022C278.334 344.504 280.292 356.948 282.635 369.314C282.789 370.044 283.903 369.737 283.749 369.007C279.524 346.808 276.797 324.456 274.839 301.95C272.88 279.252 270.883 256.554 268.924 233.856C267.81 221.105 266.697 208.354 265.583 195.603C265.506 194.873 264.354 194.873 264.431 195.603Z" fill="#9B9B9B"/>
<path d="M300.648 164.225C303.759 189.804 305.064 215.574 306.178 241.307C307.254 267.039 308.099 292.809 310.288 318.465C311.478 332.713 313.13 346.924 315.357 361.019C315.473 361.748 316.586 361.441 316.471 360.712C312.4 335.325 310.48 309.708 309.174 284.053C307.868 258.436 307.215 232.78 305.602 207.202C304.719 192.838 303.528 178.512 301.8 164.264C301.723 163.495 300.571 163.495 300.648 164.225Z" fill="#9B9B9B"/>
<path d="M282.827 369.583C282.213 372.31 286.706 371.964 288.204 372.041C292.314 372.195 296.423 372.233 300.494 371.58C306.985 370.543 313.322 367.471 316.894 361.748C317.278 361.134 316.279 360.558 315.895 361.172C312.976 365.819 308.06 368.661 302.837 369.929C299.688 370.697 296.462 370.966 293.197 371.004C292.198 371.004 283.634 371.158 283.903 369.929C284.095 369.199 282.981 368.892 282.827 369.583Z" fill="#9B9B9B"/>
<path d="M292.851 372.041C293.12 373.962 293.466 375.92 293.696 377.841C294.003 380.299 292.39 381.374 290.701 382.795C288.127 384.946 285.362 386.866 282.712 388.902C278.026 392.473 273.495 396.391 270.806 401.729C270.691 401.998 270.729 402.382 270.998 402.536C273.725 403.803 276.567 402.651 279.255 401.806C282.75 400.692 286.245 399.54 289.702 398.273C296.692 395.776 303.567 393.011 310.326 390.015C311.017 389.708 310.403 388.71 309.75 389.017C303.528 391.782 297.191 394.355 290.777 396.66C287.782 397.735 284.748 398.772 281.713 399.771C278.833 400.692 274.493 402.92 271.536 401.537C271.613 401.806 271.689 402.075 271.728 402.344C274.992 395.93 280.869 391.667 286.514 387.481C288.972 385.637 292.006 383.794 294.003 381.374C294.772 380.414 294.964 379.454 294.848 378.225C294.656 376.074 294.234 373.885 293.888 371.772C293.85 371.004 292.736 371.312 292.851 372.041Z" fill="#9B9B9B"/>
<path d="M306.716 368.777C307.791 375.805 308.867 382.833 309.865 389.9C309.98 390.63 311.094 390.323 310.979 389.593C309.98 382.565 308.943 375.498 307.83 368.469C307.714 367.74 306.601 368.047 306.716 368.777Z" fill="#9B9B9B"/>
<path opacity="0.08" d="M286.476 165.07C287.974 177.514 289.395 189.957 290.739 202.401C296.846 258.052 301.762 313.817 305.487 369.737C307.023 369.238 309.289 368.354 311.632 366.549C314.013 364.744 315.511 362.785 316.394 361.441C315.549 356.64 314.32 349.458 313.13 340.74C310.365 320.5 309.52 305.56 308.022 271.763C306.101 228.748 306.293 226.482 305.256 210.543C303.951 190.649 302.338 174.48 301.262 164.225C296.308 164.494 291.392 164.801 286.476 165.07Z" fill="#777777"/>
<path d="M237.008 77.3503C235.779 78.4257 234.742 79.7315 232.899 83.5337C230.095 89.3715 228.713 94.2107 228.367 95.3628C226.831 100.74 224.718 105.541 220.532 115.18C213.811 130.581 214.81 124.436 212.736 130.274C212.198 131.81 211.123 134.998 208.319 136.342C206.322 137.264 204.325 136.842 203.902 136.726C201.867 136.227 200.676 134.921 198.295 132.233C195.261 128.738 193.763 127.01 193.072 126.049C191.074 123.284 188.002 119.367 183.624 114.604C182.779 113.26 181.588 111.609 179.975 109.88C178.554 108.344 177.402 107.384 175.097 105.425C171.218 102.161 170.105 101.777 169.068 102.007C168.991 102.007 167.723 102.314 167.416 103.198C167.071 104.273 168.184 105.886 170.45 107.077C168.607 108.421 166.955 109.151 165.803 109.535C163.883 110.226 161.502 111.071 158.852 110.38C157.584 110.034 156.624 109.458 155.088 108.498C152.591 106.962 151.785 105.809 150.71 106.155C149.826 106.424 149.365 107.538 149.25 108.267C149.096 109.381 149.596 110.533 150.556 111.263C150.825 111.916 151.055 112.799 150.671 113.452C150.325 113.99 149.788 113.99 149.481 114.412C149.173 114.873 149.212 115.872 150.786 118.061C150.479 118.253 149.404 118.906 149.442 119.789C149.481 120.404 150.057 120.826 150.978 121.441C154.128 123.668 153.244 123.284 154.473 124.014C155.702 124.744 157.968 126.088 161.079 126.779C165.534 127.816 169.413 127.01 171.564 126.395C172.409 126.433 173.676 126.664 174.905 127.394C176.979 128.661 177.786 130.773 178.247 131.81C178.247 131.849 180.474 134.96 184.853 141.181C188.924 146.942 190.959 149.823 193.148 151.897C196.106 154.7 198.756 157.158 202.942 157.888C206.629 158.541 209.702 157.504 211.123 157.005C214.157 155.929 216.269 154.316 219.188 151.628C222.529 148.555 226.869 144.484 231.862 137.418C236.202 131.273 238.737 126.049 239.582 124.206C242.116 118.829 243.269 114.835 245.65 106.885C247.685 100.01 248.799 96.2078 249.452 90.7925C250.374 83.1497 251.142 76.9279 247.877 74.8155C244.958 72.8184 239.85 74.9307 237.008 77.3503Z" fill="white"/>
<path d="M238.199 75.3149C234.166 79.0787 231.747 84.0715 229.903 89.218C227.714 95.2093 225.832 101.278 223.413 107.192C220.763 113.721 217.729 120.058 214.349 126.242C212.851 129.007 211.392 132.233 209.318 134.653C206.245 138.186 202.328 135.651 199.793 132.963C194.186 127.048 189.154 120.481 183.893 114.259C183.432 113.683 182.587 114.528 183.086 115.065C188.156 121.057 193.11 127.202 198.333 133.078C200.1 135.075 202.404 137.264 205.17 137.61C207.666 137.879 209.548 136.419 210.892 134.461C214.963 128.661 218.074 121.863 221.032 115.449C224.027 108.997 226.639 102.391 228.866 95.6702C231.209 88.6803 233.437 81.3447 238.967 76.1598C239.582 75.6221 238.737 74.8156 238.199 75.3149Z" fill="#9B9B9B"/>
<path d="M184.2 114.413C182.971 111.494 180.551 109.535 178.247 107.461C176.019 105.425 173.753 102.852 170.988 101.585C169.567 100.932 167.493 100.778 166.955 102.622C166.187 105.233 169.375 106.578 170.719 108.114C171.219 108.652 172.025 107.845 171.526 107.307C171.065 106.808 170.604 106.386 170.066 105.963C169.567 105.579 168.761 105.195 168.53 104.581C168.069 104.158 168.223 103.736 168.953 103.275C169.068 102.43 169.375 102.161 169.874 102.391C170.604 102.315 171.871 103.428 172.448 103.851C173.254 104.465 173.984 105.118 174.752 105.81C177.632 108.421 181.588 111.11 183.125 114.758C183.393 115.373 184.507 115.065 184.2 114.413Z" fill="#9B9B9B"/>
<path d="M170.451 107.038C167.57 108.191 164.382 109.957 161.195 110.034C159.505 110.072 157.815 109.612 156.394 108.69C155.318 108.037 154.55 107.038 153.513 106.309C152.208 105.387 150.134 105.003 149.097 106.501C147.906 108.152 149.481 109.996 150.633 111.109C151.171 111.609 151.977 110.802 151.439 110.303C150.94 109.842 150.364 109.304 150.134 108.69C149.634 107.384 150.671 106.424 151.939 106.731C153.091 107.038 153.897 108.152 154.742 108.843C156.048 109.919 157.623 110.649 159.274 110.956C163.269 111.685 167.186 109.535 170.758 108.075C171.411 107.845 171.142 106.731 170.451 107.038Z" fill="#9B9B9B"/>
<path d="M150.095 119.751C150.594 119.021 151.171 118.791 151.823 118.983C152.131 119.06 152.438 119.136 152.745 119.213C153.244 119.367 153.782 119.52 154.281 119.674C155.395 120.058 156.471 120.481 157.584 120.865C159.62 121.556 161.655 122.055 163.845 121.902C164.574 121.863 164.574 120.711 163.845 120.749C159.543 121.057 155.933 118.522 151.823 117.831C150.902 117.677 149.75 117.6 149.097 118.445C148.559 119.136 148.674 120.02 149.289 120.596C149.826 121.095 150.633 120.25 150.095 119.751Z" fill="#9B9B9B"/>
<path d="M151.401 117.83C151.132 117.178 150.518 116.217 150.479 115.526C149.98 114.873 150.249 114.527 151.286 114.527C151.439 114.604 151.555 114.72 151.708 114.796C152.438 115.027 153.206 115.68 153.936 116.025C154.473 116.256 155.011 116.448 155.549 116.64C158.199 117.446 160.964 117.485 163.652 116.87C164.382 116.717 164.075 115.603 163.345 115.757C161.079 116.294 158.736 116.294 156.471 115.68C155.395 115.411 154.358 114.988 153.398 114.451C152.707 114.067 152.092 113.491 151.362 113.222C150.518 112.914 149.442 113.068 149.097 113.99C148.674 115.18 149.941 117.062 150.364 118.099C150.556 118.829 151.67 118.522 151.401 117.83Z" fill="#9B9B9B"/>
<path d="M151.478 113.068C151.209 112.454 151.132 111.878 151.171 111.225C150.979 111.417 150.787 111.609 150.594 111.801C152.323 111.57 153.59 112.684 155.05 113.414C156.125 113.952 157.239 114.259 158.429 114.451C161.003 114.835 163.576 114.566 166.149 114.259C166.879 114.182 166.879 113.03 166.149 113.107C163.307 113.452 160.35 113.798 157.546 113.107C155.165 112.492 153.168 110.341 150.594 110.687C150.287 110.725 150.057 110.917 150.018 111.263C149.98 112.07 150.057 112.684 150.364 113.414C150.633 114.028 151.747 113.76 151.478 113.068Z" fill="#9B9B9B"/>
<path d="M149.097 120.135C154.512 126.664 163.653 129.352 171.756 126.933C172.448 126.702 172.179 125.589 171.449 125.819C163.691 128.162 155.088 125.55 149.903 119.328C149.442 118.752 148.636 119.559 149.097 120.135Z" fill="#9B9B9B"/>
<path d="M171.18 126.318C173.638 125.934 175.251 128.431 176.442 130.121C177.863 132.118 179.284 134.153 180.705 136.15C183.24 139.76 185.736 143.409 188.348 146.942C192.188 152.05 197.066 157.581 203.787 158.503C211.391 159.501 217.767 153.894 222.76 148.94C228.213 143.524 232.899 137.379 236.74 130.773C241.156 123.131 244.382 114.835 246.341 106.232C246.495 105.502 245.381 105.195 245.227 105.925C241.771 121.018 234.32 135.075 223.681 146.328C218.42 151.858 211.238 159.002 202.865 157.197C195.606 155.584 190.806 148.556 186.811 142.871C183.969 138.839 181.127 134.806 178.285 130.773C176.519 128.239 174.445 124.667 170.873 125.205C170.143 125.32 170.45 126.434 171.18 126.318Z" fill="#9B9B9B"/>
<path opacity="0.11" d="M173.446 125.051C176.096 127.048 178.785 129.045 181.435 131.004C182.203 132.962 187.465 145.752 199.755 148.824C205.285 150.207 209.894 149.055 212.39 148.402C229.481 143.87 237.854 126.049 239.659 121.978C235.818 131.081 231.44 137.763 228.137 142.218C224.104 147.634 220.686 150.975 216.692 153.702C213.312 156.006 210.777 157.696 207.167 157.965C201.022 158.426 196.26 154.432 193.149 151.82C189.308 148.632 187.887 146.059 181.857 137.149C178.209 131.772 175.213 127.547 173.446 125.051Z" fill="#777777"/>
<path d="M237.662 73.8937C239.928 72.0887 254.868 60.4132 274.493 64.2538C286.553 66.635 294.272 73.6249 297.345 76.7742C299.419 84.3402 301.339 94.0186 301.8 105.31C302.414 120.212 300.379 132.732 298.113 141.758C299.15 149.208 300.148 156.659 301.185 164.11C291.277 166.683 277.297 169.064 260.744 167.797C252.486 167.182 245.189 165.761 239.006 164.11C240.081 148.363 238.737 135.843 237.239 127.125C234.896 113.529 230.441 103.774 232.746 89.4099C233.859 82.6504 236.048 77.2735 237.662 73.8937Z" fill="#EC615B"/>
<path d="M126.629 80.154C133.289 80.154 138.689 74.1013 138.689 66.635C138.689 59.1686 133.289 53.116 126.629 53.116C119.969 53.116 114.57 59.1686 114.57 66.635C114.57 74.1013 119.969 80.154 126.629 80.154Z" fill="#FFC300" stroke="#FFF386" stroke-width="3" stroke-miterlimit="10"/>
<path d="M173.792 89.4867C178.013 89.4867 181.435 83.2965 181.435 75.6605C181.435 68.0245 178.013 61.8342 173.792 61.8342C169.571 61.8342 166.149 68.0245 166.149 75.6605C166.149 83.2965 169.571 89.4867 173.792 89.4867Z" fill="#FFC300" stroke="#FFF386" stroke-width="3" stroke-miterlimit="10"/>
<path d="M225.948 118.292C231.399 118.292 235.818 113.081 235.818 106.654C235.818 100.227 231.399 95.0173 225.948 95.0173C220.496 95.0173 216.077 100.227 216.077 106.654C216.077 113.081 220.496 118.292 225.948 118.292Z" fill="#FFC300" stroke="#FFF386" stroke-width="3" stroke-miterlimit="10"/>
<path d="M295.693 75.9676C294.541 76.2748 293.235 77.5422 292.16 82.343C291.007 87.5279 291.276 91.7526 291.353 93.3272C291.891 102.66 291.238 99.4722 291.852 108.19C292.505 118.022 293.581 125.704 294.272 130.543C294.694 133.5 295.078 135.958 295.347 137.725C292.62 140.029 289.663 142.372 286.475 144.715C283.825 146.673 281.252 148.44 278.717 150.092C277.796 149.9 276.835 149.669 275.875 149.4C273.801 148.863 271.843 148.287 269.961 147.71C270.153 142.679 270.345 137.686 270.575 132.655C269.269 132.194 267.196 131.58 264.622 131.157C262.126 130.735 259.437 130.543 250.489 131.042C248.338 131.157 245.458 131.349 242.001 131.618C241.502 132.655 241.002 133.654 240.503 134.691C236.931 135.113 233.36 135.536 229.788 135.958C230.326 138.531 230.786 140.644 231.132 142.142C233.475 152.281 234.819 155.046 236.701 157.389C237.7 158.618 238.621 159.463 239.236 159.962C242.577 160.5 245.918 161.037 249.221 161.537C250.335 162.727 251.487 163.995 252.716 165.224C254.099 166.606 255.443 167.912 256.787 169.141C256.634 169.064 254.598 168.104 252.793 169.218C251.91 169.756 250.796 170.946 251.065 171.868C251.411 173.02 253.715 173.251 256.557 173.519C258.938 173.75 261.435 173.98 264.699 173.289C268.271 172.521 270.69 171.1 271.19 170.793C275.645 168.104 277.949 164.225 278.948 162.19C280.1 161.998 281.751 161.729 283.71 161.191C290.431 159.348 294.963 156.237 298.305 153.932C302.952 150.706 306.101 148.479 308.636 144.139C309.942 141.911 310.595 139.837 311.017 138.416C311.209 135.805 311.401 132.386 311.363 128.431C311.363 125.128 311.171 117.754 309.596 108.037C307.945 98.0128 307.484 101.892 303.643 85.646C303.144 83.6104 301.838 78.0031 298.036 76.2748C296.768 75.7371 295.962 75.8908 295.693 75.9676Z" fill="white"/>
<path d="M296.154 75.6604C300.648 78.4256 302.414 83.7641 304.027 88.4881C305.871 93.8649 307.33 99.3954 308.444 105.003C310.672 116.371 311.286 128.046 310.364 139.568C310.287 140.298 311.44 140.298 311.516 139.568C312.515 127.432 311.785 115.219 309.289 103.274C308.022 97.2447 306.332 91.2917 304.219 85.4924C302.683 81.3061 300.724 77.0814 296.768 74.6618C296.077 74.2778 295.501 75.2763 296.154 75.6604Z" fill="#9B9B9B"/>
<path d="M295.616 74.2777C292.467 76.9278 291.315 80.8452 290.892 84.8011C290.316 90.3316 290.623 96.0541 290.854 101.623C291.315 113.529 292.659 125.358 294.81 137.072C294.925 137.802 296.039 137.494 295.924 136.765C293.888 125.665 292.621 114.412 292.083 103.121C291.852 97.8592 291.66 92.5975 291.891 87.3359C292.083 82.8807 292.813 78.1184 296.423 75.0843C296.999 74.6234 296.192 73.8169 295.616 74.2777Z" fill="#9B9B9B"/>
<path d="M294.964 137.302C289.971 142.065 284.44 146.174 278.449 149.592C277.796 149.976 278.372 150.975 279.025 150.591C285.093 147.096 290.7 142.91 295.808 138.109C296.308 137.61 295.501 136.803 294.964 137.302Z" fill="#9B9B9B"/>
<path d="M279.601 162.535C286.476 161.729 292.736 158.695 298.343 154.662C303.528 150.937 309.327 146.405 311.209 140.029C311.44 139.299 310.326 139.031 310.096 139.722C308.252 145.944 302.337 150.437 297.229 154.047C291.968 157.773 286.053 160.653 279.601 161.383C278.871 161.46 278.871 162.612 279.601 162.535Z" fill="#9B9B9B"/>
<path d="M278.449 149.324C275.069 149.093 271.036 145.829 267.695 147.595C266.696 148.133 266.274 149.055 266.773 150.13C267.618 151.935 270.575 151.513 271.075 153.395C271.267 154.124 272.38 153.817 272.188 153.087C271.958 152.281 271.535 151.743 270.844 151.282C270.422 151.013 269.846 150.975 269.423 150.706C268.54 150.476 268.386 149.708 269.001 148.363C269.653 148.248 270.306 148.248 270.921 148.402C273.533 148.824 275.798 150.284 278.487 150.476C279.178 150.553 279.178 149.4 278.449 149.324Z" fill="#9B9B9B"/>
<path d="M271.343 153.932C269.615 155.276 267.157 154.931 265.083 154.931C263.009 154.931 260.897 154.931 258.823 154.931C256.595 154.931 254.406 154.931 252.179 154.931C250.835 154.931 249.145 154.777 247.954 155.584C246.149 156.851 246.687 159.079 248.684 159.616C252.793 160.692 257.287 161.037 261.473 161.729C262.203 161.844 262.51 160.73 261.78 160.615C258.401 160.077 254.982 159.501 251.603 158.963C250.95 158.848 250.028 158.887 249.414 158.618C248.645 158.579 248.185 158.08 248.108 157.043C248.569 156.774 248.991 156.467 249.452 156.198C250.873 155.661 253.177 156.083 254.714 156.083C257.901 156.083 261.089 156.083 264.315 156.045C266.812 156.045 269.769 156.467 271.881 154.854C272.534 154.508 271.958 153.51 271.343 153.932Z" fill="#9B9B9B"/>
<path d="M250.45 160C252.601 163.035 255.597 165.147 259.169 166.107C259.898 166.299 260.206 165.185 259.476 164.993C256.173 164.11 253.408 162.19 251.411 159.424C251.026 158.81 250.028 159.386 250.45 160Z" fill="#9B9B9B"/>
<path d="M249.913 159.616C248.453 163.918 254.214 167.413 257.21 169.218C257.824 169.602 258.439 168.603 257.786 168.219C255.29 166.683 249.798 163.495 251.027 159.885C251.257 159.232 250.143 158.925 249.913 159.616Z" fill="#9B9B9B"/>
<path d="M256.98 168.603C255.29 168.258 253.523 168.027 252.025 169.026C251.065 169.64 250.182 170.869 250.527 172.06C250.911 173.327 252.409 173.519 253.523 173.673C256.058 174.019 258.631 174.326 261.166 174.249C268.962 174.095 276.106 169.564 279.486 162.497C279.793 161.844 278.794 161.229 278.487 161.921C276.183 166.721 272.035 170.485 266.965 172.137C264.162 173.059 261.204 173.212 258.247 173.02C256.788 172.905 255.328 172.751 253.869 172.559C252.717 172.674 252.025 172.098 251.833 170.754C252.14 170.447 252.486 170.14 252.793 169.871C253.946 169.179 255.405 169.487 256.634 169.717C257.402 169.871 257.709 168.757 256.98 168.603Z" fill="#9B9B9B"/>
<path d="M229.25 136.304C229.442 139.415 230.594 142.526 231.555 145.483C232.63 148.786 233.821 152.05 235.165 155.238C236.01 157.312 236.663 159.809 239.044 160.5C242.001 161.345 245.419 161.422 248.453 161.844C249.183 161.959 249.183 160.807 248.453 160.692C245.726 160.308 242.884 160.116 240.158 159.578C237.008 158.964 236.202 154.893 235.203 152.281C234.243 149.823 233.36 147.326 232.553 144.83C231.67 142.103 230.556 139.184 230.364 136.304C230.364 135.574 229.212 135.574 229.25 136.304Z" fill="#9B9B9B"/>
<path d="M229.788 136.573C238.583 135.651 247.416 135.536 256.25 136.189C256.058 136.035 255.866 135.92 255.712 135.766C257.287 141.527 258.861 147.25 260.475 153.01C260.667 153.74 261.78 153.433 261.588 152.703C260.014 146.942 258.439 141.22 256.826 135.459C256.749 135.19 256.519 135.036 256.288 135.036C247.455 134.345 238.621 134.499 229.826 135.42C229.058 135.497 229.058 136.649 229.788 136.573Z" fill="#9B9B9B"/>
<path d="M241.041 134.844C241.233 133.769 241.348 132.463 242.654 132.002C243.461 131.695 244.651 131.849 245.496 131.81C247.378 131.733 249.26 131.657 251.142 131.657C254.675 131.58 258.209 131.618 261.704 131.695C263.47 131.733 265.237 131.81 267.004 131.887C268.271 131.964 269.654 131.618 270.076 133.231C270.23 133.807 270.038 134.614 270.038 135.19C269.923 138.915 269.807 142.641 269.692 146.328C269.654 147.058 270.806 147.058 270.844 146.328C270.921 143.831 270.998 141.373 271.075 138.877C271.152 136.957 271.651 134.499 271.19 132.578C270.921 131.465 270.191 131.004 269.078 130.812C266.812 130.466 264.392 130.581 262.088 130.504C257.172 130.389 252.256 130.389 247.378 130.543C245.727 130.581 243.23 130.236 241.694 131.081C240.465 131.772 240.158 133.193 239.927 134.499C239.812 135.267 240.926 135.574 241.041 134.844Z" fill="#9B9B9B"/>
<path d="M268.041 133.884C267.964 137.418 267.733 140.913 267.311 144.446C267.234 145.176 268.386 145.176 268.463 144.446C268.885 140.951 269.116 137.418 269.193 133.884C269.231 133.154 268.079 133.154 268.041 133.884Z" fill="#9B9B9B"/>
<path opacity="0.15" d="M296.039 74.7002C297.383 78.7329 299.15 84.5322 300.532 91.6757C303.912 109.151 302.836 122.17 302.337 126.049C301.031 135.881 300.763 140.874 297.191 146.328C291.353 155.238 281.944 158.618 277.527 159.847C275.837 162.113 272.649 165.723 267.58 168.603C261.012 172.29 254.829 172.713 251.833 172.713C253.945 173.404 258.324 174.441 263.624 173.366C265.314 173.02 270.652 171.83 275.146 167.221C277.066 165.262 278.218 163.265 278.909 161.844C282.328 161.345 286.706 160.308 291.43 158.08C301.723 153.241 307.522 145.56 310.172 141.527C310.633 139.146 311.132 135.843 311.401 131.849C311.939 123.822 311.094 117.754 310.134 111.378C309.519 107.038 308.367 102.391 306.139 93.0584C304.949 88.104 304.104 85.0315 301.915 81.5365C299.879 78.272 297.613 76.0828 296.039 74.7002Z" fill="#777777"/>
<path opacity="0.1" d="M241.502 135.229C248.607 135.459 255.712 135.651 262.779 135.881C263.701 142.449 264.622 149.016 265.544 155.545C264.046 155.545 262.548 155.545 261.05 155.545C259.476 148.901 257.863 142.295 256.288 135.651C251.334 135.497 246.418 135.382 241.502 135.229Z" fill="#777777"/>
<path d="M245.496 16.2458C243.461 18.5502 242.385 21.6611 241.54 24.1191C241.041 25.5785 239.505 30.3025 239.735 37.2156C239.966 43.9367 240.235 52.4629 246.533 58.5695C251.104 62.9862 256.903 64.2152 260.628 64.5225C260.667 64.9833 261.089 68.4783 263.509 69.5537C264.93 70.1682 266.466 69.7073 268.041 68.9776C274.186 66.0971 277.911 60.7202 278.794 59.4144C282.136 54.4216 283.557 50.1201 285.247 44.8969C287.666 37.3309 288.857 33.4518 287.666 28.5742C286.629 24.3495 284.325 21.5843 283.442 20.5089C274.263 9.71677 253.101 7.64283 245.496 16.2458Z" fill="white"/>
<path opacity="0.15" d="M272.189 30.6096C272.265 32.5299 272.265 35.1031 271.881 38.0988C271.728 39.4431 271.075 43.9366 268.924 49.3903C266.428 55.7657 262.933 60.6817 259.937 64.1383C261.665 63.4854 263.701 62.5252 265.89 61.0658C267.234 60.1824 268.348 59.2607 269.308 58.3773C270.115 61.1426 270.96 63.9078 271.766 66.6731C272.688 65.8666 273.61 65.06 274.531 64.2535C273.61 61.373 272.688 58.4541 271.766 55.5737C272.918 54.3831 274.531 52.4628 275.799 49.7743C276.951 47.3163 277.45 45.0504 277.642 43.4757C278.026 43.7061 278.679 43.975 279.447 43.975C281.022 43.9366 282.059 42.7076 282.827 41.7858C283.365 41.1713 284.978 39.1742 285.17 36.1017C285.247 35.18 285.439 32.3763 283.557 29.8799C282.174 28.0748 279.179 25.732 276.029 26.769C273.456 27.6139 272.419 30.1103 272.189 30.6096Z" fill="#777777"/>
<path d="M240.043 35.5256C239.466 35.1032 232.592 29.9567 232.937 21.3921C233.283 12.5203 241.041 8.02677 242.462 7.29705C248.146 4.18615 255.751 3.99412 261.166 7.75793C263.163 9.14055 264.469 10.792 265.275 12.021C262.779 11.6754 255.635 11.0609 249.26 15.516C248.53 16.0537 246.572 17.4747 244.651 19.9711C240.081 26.0009 239.927 32.7604 240.043 35.5256Z" fill="#FFC300"/>
<path d="M254.983 9.83193C256.096 10.8689 257.863 12.5204 259.745 14.7479C266.773 23.0437 267.695 29.3423 273.072 30.917C274.224 31.2626 276.029 31.493 278.564 30.7249C279.063 30.5713 281.637 29.8416 283.442 31.2626C286.053 33.2597 284.747 37.7149 284.479 38.675C284.133 39.8272 283.365 42.554 280.83 43.591C279.447 44.1287 278.142 43.9751 277.489 43.8214C277.181 45.4729 276.682 47.5469 275.76 49.8128C274.608 52.5781 273.226 54.7288 272.035 56.2651C272.304 57.6477 272.765 59.6448 273.61 61.9492C275.223 66.4043 277.105 71.5124 281.829 74.508C282.366 74.8537 288.703 78.7327 294.848 76.2363C302.645 73.087 303.759 62.3717 304.027 59.568C305.18 48.1998 298.497 39.6352 296.538 37.3308C296.154 34.4887 295.463 30.4561 294.119 25.7321C291.699 17.3595 290.508 13.1733 287.129 9.87033C280.676 3.5333 269.692 2.84199 261.742 5.87608C258.708 6.98986 256.442 8.60293 254.983 9.83193Z" fill="#FFC300"/>
<path d="M240.119 41.6707C237.085 47.2012 235.818 52.1556 235.28 55.4585C234.435 60.4897 233.206 67.7485 237.162 74.4696C238.314 76.4283 240.619 80.3457 245.151 81.5747C250.681 83.0726 257.479 80.1153 260.014 74.4696C262.165 69.7072 260.321 65.0985 259.937 64.1383C258.324 63.9079 256.058 63.4086 253.562 62.2564C253.562 62.2564 250.528 60.8354 247.916 58.4158C241.771 52.7701 240.311 43.0917 240.119 41.6707Z" fill="#FFC300"/>
<path d="M241.848 21.4306C239.774 26.9227 238.775 32.8757 239.198 38.7519C239.62 44.3976 240.849 50.2737 244.114 54.9593C247.301 59.5296 252.064 62.7557 257.364 64.3304C259.13 64.8681 259.937 64.7145 261.665 63.9848C263.931 63.0246 266.082 61.7188 268.041 60.1825C273.187 56.1115 276.682 50.3121 278.026 43.9367C278.18 43.207 277.066 42.8997 276.913 43.6294C275.799 48.9295 273.187 53.8071 269.27 57.5709C267.388 59.376 265.237 60.9123 262.933 62.1028C261.512 62.8326 259.937 63.8695 258.324 63.4087C253.178 61.9876 248.454 58.9919 245.266 54.6136C242.078 50.2353 240.849 44.7432 240.35 39.4432C239.774 33.4134 240.772 27.3452 242.885 21.6995C243.23 21.0466 242.117 20.7393 241.848 21.4306Z" fill="black"/>
<path d="M277.258 43.8984C281.445 46.8173 285.132 40.0962 285.631 36.7548C286.284 32.607 282.712 27.6526 278.295 30.2258C277.642 30.6098 278.218 31.6084 278.871 31.2243C282.827 28.92 285.17 34.028 284.363 37.2541C283.787 39.6353 281.022 45.089 277.834 42.8998C277.22 42.4774 276.644 43.4759 277.258 43.8984Z" fill="#9B9B9B"/>
<path d="M253.754 26.1546C253.446 32.9525 253.523 39.7504 253.946 46.5484C253.984 47.0476 254.791 47.4317 255.021 46.8556C255.904 44.7817 256.788 42.7077 257.633 40.6722C257.901 39.9809 256.941 39.4048 256.634 40.0961C255.751 42.17 254.867 44.244 254.022 46.2795C254.368 46.3947 254.752 46.4715 255.098 46.5868C254.637 39.7889 254.598 32.991 254.906 26.193C254.944 25.4249 253.792 25.4249 253.754 26.1546Z" fill="black"/>
<path d="M253.024 51.5028C257.133 53.0775 260.436 49.8129 262.664 46.7404C263.086 46.1259 262.088 45.5498 261.665 46.1643C259.745 48.8144 256.941 51.7716 253.331 50.389C252.64 50.1202 252.333 51.234 253.024 51.5028Z" fill="black"/>
<path d="M264.047 40.6336C264.776 40.6336 264.776 39.4814 264.047 39.4814C263.278 39.4814 263.278 40.6336 264.047 40.6336Z" fill="#9B9B9B"/>
<path d="M268.578 38.7518C269.308 38.7518 269.308 37.5996 268.578 37.5996C267.849 37.5996 267.849 38.7518 268.578 38.7518Z" fill="#9B9B9B"/>
<path d="M268.041 43.0533C268.77 43.0533 268.77 41.9011 268.041 41.9011C267.311 41.9011 267.311 43.0533 268.041 43.0533Z" fill="#9B9B9B"/>
<path d="M244.498 40.6336C245.227 40.6336 245.227 39.4814 244.498 39.4814C243.768 39.4814 243.768 40.6336 244.498 40.6336Z" fill="#9B9B9B"/>
<path d="M248.261 40.6336C248.991 40.6336 248.991 39.4814 248.261 39.4814C247.493 39.4814 247.493 40.6336 248.261 40.6336Z" fill="#9B9B9B"/>
<path d="M247.455 44.1287C248.185 44.1287 248.185 42.9766 247.455 42.9766C246.687 42.9766 246.687 44.1287 247.455 44.1287Z" fill="#9B9B9B"/>
<path d="M246.341 20.0095C247.647 17.8204 250.643 17.2059 252.755 18.6653C253.37 19.0878 253.946 18.0892 253.331 17.6668C250.72 15.8617 246.994 16.7066 245.343 19.395C244.959 20.0864 245.957 20.6624 246.341 20.0095Z" fill="black"/>
<path d="M263.662 18.6654C266.159 18.0893 268.771 18.9726 270.345 21.0081C270.806 21.5842 271.805 21.0081 271.344 20.432C269.462 17.974 266.428 16.8219 263.355 17.5516C262.626 17.7052 262.933 18.819 263.662 18.6654Z" fill="black"/>
<path d="M247.647 34.1431C248.347 34.1431 248.914 32.905 248.914 31.3778C248.914 29.8506 248.347 28.6125 247.647 28.6125C246.947 28.6125 246.38 29.8506 246.38 31.3778C246.38 32.905 246.947 34.1431 247.647 34.1431Z" fill="black"/>
<path d="M265.314 34.1431C266.014 34.1431 266.581 32.905 266.581 31.3778C266.581 29.8506 266.014 28.6125 265.314 28.6125C264.614 28.6125 264.046 29.8506 264.046 31.3778C264.046 32.905 264.614 34.1431 265.314 34.1431Z" fill="black"/>
<path d="M260.091 64.7911C260.744 66.289 261.588 69.0158 263.048 69.9375C264.046 70.552 265.621 70.168 266.697 69.9375C270.038 69.1694 272.842 67.0187 274.647 64.1382C275.031 63.4853 274.032 62.9092 273.648 63.5621C272.189 65.9817 269.923 67.7868 267.234 68.6317C265.775 69.0926 264.162 69.5535 263.086 68.2093C262.241 67.1339 261.665 65.5208 261.128 64.2534C260.782 63.5237 259.783 64.1382 260.091 64.7911Z" fill="#9B9B9B"/>
<path d="M271.497 56.3803C271.92 58.7999 272.611 61.1426 273.61 63.4086C273.917 64.0999 274.916 63.4854 274.608 62.8325C273.648 60.6818 272.995 58.4158 272.611 56.073C272.496 55.3433 271.382 55.6505 271.497 56.3803Z" fill="#9B9B9B"/>
<g filter="url(#filter0_di)">
<path d="M123.75 63.7H124.47V67.903C124.47 68.281 124.419 68.608 124.317 68.884C124.221 69.16 124.08 69.388 123.894 69.568C123.714 69.742 123.495 69.871 123.237 69.955C122.979 70.039 122.694 70.081 122.382 70.081C121.638 70.081 121.077 69.913 120.699 69.577C120.321 69.241 120.132 68.731 120.132 68.047V63.7H120.879V67.696C120.879 68.014 120.909 68.284 120.969 68.506C121.035 68.722 121.131 68.899 121.257 69.037C121.383 69.169 121.539 69.265 121.725 69.325C121.917 69.385 122.139 69.415 122.391 69.415C122.877 69.415 123.225 69.283 123.435 69.019C123.645 68.749 123.75 68.308 123.75 67.696V63.7ZM125.31 69.325L128.487 64.726L128.865 64.366H125.31V63.7H129.54V64.375L126.345 69.001L125.967 69.334H129.54V70H125.31V69.325ZM133.211 68.398C133.211 68.146 133.136 67.942 132.986 67.786C132.836 67.624 132.647 67.483 132.419 67.363C132.197 67.237 131.954 67.12 131.69 67.012C131.426 66.904 131.18 66.775 130.952 66.625C130.73 66.469 130.544 66.28 130.394 66.058C130.244 65.83 130.169 65.542 130.169 65.194C130.169 64.702 130.34 64.312 130.682 64.024C131.024 63.736 131.51 63.592 132.14 63.592C132.506 63.592 132.839 63.619 133.139 63.673C133.439 63.727 133.673 63.796 133.841 63.88L133.616 64.537C133.478 64.471 133.274 64.408 133.004 64.348C132.74 64.288 132.44 64.258 132.104 64.258C131.708 64.258 131.411 64.348 131.213 64.528C131.015 64.702 130.916 64.909 130.916 65.149C130.916 65.383 130.991 65.578 131.141 65.734C131.291 65.89 131.477 66.031 131.699 66.157C131.927 66.277 132.173 66.397 132.437 66.517C132.701 66.637 132.944 66.778 133.166 66.94C133.394 67.096 133.583 67.285 133.733 67.507C133.883 67.729 133.958 68.005 133.958 68.335C133.958 68.605 133.91 68.848 133.814 69.064C133.718 69.28 133.577 69.466 133.391 69.622C133.205 69.778 132.98 69.898 132.716 69.982C132.452 70.066 132.152 70.108 131.816 70.108C131.366 70.108 130.994 70.072 130.7 70C130.406 69.934 130.178 69.859 130.016 69.775L130.268 69.1C130.406 69.178 130.61 69.256 130.88 69.334C131.15 69.406 131.453 69.442 131.789 69.442C131.987 69.442 132.173 69.424 132.347 69.388C132.521 69.346 132.671 69.283 132.797 69.199C132.923 69.109 133.022 68.998 133.094 68.866C133.172 68.734 133.211 68.578 133.211 68.398Z" fill="#535353"/>
</g>
<g filter="url(#filter1_i)">
<path d="M223.222 104.4H223.862V108.136C223.862 108.472 223.817 108.763 223.726 109.008C223.641 109.253 223.515 109.456 223.35 109.616C223.19 109.771 222.995 109.885 222.766 109.96C222.537 110.035 222.283 110.072 222.006 110.072C221.345 110.072 220.846 109.923 220.51 109.624C220.174 109.325 220.006 108.872 220.006 108.264V104.4H220.67V107.952C220.67 108.235 220.697 108.475 220.75 108.672C220.809 108.864 220.894 109.021 221.006 109.144C221.118 109.261 221.257 109.347 221.422 109.4C221.593 109.453 221.79 109.48 222.014 109.48C222.446 109.48 222.755 109.363 222.942 109.128C223.129 108.888 223.222 108.496 223.222 107.952V104.4ZM224.609 109.4L227.433 105.312L227.769 104.992H224.609V104.4H228.369V105L225.529 109.112L225.193 109.408H228.369V110H224.609V109.4ZM231.632 108.576C231.632 108.352 231.565 108.171 231.432 108.032C231.299 107.888 231.131 107.763 230.928 107.656C230.731 107.544 230.515 107.44 230.28 107.344C230.045 107.248 229.827 107.133 229.624 107C229.427 106.861 229.261 106.693 229.128 106.496C228.995 106.293 228.928 106.037 228.928 105.728C228.928 105.291 229.08 104.944 229.384 104.688C229.688 104.432 230.12 104.304 230.68 104.304C231.005 104.304 231.301 104.328 231.568 104.376C231.835 104.424 232.043 104.485 232.192 104.56L231.992 105.144C231.869 105.085 231.688 105.029 231.448 104.976C231.213 104.923 230.947 104.896 230.648 104.896C230.296 104.896 230.032 104.976 229.856 105.136C229.68 105.291 229.592 105.475 229.592 105.688C229.592 105.896 229.659 106.069 229.792 106.208C229.925 106.347 230.091 106.472 230.288 106.584C230.491 106.691 230.709 106.797 230.944 106.904C231.179 107.011 231.395 107.136 231.592 107.28C231.795 107.419 231.963 107.587 232.096 107.784C232.229 107.981 232.296 108.227 232.296 108.52C232.296 108.76 232.253 108.976 232.168 109.168C232.083 109.36 231.957 109.525 231.792 109.664C231.627 109.803 231.427 109.909 231.192 109.984C230.957 110.059 230.691 110.096 230.392 110.096C229.992 110.096 229.661 110.064 229.4 110C229.139 109.941 228.936 109.875 228.792 109.8L229.016 109.2C229.139 109.269 229.32 109.339 229.56 109.408C229.8 109.472 230.069 109.504 230.368 109.504C230.544 109.504 230.709 109.488 230.864 109.456C231.019 109.419 231.152 109.363 231.264 109.288C231.376 109.208 231.464 109.109 231.528 108.992C231.597 108.875 231.632 108.736 231.632 108.576Z" fill="#8D7937"/>
</g>
<path d="M337.001 342.357L339.028 342.849L337.317 349.897C337.146 350.604 336.904 351.189 336.594 351.653C336.283 352.117 335.921 352.475 335.507 352.727C335.094 352.979 334.629 353.125 334.113 353.165C333.597 353.205 333.053 353.155 332.481 353.016C329.716 352.345 328.64 350.747 329.253 348.22L331.029 340.907L333.165 341.425L331.492 348.318C331.388 348.744 331.336 349.117 331.336 349.436C331.349 349.747 331.415 350.017 331.536 350.244C331.66 350.461 331.836 350.642 332.065 350.785C332.297 350.919 332.579 351.026 332.912 351.106C333.567 351.265 334.084 351.198 334.464 350.905C334.843 350.612 335.131 350.06 335.328 349.249L337.001 342.357ZM339.007 352.388L345.19 347.052L346.16 346.594L340.733 345.277L341.195 343.375L348.758 345.211L348.296 347.113L342.067 352.503L341.128 352.903L346.57 354.224L346.108 356.126L338.545 354.29L339.007 352.388ZM353.744 354.875C353.825 354.543 353.766 354.242 353.567 353.974C353.378 353.708 353.117 353.446 352.783 353.189C352.462 352.924 352.105 352.65 351.711 352.367C351.33 352.077 350.984 351.756 350.673 351.405C350.375 351.047 350.149 350.64 349.996 350.184C349.852 349.731 349.855 349.198 350.004 348.584C350.133 348.054 350.332 347.618 350.602 347.276C350.875 346.924 351.204 346.657 351.589 346.476C351.985 346.297 352.421 346.199 352.899 346.183C353.376 346.166 353.89 346.225 354.441 346.359C355.075 346.513 355.659 346.715 356.193 346.966C356.729 347.206 357.154 347.474 357.467 347.77L356.361 349.401C356.168 349.2 355.856 348.987 355.427 348.761C355 348.526 354.521 348.343 353.991 348.215C353.492 348.093 353.083 348.099 352.765 348.231C352.457 348.365 352.263 348.599 352.182 348.931C352.106 349.243 352.163 349.532 352.351 349.798C352.55 350.067 352.81 350.333 353.131 350.598C353.463 350.866 353.819 351.145 354.2 351.436C354.591 351.729 354.936 352.055 355.234 352.413C355.545 352.764 355.772 353.166 355.915 353.619C356.071 354.064 356.079 354.578 355.938 355.16C355.796 355.742 355.575 356.222 355.274 356.601C354.986 356.971 354.631 357.254 354.21 357.449C353.798 357.646 353.327 357.752 352.795 357.766C352.274 357.782 351.717 357.719 351.124 357.575C350.345 357.386 349.676 357.146 349.119 356.857C348.562 356.568 348.16 356.316 347.915 356.102L349.044 354.444C349.143 354.535 349.272 354.637 349.431 354.753C349.601 354.871 349.792 354.989 350.006 355.107C350.219 355.225 350.446 355.335 350.685 355.437C350.935 355.542 351.195 355.627 351.465 355.693C352.1 355.847 352.608 355.86 352.991 355.733C353.387 355.598 353.638 355.312 353.744 354.875Z" fill="#9B9B9B"/>
<g filter="url(#filter2_i)">
<path d="M171.098 73.5442L171.74 73.4578L172.244 77.2081C172.29 77.5454 172.283 77.8432 172.226 78.1018C172.173 78.3595 172.075 78.5799 171.93 78.7628C171.79 78.9397 171.61 79.0811 171.39 79.187C171.17 79.2929 170.921 79.3645 170.643 79.402C169.979 79.4912 169.458 79.4086 169.08 79.1542C168.703 78.8997 168.473 78.4673 168.391 77.857L167.869 73.9783L168.536 73.8886L169.015 77.4542C169.053 77.738 169.113 77.9753 169.193 78.1662C169.278 78.351 169.385 78.4974 169.513 78.6054C169.642 78.7081 169.792 78.775 169.966 78.8062C170.144 78.8367 170.346 78.8369 170.571 78.8066C171.004 78.7483 171.299 78.5888 171.455 78.328C171.61 78.0619 171.65 77.6558 171.577 77.1098L171.098 73.5442ZM172.482 78.4679L174.765 73.9831L175.059 73.6165L171.887 74.0431L171.807 73.4488L175.581 72.9413L175.662 73.5436L173.367 78.0546L173.069 78.3971L176.257 77.9684L176.337 78.5627L172.563 79.0702L172.482 78.4679ZM178.738 76.7845C178.708 76.5597 178.617 76.3867 178.464 76.2655C178.311 76.1389 178.125 76.0358 177.907 75.956C177.694 75.8703 177.463 75.795 177.215 75.7303C176.966 75.6656 176.731 75.58 176.51 75.4736C176.293 75.361 176.104 75.2147 175.944 75.0346C175.783 74.8491 175.681 74.6012 175.64 74.2906C175.581 73.8516 175.686 73.4831 175.957 73.1851C176.228 72.8871 176.644 72.7003 177.206 72.6247C177.533 72.5808 177.833 72.5649 178.107 72.5771C178.381 72.5893 178.598 72.6228 178.758 72.6776L178.636 73.2908C178.505 73.2485 178.316 73.2168 178.068 73.1956C177.825 73.1738 177.554 73.183 177.254 73.2233C176.901 73.2708 176.646 73.3868 176.491 73.5711C176.335 73.7501 176.272 73.9467 176.301 74.1609C176.329 74.3697 176.419 74.5347 176.572 74.6559C176.724 74.7771 176.907 74.8805 177.12 74.9663C177.338 75.0461 177.572 75.1236 177.822 75.199C178.072 75.2744 178.306 75.3711 178.523 75.489C178.745 75.6008 178.937 75.7468 179.097 75.9269C179.258 76.107 179.358 76.3442 179.397 76.6387C179.43 76.8796 179.416 77.1022 179.356 77.3064C179.297 77.5107 179.193 77.6936 179.046 77.8551C178.899 78.0166 178.712 78.1507 178.487 78.2573C178.261 78.3639 177.999 78.4374 177.699 78.4777C177.297 78.5317 176.961 78.5442 176.69 78.5152C176.42 78.4916 176.207 78.4521 176.053 78.3965L176.197 77.764C176.329 77.8171 176.52 77.8622 176.771 77.8994C177.02 77.9312 177.295 77.927 177.595 77.8867C177.771 77.8629 177.935 77.8246 178.086 77.7716C178.236 77.7132 178.363 77.639 178.465 77.5489C178.567 77.4535 178.642 77.3426 178.69 77.2162C178.744 77.089 178.76 76.9451 178.738 76.7845Z" fill="#8D7937"/>
</g>
<defs>
<filter id="filter0_di" x="118.132" y="60.592" width="21.8264" height="14.516" filterUnits="userSpaceOnUse" color-interpolation-filters="sRGB">
<feFlood flood-opacity="0" result="BackgroundImageFix"/>
<feColorMatrix in="SourceAlpha" type="matrix" values="0 0 0 0 0 0 0 0 0 0 0 0 0 0 0 0 0 0 127 0"/>
<feOffset dx="2" dy="1"/>
<feGaussianBlur stdDeviation="2"/>
<feColorMatrix type="matrix" values="0 0 0 0 1 0 0 0 0 0.847059 0 0 0 0 0.352941 0 0 0 1 0"/>
<feBlend mode="normal" in2="BackgroundImageFix" result="effect1_dropShadow"/>
<feBlend mode="normal" in="SourceGraphic" in2="effect1_dropShadow" result="shape"/>
<feColorMatrix in="SourceAlpha" type="matrix" values="0 0 0 0 0 0 0 0 0 0 0 0 0 0 0 0 0 0 127 0" result="hardAlpha"/>
<feOffset dy="4"/>
<feGaussianBlur stdDeviation="2"/>
<feComposite in2="hardAlpha" operator="arithmetic" k2="-1" k3="1"/>
<feColorMatrix type="matrix" values="0 0 0 0 1 0 0 0 0 0.764706 0 0 0 0 0 0 0 0 0.34 0"/>
<feBlend mode="normal" in2="shape" result="effect2_innerShadow"/>
</filter>
<filter id="filter1_i" x="220.006" y="104.304" width="12.2901" height="9.792" filterUnits="userSpaceOnUse" color-interpolation-filters="sRGB">
<feFlood flood-opacity="0" result="BackgroundImageFix"/>
<feBlend mode="normal" in="SourceGraphic" in2="BackgroundImageFix" result="shape"/>
<feColorMatrix in="SourceAlpha" type="matrix" values="0 0 0 0 0 0 0 0 0 0 0 0 0 0 0 0 0 0 127 0" result="hardAlpha"/>
<feOffset dy="4"/>
<feGaussianBlur stdDeviation="2"/>
<feComposite in2="hardAlpha" operator="arithmetic" k2="-1" k3="1"/>
<feColorMatrix type="matrix" values="0 0 0 0 1 0 0 0 0 0.764706 0 0 0 0 0 0 0 0 0.34 0"/>
<feBlend mode="normal" in2="shape" result="effect1_innerShadow"/>
</filter>
<filter id="filter2_i" x="167.869" y="72.5732" width="11.545" height="10.8636" filterUnits="userSpaceOnUse" color-interpolation-filters="sRGB">
<feFlood flood-opacity="0" result="BackgroundImageFix"/>
<feBlend mode="normal" in="SourceGraphic" in2="BackgroundImageFix" result="shape"/>
<feColorMatrix in="SourceAlpha" type="matrix" values="0 0 0 0 0 0 0 0 0 0 0 0 0 0 0 0 0 0 127 0" result="hardAlpha"/>
<feOffset dy="4"/>
<feGaussianBlur stdDeviation="2"/>
<feComposite in2="hardAlpha" operator="arithmetic" k2="-1" k3="1"/>
<feColorMatrix type="matrix" values="0 0 0 0 1 0 0 0 0 0.764706 0 0 0 0 0 0 0 0 0.34 0"/>
<feBlend mode="normal" in2="shape" result="effect1_innerShadow"/>
</filter>
</defs>
</svg>
