<svg width="50" height="50" viewBox="0 0 50 50" fill="none" xmlns="http://www.w3.org/2000/svg">
<path d="M47.7064 45.4534H2.27229C1.017 45.4534 0 46.4709 0 47.7278C0 48.9826 1.017 50.0001 2.27229 50.0001H47.7053C48.9606 50.0001 49.9776 48.9826 49.9776 47.7278C49.9766 46.4709 48.9596 45.4534 47.7064 45.4534Z" fill="#000000"/>
<path d="M5.11165 39.5428C3.85635 39.5428 2.83936 40.5603 2.83936 41.8162C2.83936 43.0721 3.85635 44.0907 5.11165 44.0907H44.8661C46.1214 44.0907 47.1384 43.0721 47.1384 41.8162C47.1384 40.5603 46.1214 39.5428 44.8661 39.5428H44.2991V19.0867H44.8661C45.4948 19.0867 46.0012 18.5779 46.0012 17.9511C46.0012 17.3242 45.4927 16.8154 44.8661 16.8154H5.11165C4.484 16.8154 3.97656 17.3242 3.97656 17.9511C3.97656 18.5779 4.48506 19.0867 5.11165 19.0867H5.67972V39.5418H5.11165V39.5428ZM39.7545 19.0867V39.5418H32.9398V19.0867H39.7545ZM28.3952 19.0867V39.5418H21.5804V19.0867H28.3952ZM10.2222 19.0867H17.0369V39.5418H10.2222V19.0867Z" fill="#000000"/>
<path d="M2.27233 14.7722H47.7054C47.7128 14.7722 47.7213 14.7722 47.7277 14.7722C48.9841 14.7722 50 13.7547 50 12.4988C50 11.5005 49.3575 10.6543 48.4649 10.3478L25.9229 0.199559C25.3303 -0.0665198 24.6527 -0.0665198 24.0591 0.199559L1.34044 10.4266C0.362801 10.8672 -0.174421 11.9294 0.0511059 12.9767C0.275569 14.024 1.20108 14.7722 2.27233 14.7722Z" fill="#000000"/>
</svg>
