<?xml version="1.0" encoding="utf-8"?>
<!-- Generator: Adobe Illustrator 24.2.3, SVG Export Plug-In . SVG Version: 6.00 Build 0)  -->
<svg version="1.1" id="Layer_1" xmlns="http://www.w3.org/2000/svg" xmlns:xlink="http://www.w3.org/1999/xlink" x="0px" y="0px"
	 viewBox="0 0 259.2 72" style="enable-background:new 0 0 259.2 72;" xml:space="preserve">
<g>
	<g>
		<path d="M136.3,21.7c-2-1.7-6.7-3.8-11.3-3.8c-10.7,0-17,7.7-17,17.9c0,11,7.6,18.4,17,18.4c4.7,0,8.4-1.5,11-3.2l2.4,3.6
			c-2.9,2-8.1,4-13.6,4c-15.5,0-23.4-10.6-23.4-22.6c0-10.9,8.6-22.3,24.1-22.3c6.2,0,10.5,2.2,13.4,4.4L136.3,21.7z"/>
		<path d="M146.7,30.5l2.2-2.4c1.3-1.3,3.3-2.2,4.7-2.2c1.4,0,3.4,1,5.1,3l-2.5,3.6c-1.4-0.7-2.7-1.3-4.2-1.3
			c-2.9,0-5.2,2.9-5.2,9.7v16.7h-5.6v-31h5.5V30.5z"/>
		<path d="M156.7,41.8c0-10,7.4-15.9,15.3-15.9s15.3,5.8,15.3,15.9c0,9.6-6.1,16.6-15.3,16.6C162.9,58.4,156.7,51.4,156.7,41.8z
			 M162.7,41.8c0,5.8,2,12.6,9.2,12.6c7.3,0,9.3-6.8,9.3-12.6c0-5.6-2.3-11.9-9.3-11.9C165,29.9,162.7,36.2,162.7,41.8z"/>
		<path d="M212,26.7c3,7.4,6.1,14.8,9.1,23.7h0.1c2.4-9.1,5-16.7,7.4-24.3l5.1,0.9l-10.9,30.8h-3.9c-3.1-7.7-6.3-15.4-9.3-24.2h-0.1
			c-3,8.8-6,16.5-9.1,24.2h-3.7L186,27.4l5.5-1.4c2.5,7.6,5.1,15.2,7.6,24.3h0.1c3-8.9,6-16.3,9.1-23.7H212z"/>
		<path d="M238.3,42.6c-0.1,6.2,4.3,11.9,10.5,11.9c2.9,0,6.3-1.1,8.5-2.7l1.6,3c-3.2,2.3-7.1,3.6-10.3,3.6c-9.7,0-16.1-6-16.1-16.9
			c0-10.7,7.7-15.6,14.7-15.6c9.4,0,12.6,8.5,12,16.6H238.3z M254.1,38.9c0-4.8-2-8.9-6.9-8.9c-6,0-8.3,5-8.5,8.9H254.1z"/>
	</g>
	<path d="M43.5,0.4c-0.3-0.5-0.7-0.5-1,0L0.2,71.6c-0.3,0.5-0.2,0.5,0.1,0.1l41.9-50.6c0.4-0.4,0.4-0.4,0.1,0.1l-29,50.4
		c-0.3,0.5-0.2,0.5,0.1,0.1l34.3-41.4c0.4-0.4,0.4-0.4,0.2,0.1L25.4,71.6c-0.3,0.5-0.2,0.5,0.2,0.1l27.3-33c0.4-0.4,0.9-0.4,1.3,0
		l26.5,33c0.4,0.4,0.4,0.4,0.2-0.1L43.5,0.4z"/>
</g>
</svg>
