<svg width="49" height="62" viewBox="0 0 49 62" fill="none" xmlns="http://www.w3.org/2000/svg">
    <path d="M27.7778 16H19.5H11V11.5H19.5H27.7778V16Z" fill="black"/>
    <path d="M11 38H19.5H27.7778V33.5H19.5H11V38Z" fill="black"/>
    <path fill-rule="evenodd" clip-rule="evenodd" d="M0 50V0H38.8889L39 11H49V36V61L11.1111 61.1111V50H0ZM34.5 45.5V25V4.5H19H4.5V25V45.5H19H34.5ZM38.8889 16V50H15.5V53.5V57H30.5H44.5L44.4444 37.2226V16H41.5H38.8889Z" fill="black"/>
    <path d="M11 27.2157H19.5H27.7778V22.7157H19.5H11V27.2157Z" fill="black"/>
</svg>
