<svg width="451" height="418" viewBox="0 0 451 418" fill="none" xmlns="http://www.w3.org/2000/svg">
<g clip-path="url(#clip0)">
<path d="M35.884 119.997C40.9936 107.808 56.2602 111.703 65.7329 115.193C74.6144 118.474 83.426 122.601 92.9531 123.565C101.244 124.413 108.764 122.011 116.285 118.753C125.065 114.991 134.118 110.327 143.933 112.418C144.664 112.573 144.983 111.454 144.244 111.298C135.564 109.448 127.476 112.62 119.621 116.04C114.675 118.194 109.721 120.487 104.44 121.715C98.4825 122.991 92.3059 122.82 86.428 121.218C72.9579 117.883 43.3345 99.2566 34.7718 119.663C34.4763 120.355 35.6118 120.658 35.8917 119.974L35.884 119.997Z" fill="#E8E8E8"/>
<path d="M103.849 339.748C120.088 319.342 151.943 321.915 174.878 325.149C199.975 328.686 224.924 333.444 249.376 324.037C261.882 319.225 273.314 312.089 284.622 304.991C285.252 304.595 284.669 303.584 284.031 303.981C273.197 310.783 262.255 317.647 250.34 322.413C237.679 327.473 224.458 329.215 210.871 328.5C185.587 327.155 160.506 319 135.059 322.871C123.136 324.683 110.747 329.223 103.025 338.924C102.558 339.507 103.374 340.339 103.849 339.748Z" fill="#E8E8E8"/>
<path d="M262.978 333.887C273.252 326.447 285.221 321.324 298.03 320.873C310.474 320.446 322.497 324.131 334.062 328.282C345.331 332.332 356.468 336.996 368.227 339.476C379.651 341.937 391.483 341.78 402.837 339.019C414.191 336.258 424.773 330.963 433.789 323.532C434.372 323.058 433.54 322.234 432.965 322.708C413.638 338.497 388.191 343.511 364.082 337.307C341.94 331.594 320.856 318.65 297.354 319.731C284.583 320.322 272.622 325.444 262.356 332.876C261.757 333.312 262.356 334.322 262.947 333.887H262.978Z" fill="#E8E8E8"/>
<path d="M269.62 277.371C283.704 271.929 298.73 275.039 312.923 278.366C327.117 281.693 341.396 285.363 355.962 287.018C380.173 289.833 406.662 286.49 425.078 269.139C425.623 268.618 424.798 267.794 424.254 268.307C404.111 287.314 374.791 289.001 348.815 284.888C334.723 282.657 320.988 278.856 307.059 275.863C294.616 273.181 281.527 271.556 269.332 276.275C268.64 276.539 268.943 277.666 269.643 277.394L269.62 277.371Z" fill="#E8E8E8"/>
<path d="M177.701 164.168C198.809 152.181 223.781 156.2 246.436 160.522C269.091 164.844 291.451 168.179 313.818 160.577C324.819 156.8 335.017 150.999 343.884 143.474C344.46 142.992 343.636 142.168 343.06 142.65C331.829 152.159 318.472 158.825 304.12 162.085C288.643 165.552 273.089 164.168 257.659 161.416C231.263 156.752 202.059 148.978 177.118 163.134C176.984 163.211 176.886 163.339 176.846 163.488C176.806 163.638 176.827 163.797 176.904 163.931C176.981 164.065 177.109 164.163 177.258 164.203C177.408 164.243 177.567 164.222 177.701 164.145V164.168Z" fill="#E8E8E8"/>
<path d="M270.542 153.309C277.27 157.39 285.195 156.154 292.49 154.444C301.511 152.33 310.237 149.158 318.932 145.893C336.384 139.332 354.077 132.234 373.046 132.677C373.201 132.677 373.349 132.616 373.458 132.506C373.568 132.397 373.629 132.249 373.629 132.094C373.629 131.94 373.568 131.791 373.458 131.682C373.349 131.573 373.201 131.511 373.046 131.511C355.796 131.076 339.511 136.852 323.591 142.853C315.533 145.893 307.484 148.995 299.209 151.404C290.452 153.97 279.595 157.351 271.165 152.236C270.519 151.848 269.936 152.858 270.573 153.247L270.542 153.309Z" fill="#E8E8E8"/>
<path d="M190.437 55.7626C219.703 63.2722 245.951 44.4672 272.378 35.3718C302.577 24.9782 333.623 32.1846 362.593 43.0446C363.301 43.3089 363.604 42.1817 362.904 41.9174C335.77 31.7492 306.022 24.2397 277.355 32.5888C248.992 40.8213 221.74 62.6192 190.74 54.6588C190.666 54.6383 190.589 54.6327 190.513 54.6422C190.437 54.6516 190.363 54.676 190.296 54.7139C190.161 54.7904 190.062 54.9174 190.021 55.0669C189.98 55.2164 190 55.3761 190.076 55.511C190.153 55.6458 190.28 55.7447 190.429 55.786L190.437 55.7626Z" fill="#E8E8E8"/>
<path d="M121.69 88.8551C121.999 88.8551 122.296 88.7323 122.515 88.5136C122.733 88.2949 122.856 87.9983 122.856 87.689C122.856 87.3798 122.733 87.0832 122.515 86.8645C122.296 86.6458 121.999 86.5229 121.69 86.5229C121.38 86.5229 121.084 86.6458 120.865 86.8645C120.646 87.0832 120.523 87.3798 120.523 87.689C120.523 87.9983 120.646 88.2949 120.865 88.5136C121.084 88.7323 121.38 88.8551 121.69 88.8551Z" fill="#FDB913"/>
<path d="M323.78 244.806C324.519 242.948 325.989 242.311 328.174 242.886C328.649 243.259 329.131 243.609 329.621 243.959C330.175 244.324 330.824 244.519 331.488 244.519C332.996 244.418 333.44 243.205 334.521 242.42C337.32 240.375 337.632 242.987 339.965 243.508C341.52 243.866 345.409 240.282 346.256 242.163C346.568 242.84 347.571 242.249 347.26 241.573C346.482 239.87 344.732 240.095 343.262 240.842C341.792 241.588 340.976 242.606 339.133 241.619C338.612 241.332 338.308 240.601 337.756 240.313C337.47 240.126 337.148 240.001 336.81 239.945C336.473 239.888 336.128 239.903 335.796 239.987C334.668 240.251 334.287 241.316 333.463 241.915C330.648 243.866 330.251 242.272 327.965 241.425C325.53 240.523 324.006 242.334 322.793 244.239C322.388 244.876 323.399 245.459 323.804 244.83L323.78 244.806Z" fill="#FDB913"/>
<path d="M336.278 249.929C338.464 245.382 341.606 250.038 344.538 248.989C345.136 248.779 345.315 248.258 345.751 248.009C347.711 246.936 349.297 248.064 350.907 248.958C352.797 250.007 355.472 251.103 356.273 248.126C356.3 247.982 356.272 247.834 356.195 247.71C356.118 247.586 355.997 247.496 355.856 247.456C355.716 247.417 355.565 247.433 355.435 247.499C355.305 247.565 355.204 247.678 355.154 247.815C354.306 250.924 349.709 246.027 348.154 245.778C346.272 245.475 345.572 246.812 343.884 247.131C342.018 247.488 340.773 246.128 338.767 246.493C337.992 246.634 337.265 246.969 336.655 247.467C336.044 247.964 335.569 248.608 335.275 249.338C334.948 250.007 335.952 250.606 336.278 249.929Z" fill="#FDB913"/>
<path d="M26.4036 141.842C27.0569 136.859 31.8476 141.935 33.7841 141.22C36.0629 140.388 35.3396 136.75 38.746 138.639C39.7726 139.206 40.3014 140.326 41.6625 139.859C42.0513 139.727 42.2924 139.276 42.6113 139.082C42.7751 138.796 42.9206 138.5 43.0468 138.196C45.2866 136.509 46.8498 136.75 47.7131 138.895C48.1331 139.517 49.1441 138.895 48.7242 138.312C47.1065 135.941 45.5588 134.736 42.8757 136.027C42.5257 136.198 42.5024 136.897 42.2224 137.061L39.5548 137.838C39.2038 137.464 38.8213 137.121 38.4116 136.812C37.6339 136.579 37.4628 136.128 36.5528 136.322C35.4796 136.548 35.3551 137.403 34.7407 138.087C34.694 138.442 34.5118 138.766 34.2322 138.99C33.9526 139.215 33.597 139.323 33.2397 139.292C32.4672 139.991 31.7984 139.945 31.2332 139.152C30.5022 138.88 30.2222 138.374 29.4367 138.289C27.1035 137.947 25.5092 139.774 25.237 141.857C25.1437 142.596 26.3103 142.596 26.4036 141.857V141.842Z" fill="#FDB913"/>
<path d="M38.217 147.066C39.1814 144.073 42.6111 148.108 44.1666 147.843C45.722 147.579 45.6754 146.063 46.7408 145.41C49.6728 143.614 50.2328 147.097 52.6126 147.47C54.2614 147.727 55.8246 146.561 57.0456 145.659C57.6445 145.216 57.0456 144.205 56.4546 144.648C55.6203 145.109 54.6962 145.383 53.7457 145.453C52.7953 145.523 51.8409 145.386 50.9483 145.052C50.5206 144.811 50.2561 144.096 49.8439 143.793C49.4817 143.432 49.0106 143.199 48.5033 143.132C47.996 143.064 47.4805 143.166 47.0364 143.42C45.6209 144.127 46.212 144.741 44.1277 145.091C41.6779 145.511 38.3959 142.658 37.1282 146.724C36.9027 147.439 38.0226 147.75 38.2559 147.035L38.217 147.066Z" fill="#FDB913"/>
<path d="M131.092 405.756C133.978 402.437 138.193 408.943 141.646 408.22C142.805 407.979 143.015 407.443 143.855 406.782C146.079 404.979 147.285 405.313 149.711 406.627C151.266 407.466 152.876 408.314 154.595 407.404C155.171 407.109 155.552 406.285 156.081 406.036C157.535 405.336 158.336 406.168 159.503 406.572C160.444 406.891 160.677 407.186 161.735 406.992C162.512 406.852 162.162 405.725 161.423 405.865C159.814 406.168 158.779 404.022 157.162 404.155C156.088 404.24 156.073 404.777 155.256 405.212C153.639 406.067 152.861 406.767 151.041 405.989C150.263 405.678 149.563 405.103 148.809 404.738C147.952 404.229 146.974 403.96 145.978 403.96C145.179 404.033 144.431 404.382 143.863 404.948C142.128 406.44 143.085 407.925 138.768 406.339C137.948 405.888 137.167 405.368 136.435 404.784C134.413 403.579 131.987 402.942 130.284 404.893C129.794 405.461 130.61 406.292 131.108 405.717L131.092 405.756Z" fill="#FDB913"/>
<path d="M149.859 413.032C152.729 409.519 154.385 414.02 156.796 414.206C158.476 414.338 159.829 412.434 161.517 412.535C164.13 412.69 165.895 415.31 168.516 413.608C169.139 413.203 168.555 412.193 167.925 412.605C165.748 414.02 163.259 411.384 161.066 411.291C159.433 411.221 158.632 412.356 157.037 412.348C154.183 412.348 151.593 409.068 149.035 412.208C148.568 412.791 149.384 413.615 149.859 413.032Z" fill="#FDB913"/>
<path d="M27.189 101.838C31.6732 101.838 35.3084 98.2039 35.3084 93.7216C35.3084 89.2393 31.6732 85.6057 27.189 85.6057C22.7048 85.6057 19.0696 89.2393 19.0696 93.7216C19.0696 98.2039 22.7048 101.838 27.189 101.838Z" stroke="#FDB913" stroke-miterlimit="10"/>
<path d="M229.536 300.7C231.254 300.7 232.647 299.308 232.647 297.591C232.647 295.873 231.254 294.481 229.536 294.481C227.818 294.481 226.425 295.873 226.425 297.591C226.425 299.308 227.818 300.7 229.536 300.7Z" stroke="#FDB913" stroke-width="0.5" stroke-miterlimit="10"/>
<path d="M53.4448 365.433C56.3269 365.433 58.6633 363.098 58.6633 360.217C58.6633 357.336 56.3269 355.001 53.4448 355.001C50.5627 355.001 48.2263 357.336 48.2263 360.217C48.2263 363.098 50.5627 365.433 53.4448 365.433Z" stroke="#FDB913" stroke-miterlimit="10"/>
<path d="M410.753 7.69609C412.772 7.69609 414.408 6.06027 414.408 4.04238C414.408 2.02449 412.772 0.388672 410.753 0.388672C408.734 0.388672 407.098 2.02449 407.098 4.04238C407.098 6.06027 408.734 7.69609 410.753 7.69609Z" stroke="#FDB913" stroke-miterlimit="10"/>
<path d="M448.651 95.4783C449.734 95.4783 450.611 94.6012 450.611 93.5193C450.611 92.4374 449.734 91.5603 448.651 91.5603C447.569 91.5603 446.691 92.4374 446.691 93.5193C446.691 94.6012 447.569 95.4783 448.651 95.4783Z" stroke="#FDB913" stroke-miterlimit="10"/>
<path d="M124.63 94.2113C127.391 94.2113 129.63 91.9733 129.63 89.2127C129.63 86.4521 127.391 84.2141 124.63 84.2141C121.868 84.2141 119.629 86.4521 119.629 89.2127C119.629 91.9733 121.868 94.2113 124.63 94.2113Z" fill="#EC615B"/>
<path d="M123.37 26.7497C125.436 26.7497 127.111 25.0756 127.111 23.0105C127.111 20.9453 125.436 19.2712 123.37 19.2712C121.304 19.2712 119.629 20.9453 119.629 23.0105C119.629 25.0756 121.304 26.7497 123.37 26.7497Z" fill="#EC615B"/>
<path d="M328.851 374.054C332.674 374.054 335.773 370.957 335.773 367.136C335.773 363.314 332.674 360.217 328.851 360.217C325.028 360.217 321.929 363.314 321.929 367.136C321.929 370.957 325.028 374.054 328.851 374.054Z" fill="#EC615B"/>
<path d="M272.746 259.04C274.563 259.04 276.036 257.568 276.036 255.752C276.036 253.936 274.563 252.464 272.746 252.464C270.929 252.464 269.457 253.936 269.457 255.752C269.457 257.568 270.929 259.04 272.746 259.04Z" fill="#EC615B"/>
<path d="M88.7922 390.893C91.9707 390.893 94.5474 388.317 94.5474 385.14C94.5474 381.963 91.9707 379.387 88.7922 379.387C85.6138 379.387 83.0371 381.963 83.0371 385.14C83.0371 388.317 85.6138 390.893 88.7922 390.893Z" stroke="#EC615B" stroke-miterlimit="10"/>
<path d="M192.781 353.073C193.09 353.073 193.387 352.95 193.606 352.731C193.825 352.513 193.948 352.216 193.948 351.907C193.948 351.598 193.825 351.301 193.606 351.082C193.387 350.864 193.09 350.741 192.781 350.741C192.472 350.741 192.175 350.864 191.956 351.082C191.737 351.301 191.615 351.598 191.615 351.907C191.615 352.216 191.737 352.513 191.956 352.731C192.175 352.95 192.472 353.073 192.781 353.073Z" fill="#EC615B"/>
<path d="M362.915 308.529C362.604 307.184 368.414 308.777 369.261 308.529C370.646 308.117 371.245 307.036 372.8 306.663C375.009 306.142 377.287 306.935 379.38 307.534C380.799 308.059 382.344 308.143 383.813 307.775C386.146 307.339 387.499 307.106 389.762 307.775C390.778 308.138 391.859 308.287 392.935 308.21C393.713 308.156 393.713 306.989 392.935 307.044C389.949 307.262 387.717 305.24 384.715 305.862C382.864 306.251 381.604 306.78 379.691 306.391C378.913 306.235 378.135 305.917 377.357 305.738C375.944 305.372 374.475 305.272 373.026 305.442C371.027 305.761 369.915 307.083 367.885 306.896C366.617 306.787 365.303 306.041 363.996 306.119C362.386 306.228 361.399 307.285 361.749 308.801C361.912 309.532 363.04 309.221 362.876 308.49L362.915 308.529Z" fill="#EC615B"/>
<path d="M381.83 313.721C384.824 312.509 387.11 314.11 389.397 315.727C389.529 315.795 389.682 315.811 389.826 315.772C389.97 315.734 390.094 315.643 390.174 315.517C391.847 313.333 393.993 313.006 396.396 313.791C396.98 313.986 397.47 314.367 398.061 314.569C399.429 314.954 400.877 314.954 402.245 314.569C402.976 314.406 402.672 313.278 401.934 313.442C397.594 314.413 394.989 309.555 391.162 312.711C388.907 314.561 389.428 313.768 386.574 312.649C385.787 312.274 384.928 312.075 384.057 312.064C383.185 312.053 382.322 312.232 381.526 312.586C380.842 312.866 381.145 313.994 381.837 313.706L381.83 313.721Z" fill="#EC615B"/>
<path d="M47.1035 171.863C48.877 174.672 50.8982 177.317 53.1432 179.766C56.7098 183.67 62.235 189.699 71.0514 192.118C73.2853 192.736 75.5844 193.089 77.901 193.168C81.7469 191.574 85.3478 189.443 88.5965 186.84C95.7993 181.016 99.2663 174.394 102.459 168.113C105.586 161.94 107.911 155.393 109.381 148.632C107.944 147.125 106.374 145.751 104.691 144.526C92.6476 135.729 78.1249 137.014 71.8279 137.947C71.8347 141.585 71.3369 145.207 70.3488 148.71C69.3548 152.243 67.2997 159.522 60.6152 165.307C56.7454 168.611 52.0934 170.868 47.1035 171.863Z" fill="white"/>
<path d="M197.554 67.4854C199.786 69.3681 201.842 71.4497 203.698 73.7045C206.968 77.3963 209.493 81.686 211.133 86.337C212.806 91.5031 213.207 96.9971 212.299 102.351C220.722 103.457 228.767 106.522 235.791 111.298C242.814 116.075 248.619 122.43 252.741 129.855C254.54 126.565 256.127 123.163 257.493 119.671C264.414 101.947 264.22 85.3186 262.82 73.9377C256.205 68.9828 248.683 65.3724 240.678 63.3108C220.395 58.1567 203.472 64.8267 197.554 67.4854Z" fill="white"/>
<path d="M223.32 230.505C224.737 231.995 226.821 233.994 229.386 236.263C232.975 239.443 238.474 244.305 245.183 248.077C257.245 254.839 268.9 255.626 273.766 255.92C280.081 256.281 286.417 255.803 292.607 254.5C295.838 250.217 298.666 245.644 301.055 240.841C305.908 231.043 308.913 220.435 309.92 209.55C306.752 210.62 303.428 211.148 300.085 211.114C292.617 211.02 287.251 208.059 283.36 205.857C272.357 199.624 265.748 190.488 262.345 184.857C252.672 188.816 244.084 195.027 237.295 202.972C230.507 210.918 225.714 220.369 223.317 230.539L223.32 230.505Z" fill="white"/>
<path opacity="0.14" d="M259.212 185.964C254.622 190.895 251.715 197.154 250.909 203.84C250.027 211.605 252.053 219.994 256.506 225.449C265.366 236.284 286.205 238.414 304.993 226.749C303.581 236.981 299.291 246.603 292.622 254.494C287.794 255.47 282.881 255.962 277.956 255.96C268.175 255.987 258.491 254.02 249.496 250.181C239.242 245.555 230.32 238.421 223.554 229.437C226.371 218.718 231.764 208.849 239.264 200.687C244.945 194.588 251.709 189.596 259.212 185.964Z" fill="#9E9E9E"/>
<path opacity="0.14" d="M72.2539 138.882C72.4503 143.521 73.381 148.1 75.0112 152.448C80.5661 167.161 92.6036 174.553 97.0774 176.994C92.6058 184.306 85.8863 189.973 77.9251 193.149C71.4012 192.276 65.2054 189.765 59.9155 185.851C54.6256 181.936 50.414 176.745 47.6736 170.762C51.5242 170.521 55.2674 169.393 58.6111 167.467C72.4551 159.343 72.2822 140.179 72.2539 138.882Z" fill="#9E9E9E"/>
<path opacity="0.14" d="M198.65 68.4494C202.813 71.7911 206.232 75.9638 208.691 80.701C210.638 84.508 211.951 88.6067 212.579 92.836C213.188 96.5275 213.321 100.282 212.976 104.007C217.2 104.804 221.359 105.914 225.419 107.326C232.582 109.822 238.812 111.991 244.45 117.432C248.07 120.955 250.897 125.208 252.741 129.909C251.757 122.279 249.931 114.781 247.297 107.552C241.053 90.7848 230.769 75.816 217.354 63.9717L198.65 68.4494Z" fill="#9E9E9E"/>
<path d="M46.6498 172.23C53.5533 183.182 64.2901 191.17 76.7667 194.635C77.4866 194.833 77.8915 193.725 77.1863 193.546C64.9149 190.14 54.3589 182.276 47.5849 171.494C47.1627 170.835 46.2555 171.569 46.6777 172.227L46.6498 172.23Z" fill="black"/>
<path d="M47.622 171.354C54.8069 171.693 60.7044 166.395 64.8516 161.022C69.7039 154.655 72.4941 146.957 72.8482 138.961C72.8833 138.213 71.7242 138.091 71.6891 138.839C71.3795 145.791 69.1815 152.527 65.3313 158.325C61.4569 164.097 55.1909 170.523 47.7291 170.188C46.9809 170.153 46.853 171.306 47.6062 171.347L47.622 171.354Z" fill="black"/>
<path d="M78.1415 193.663C95.1752 187.889 105.249 167.408 109.596 151.236C109.794 150.516 108.682 150.106 108.507 150.817C104.241 166.743 94.4295 186.892 77.6894 192.609C76.9777 192.855 77.4506 193.922 78.1562 193.681L78.1415 193.663Z" fill="black"/>
<path d="M71.9216 138.521C78.4726 136.948 85.3171 137.086 91.7982 138.92C98.2793 140.754 104.18 144.223 108.933 148.994C109.476 149.554 110.383 148.821 109.84 148.26C104.957 143.334 98.8901 139.745 92.2205 137.838C85.5508 135.931 78.5023 135.77 71.7508 137.369C71.0193 137.541 71.1902 138.692 71.9216 138.521Z" fill="black"/>
<path d="M224.694 229C225.064 219.499 232.367 209.918 238.185 202.862C244.679 194.949 252.746 188.541 262.571 185.395C263.313 185.155 262.888 184.069 262.147 184.308C252.142 187.509 243.881 194.084 237.277 202.14C231.377 209.328 223.907 219.208 223.556 228.843C223.522 229.591 224.679 229.773 224.705 229.028L224.694 229Z" fill="black"/>
<path d="M262.927 185.706C271.667 201.212 291.33 216.915 310.135 210.058C310.279 210.002 310.395 209.891 310.457 209.749C310.519 209.608 310.522 209.447 310.466 209.303C310.41 209.159 310.299 209.043 310.157 208.981C310.015 208.919 309.855 208.916 309.711 208.972C291.423 215.635 272.333 200.033 263.856 184.984C263.486 184.336 262.556 185.033 262.919 185.684L262.927 185.706Z" fill="black"/>
<path d="M224.737 231.845C240.646 251.744 267.78 260.796 292.467 254.504C293.189 254.322 292.758 253.239 292.043 253.418C267.871 259.576 241.22 250.585 225.674 231.145C225.204 230.561 224.264 231.254 224.737 231.845Z" fill="black"/>
<path d="M293.088 254.854C302.43 242.393 308.266 227.66 309.989 212.185C310.072 211.435 308.922 211.25 308.84 212C307.144 227.277 301.388 241.823 292.17 254.128C291.728 254.727 292.639 255.456 293.088 254.854Z" fill="black"/>
<path d="M199.218 70.5172C203.971 74.1849 207.645 79.0688 209.849 84.6522C212.053 90.2355 212.706 96.3106 211.739 102.235C211.615 102.965 212.742 103.284 212.859 102.546C213.882 96.3745 213.209 90.0415 210.91 84.2236C208.612 78.4056 204.774 73.3214 199.809 69.5144C199.21 69.0558 198.627 70.0664 199.218 70.5172Z" fill="black"/>
<path d="M203.666 66.9722C223.887 62.4556 247.39 61.3751 263.325 77.0083C263.862 77.5369 264.686 76.7129 264.15 76.1843C247.919 60.2556 224.012 61.2662 203.355 65.845C202.624 66.0083 202.935 67.1355 203.666 66.9722Z" fill="black"/>
<path d="M215.503 105.383C230.202 108.695 246.807 114.401 252.157 130.049C252.191 130.157 252.254 130.254 252.341 130.327C252.427 130.4 252.533 130.446 252.645 130.461C252.757 130.476 252.871 130.458 252.974 130.41C253.076 130.362 253.163 130.285 253.223 130.189C262.719 113.81 263.146 94.554 263.279 76.1377C263.279 75.9831 263.217 75.8348 263.108 75.7255C262.998 75.6161 262.85 75.5547 262.695 75.5547C262.541 75.5547 262.392 75.6161 262.283 75.7255C262.174 75.8348 262.112 75.9831 262.112 76.1377C261.98 94.3519 261.607 113.406 252.212 129.598L253.277 129.738C247.786 113.662 230.957 107.668 215.814 104.256C215.083 104.092 214.772 105.22 215.503 105.383Z" fill="black"/>
<path d="M281.364 243.023C280.906 241.628 281.566 239.813 283.329 237.592C283.839 237.188 284.343 236.768 284.852 236.34C285.411 235.846 285.947 235.194 286.393 234.465C287.354 232.775 287.029 231.908 287.352 230.473C288.183 226.755 289.733 227.234 291.568 224.834C292.797 223.237 293.568 217.84 295.104 217.499C295.66 217.37 296.03 216.082 295.474 216.211C294.077 216.531 293.018 218.525 292.414 220.374C291.81 222.223 291.784 223.44 290.039 225.155C289.541 225.637 288.962 225.741 288.444 226.257C288.155 226.513 287.875 226.828 287.619 227.181C287.364 227.534 287.139 227.918 286.96 228.308C286.338 229.63 286.629 230.383 286.382 231.477C285.493 235.183 284.409 235.118 282.438 237.364C280.339 239.755 280.246 241.999 280.409 243.93C280.465 244.574 281.443 243.646 281.391 243.004L281.364 243.023Z" fill="#9E9E9E"/>
<path d="M275.24 243.398C274.783 242.003 275.443 240.188 277.206 237.967C277.716 237.563 278.22 237.143 278.728 236.715C279.288 236.221 279.824 235.569 280.27 234.84C281.231 233.151 280.906 232.283 281.229 230.849C282.06 227.131 283.61 227.609 285.445 225.209C286.673 223.612 287.445 218.215 288.98 217.874C289.537 217.745 289.907 216.457 289.351 216.587C287.954 216.906 286.895 218.9 286.29 220.749C285.686 222.598 285.661 223.815 283.916 225.53C283.418 226.012 282.839 226.116 282.32 226.633C282.032 226.889 281.751 227.203 281.496 227.556C281.24 227.909 281.016 228.293 280.836 228.683C280.215 230.005 280.506 230.758 280.259 231.852C279.37 235.558 278.285 235.493 276.314 237.739C274.216 240.131 274.122 242.374 274.286 244.305C274.341 244.949 275.32 244.022 275.268 243.38L275.24 243.398Z" fill="#9E9E9E"/>
<path d="M269.24 242.398C268.783 241.003 269.443 239.188 271.206 236.967C271.716 236.563 272.22 236.143 272.728 235.715C273.288 235.221 273.824 234.569 274.27 233.84C275.231 232.151 274.906 231.283 275.229 229.849C276.06 226.131 277.61 226.609 279.445 224.209C280.673 222.612 281.445 217.215 282.98 216.874C283.537 216.745 283.907 215.457 283.351 215.587C281.954 215.906 280.895 217.9 280.29 219.749C279.686 221.598 279.661 222.815 277.916 224.53C277.418 225.012 276.839 225.116 276.32 225.633C276.032 225.889 275.751 226.203 275.496 226.556C275.24 226.909 275.016 227.293 274.836 227.683C274.215 229.005 274.506 229.758 274.259 230.852C273.37 234.558 272.285 234.493 270.314 236.739C268.216 239.131 268.122 241.374 268.286 243.305C268.341 243.949 269.32 243.022 269.268 242.38L269.24 242.398Z" fill="#9E9E9E"/>
<path d="M234.514 224.49C234.288 223.039 235.233 221.354 237.332 219.448C237.901 219.132 238.466 218.799 239.037 218.459C239.669 218.062 240.303 217.505 240.861 216.858C242.083 215.346 241.903 214.437 242.453 213.074C243.874 209.539 245.327 210.262 247.526 208.19C248.996 206.813 250.63 201.612 252.201 201.524C252.771 201.486 253.344 200.275 252.775 200.313C251.345 200.403 249.977 202.198 249.081 203.926C248.186 205.653 247.964 206.85 245.965 208.26C245.396 208.655 244.807 208.664 244.212 209.09C243.886 209.296 243.558 209.561 243.249 209.868C242.94 210.175 242.656 210.517 242.416 210.874C241.589 212.078 241.754 212.868 241.334 213.907C239.857 217.42 238.797 217.181 236.489 219.079C234.032 221.1 233.576 223.298 233.425 225.23C233.376 225.875 234.492 225.118 234.544 224.476L234.514 224.49Z" fill="#9E9E9E"/>
<path d="M241.584 224.635C241.357 223.184 242.302 221.499 244.402 219.593C244.97 219.277 245.535 218.944 246.107 218.604C246.739 218.207 247.373 217.65 247.931 217.003C249.153 215.491 248.972 214.582 249.523 213.219C250.944 209.684 252.397 210.407 254.595 208.335C256.066 206.958 257.7 201.757 259.27 201.669C259.84 201.631 260.414 200.42 259.844 200.458C258.414 200.548 257.046 202.343 256.151 204.071C255.256 205.798 255.034 206.995 253.034 208.405C252.465 208.8 251.877 208.809 251.282 209.235C250.956 209.441 250.628 209.706 250.319 210.013C250.01 210.32 249.726 210.662 249.486 211.019C248.658 212.223 248.824 213.013 248.404 214.052C246.927 217.565 245.867 217.326 243.559 219.224C241.101 221.245 240.646 223.443 240.495 225.375C240.445 226.02 241.561 225.263 241.614 224.621L241.584 224.635Z" fill="#9E9E9E"/>
<path d="M242.749 229.892C242.523 228.442 243.467 226.757 245.567 224.851C246.135 224.535 246.7 224.202 247.272 223.861C247.904 223.464 248.538 222.908 249.096 222.26C250.318 220.748 250.137 219.84 250.688 218.476C252.109 214.942 253.562 215.664 255.76 213.593C257.231 212.216 258.865 207.014 260.435 206.926C261.005 206.889 261.579 205.678 261.009 205.715C259.579 205.805 258.211 207.601 257.316 209.328C256.421 211.055 256.199 212.252 254.199 213.663C253.63 214.058 253.042 214.067 252.447 214.492C252.121 214.698 251.793 214.963 251.484 215.27C251.175 215.577 250.891 215.92 250.651 216.276C249.823 217.48 249.989 218.27 249.569 219.31C248.092 222.823 247.032 222.584 244.724 224.482C242.266 226.502 241.811 228.701 241.66 230.633C241.611 231.278 242.726 230.521 242.779 229.879L242.749 229.892Z" fill="#9E9E9E"/>
<path d="M108.783 251.74C101.425 262.296 95.1984 273.622 90.2086 285.526C79.9787 310.203 75.1077 336.837 75.9285 363.606C81.5467 370.844 88.9194 376.47 97.3219 379.931C120.243 389.174 141.469 377.514 144.693 375.671C145.482 367.611 146.698 359.6 148.338 351.673C154.565 321.208 163.122 311.203 163.787 291.34C164.062 283.007 163.023 270.763 156.268 255.581L108.783 251.74Z" fill="#FDB913"/>
<path d="M112.893 204.443C111.992 202.391 111.484 200.209 111.392 197.992C111.288 194.634 112.093 191.291 113.737 188.253C118.29 179.973 127.854 177.474 129.154 177.154C135.564 175.669 142.321 176.49 147.995 179.442C151.039 177.544 154.421 176.141 157.986 175.298C161.721 174.426 165.034 173.656 167.185 175.255C169.635 177.103 169.133 180.883 168.957 182.087C168.621 184.52 167.452 187.564 161.67 193.145C156.772 197.903 152.199 202.288 144.216 205.451C141.01 206.723 136.613 207.409 127.834 208.86C124.465 209.403 121.781 209.743 118.784 208.7C116.404 207.823 114.36 206.347 112.893 204.443Z" fill="#EC615B"/>
<path d="M132.56 209.171C134.045 210.808 135.274 212.666 136.205 214.683C137.824 218.243 137.649 220.707 138.214 224.983C138.895 230.802 140.242 236.521 142.225 242.023C143.86 246.314 144.716 248.499 146.81 250.466C151.081 254.422 156.658 254.477 158.446 254.5C160.945 254.5 164.26 254.555 167.24 252.316C169.999 250.232 170.908 247.364 172.016 243.866C173.123 240.367 174.224 236.869 172.955 232.531C171.973 229.383 170.044 226.628 167.439 224.656C164.894 222.664 161.849 221.444 158.652 221.135C154.99 218.834 151.267 216.385 147.482 213.789C145.19 212.234 142.956 210.661 140.781 209.07L132.56 209.171Z" fill="#8C6B00"/>
<path d="M111.312 207.818C111.472 209.046 111.702 210.858 111.923 213.042C112.58 219.44 113.596 229.282 112.794 240.461C112.172 248.884 110.614 257.208 108.149 265.275C114.363 268.52 121.453 269.598 128.328 268.342C135.203 267.086 141.482 263.567 146.198 258.325L145.282 248.126C144.084 246.189 143.062 244.147 142.225 242.023C139.398 234.685 140.239 230.106 138.657 222.736C137.731 218.48 136.254 214.368 134.264 210.508C126.516 212.091 118.474 211.15 111.281 207.818H111.312Z" fill="white"/>
<path d="M141.645 208.494C142.151 210.532 142.847 212.515 143.723 214.418C145.365 218.002 146.45 220.365 148.811 221.749C152.311 223.809 156.452 222.441 157.735 221.959H160.616C160.107 219.886 159.508 217.769 158.82 215.608C157.387 210.968 155.696 206.416 153.755 201.972L141.645 208.494Z" fill="white"/>
<path opacity="0.17" d="M131.116 212.654C129.241 216.12 127.705 219.765 126.532 223.537C124.018 231.699 124.331 236.916 123.552 241.557C122.574 247.387 119.342 255.55 108.844 264.661C110.237 259.248 111.293 253.751 112.007 248.203C112.648 243.18 113.01 238.124 113.092 233.06C113.176 227.95 112.977 222.84 112.496 217.753L131.116 212.654Z" fill="#9E9E9E"/>
<path d="M111.281 208.782C111.518 210.337 111.855 212.553 112.206 215.258C114.345 231.878 113.383 237.802 115.186 238.455C116.989 239.108 121.512 234.319 133.172 210.718C125.825 211.767 118.34 211.105 111.281 208.782Z" fill="#BC9000"/>
<path d="M152.076 202.061C155.245 208.622 157.763 215.463 159.593 222.491L160.478 221.619C158.947 221.354 157.394 221.235 155.839 221.263C155.648 221.263 155.464 221.337 155.329 221.469C155.193 221.601 155.117 221.78 155.117 221.966C155.117 222.153 155.193 222.332 155.329 222.464C155.464 222.596 155.648 222.67 155.839 222.67C157.265 222.575 158.697 222.68 160.093 222.979C160.216 223.009 160.344 223.007 160.465 222.974C160.586 222.941 160.697 222.878 160.786 222.791C160.875 222.704 160.939 222.597 160.973 222.478C161.007 222.36 161.009 222.235 160.979 222.116C159.115 214.977 156.552 208.029 153.327 201.367C152.933 200.542 151.681 201.254 152.076 202.071V202.061Z" fill="black"/>
<path d="M140.919 208.907C142.577 213.081 143.891 218.756 147.589 221.609C149.078 222.725 150.845 223.396 152.689 223.546C154.533 223.695 156.381 223.318 158.026 222.456C158.691 222.13 158.11 221.119 157.453 221.446C155.653 222.382 153.588 222.645 151.617 222.189C149.647 221.733 147.896 220.586 146.672 218.95C144.449 215.989 143.387 212.024 142.027 208.596C141.752 207.912 140.644 208.207 140.919 208.907Z" fill="black"/>
<path d="M161.403 222.402C174.568 225.776 176.294 241.891 167.92 251.095C167.416 251.639 168.226 252.471 168.73 251.919C177.685 242.078 175.706 224.866 161.709 221.275C161.636 221.254 161.56 221.249 161.485 221.258C161.41 221.268 161.338 221.292 161.272 221.33C161.207 221.368 161.149 221.418 161.103 221.479C161.056 221.54 161.022 221.609 161.002 221.683C160.982 221.757 160.976 221.834 160.986 221.91C160.995 221.987 161.019 222.06 161.056 222.127C161.093 222.194 161.143 222.252 161.203 222.3C161.262 222.347 161.33 222.381 161.403 222.402Z" fill="black"/>
<path d="M134.386 212.506C141.622 225.045 136.678 243.182 148.834 253.07C149.4 253.536 150.217 252.72 149.644 252.246C137.702 242.505 142.546 224.338 135.372 211.915C135.29 211.792 135.166 211.705 135.023 211.672C134.881 211.64 134.732 211.663 134.606 211.739C134.48 211.814 134.387 211.935 134.347 212.078C134.306 212.221 134.32 212.374 134.386 212.506Z" fill="black"/>
<path d="M110.732 208.906C113.732 227.409 112.905 246.346 108.302 264.505C108.282 264.579 108.277 264.656 108.286 264.732C108.295 264.809 108.319 264.882 108.357 264.949C108.394 265.016 108.444 265.074 108.503 265.122C108.563 265.169 108.631 265.204 108.704 265.224C108.776 265.244 108.852 265.25 108.927 265.241C109.002 265.231 109.074 265.207 109.14 265.169C109.206 265.131 109.263 265.08 109.31 265.02C109.356 264.959 109.39 264.89 109.41 264.816C114.056 246.454 114.881 227.308 111.832 208.603C111.71 207.865 110.61 208.176 110.732 208.906Z" fill="black"/>
<path d="M113.5 211C114.802 211.142 115.223 211.292 116.5 211C118.628 210.513 119.929 211.31 122 212C131 215 141.5 209.5 141.5 209.5C141.5 209.5 153.889 201.086 153.5 200.5C152 185.5 134.694 175.069 123.867 179.7C118.82 181.803 114.675 185.949 112.262 191.308C109.848 196.666 108.991 202.746 110.5 208.5C110.694 209.21 111.669 210.8 113.5 211Z" fill="#FFC300"/>
<path d="M116.433 209.161C116.853 209.335 116.979 209.426 117.433 209.452C118.189 209.496 118.545 209.887 119.168 210.318C121.877 212.189 125.908 211.373 125.908 211.373C125.908 211.373 130.85 209.77 130.778 209.537C131.731 204.394 126.975 199.242 122.919 199.737C121.034 199.948 119.251 200.928 117.928 202.48C116.605 204.032 115.73 205.975 115.676 208.038C115.672 208.293 115.842 208.917 116.433 209.161Z" fill="#4D4D4D"/>
<path d="M149.102 207.803C149.671 208.715 150.031 209.746 150.156 210.819L151.226 210.523C150.451 209.461 149.939 208.223 149.736 206.916C149.614 206.139 148.513 206.489 148.628 207.22C148.853 208.626 149.403 209.958 150.232 211.106C150.523 211.511 151.379 211.456 151.302 210.811C151.165 209.533 150.753 208.301 150.095 207.204C149.705 206.567 148.712 207.15 149.102 207.795V207.803Z" fill="black"/>
<path d="M135.074 216.191C131.72 215.165 129.176 218.927 129.084 221.982C129.046 222.801 129.182 223.619 129.482 224.38C129.783 225.141 130.241 225.827 130.825 226.392C131.409 226.957 132.106 227.388 132.868 227.654C133.63 227.921 134.44 228.017 135.242 227.937C135.968 227.851 136.006 226.685 135.242 226.771C128.068 227.548 129.634 215.74 134.768 217.31C134.909 217.337 135.055 217.309 135.177 217.232C135.299 217.155 135.388 217.034 135.426 216.893C135.465 216.752 135.45 216.602 135.385 216.472C135.319 216.342 135.208 216.242 135.074 216.191Z" fill="black"/>
<path d="M148.766 252.945C154.213 255.417 164.413 256.879 168.967 251.678C169.456 251.119 168.646 250.295 168.15 250.854C163.978 255.627 154.29 254.181 149.346 251.943C148.682 251.639 148.093 252.642 148.766 252.945Z" fill="black"/>
<path d="M149.652 212.568C149.971 212.149 150.4 211.829 150.889 211.646C151.378 211.464 151.908 211.425 152.418 211.534C153.136 211.69 153.442 210.57 152.724 210.407C152.018 210.242 151.282 210.28 150.597 210.516C149.911 210.752 149.304 211.177 148.842 211.744C148.384 212.319 149.186 213.151 149.652 212.568Z" fill="black"/>
<path d="M144.708 247.97C144.444 249.88 144.369 251.813 144.487 253.738C144.533 254.516 145.679 254.516 145.633 253.738C145.512 251.923 145.571 250.1 145.809 248.297C145.908 247.566 144.808 247.247 144.708 247.986V247.97Z" fill="black"/>
<path d="M143.394 262.616C145.573 260.158 148.257 258.217 151.256 256.934C156.307 254.803 161.242 255.099 166.896 256.257C177.494 258.434 184.775 262.476 190.498 265.345C199.692 269.973 209.201 273.922 218.951 277.161C224.964 273.943 231.344 270.211 237.946 265.873C243.118 262.476 247.878 259.056 252.271 255.697C254.009 253 252.204 255.04 255 252.5C258.438 254 262.5 253.5 262.5 253.5L266.289 252.5C266.289 252.5 279.094 248.868 279.552 249C278.078 248.5 270.71 253.5 267.272 257C261.357 263.021 265.307 258.696 261.377 263C253.889 271.202 248.497 277.239 243.439 282.276C234.202 291.449 229.594 295.764 223.574 300.156C219.868 302.869 216.629 304.921 214.329 306.313C212.275 306.6 210.205 306.74 208.132 306.733C202.005 306.652 195.951 305.371 190.299 302.962C183.201 300.179 172.894 296.961 157.109 292.981L143.394 262.616Z" fill="white"/>
<path opacity="0.24" d="M142.225 259.656C144.731 261.778 148.605 265.004 153.434 268.782C180.298 289.818 194.211 300.437 207.682 297.919C210.799 297.335 216.651 292.205 228.349 281.951C250.507 262.516 250.027 256.294 263.833 252.5C266.361 252.5 262.357 252.806 268.254 253.5C270.219 254 272.09 252.668 271.693 253.5C267.763 258 265.727 255.469 265.307 259C263.42 259.964 263.579 261.273 256.665 268.199C243.844 280.972 240.108 285.146 235.799 289.258C229.181 295.559 221.948 301.157 214.214 305.964C208.866 305.661 203.219 305.086 197.268 304.145C182.88 301.862 168.828 297.765 155.436 291.948L142.225 259.656Z" fill="#9E9E9E"/>
<path d="M147.291 259.942C158.026 251.834 171.213 257.905 182.048 262.437L217.37 277.207C218.05 277.487 218.348 276.36 217.675 276.08C204.526 270.576 191.392 265.018 178.212 259.576C168.188 255.433 156.299 251.686 146.71 258.931C146.13 259.374 146.71 260.385 147.291 259.934V259.942Z" fill="black"/>
<path d="M155.29 293.012C166.151 296.967 177.203 300.353 188.404 303.157C193.768 304.504 199.165 305.706 204.595 306.764C208.552 307.541 212.48 308.179 216.193 306.196C220.288 304.004 224.017 300.646 227.585 297.684C231.81 294.17 235.883 290.47 239.81 286.653C247.741 278.996 255.205 270.856 262.67 262.725C263.167 262.173 262.357 261.349 261.853 261.901C248.191 276.796 234.347 292.32 217.69 303.88C212.396 307.541 207.192 306.165 201.34 304.952C196.16 303.874 191.007 302.672 185.883 301.345C175.637 298.694 165.529 295.523 155.566 291.908C154.87 291.659 154.572 292.779 155.268 293.035L155.29 293.012Z" fill="black"/>
<path d="M261.377 262.479C263.29 259.799 265.557 257.4 268.115 255.351C269.103 254.569 270.082 254.463 271.201 253.5C272.353 252.509 278.984 250.287 279.061 248C279.124 245.87 273.006 248.201 269.728 250C268.275 250.797 266.279 252.646 266.289 252.5C266.299 252.354 264.816 252.5 264.816 252.5C264.816 252.5 268.483 249.541 271.201 248.354C273.925 247.165 278.57 246.5 278.57 246.5C278.57 246.5 279.883 246.484 280.043 248C280.247 249.932 273.485 253.324 272.774 253.619C271.43 254.403 270.136 255.275 268.902 256.228C266.419 258.213 264.213 260.533 262.347 263.125C261.907 263.724 260.932 263.116 261.378 262.513L261.377 262.479Z" fill="black"/>
<path d="M3 175.849C3.46607 177.078 25.379 337.911 25.379 337.911L163.619 418.129C160.15 361.67 156.684 305.206 153.22 248.737L3 175.849Z" fill="white" stroke="black" stroke-miterlimit="10"/>
<path opacity="0.18" d="M65.0562 205.95C61.6696 217.182 59.6502 228.795 59.0431 240.528C54.2296 335.54 145.977 405.194 163.619 418.129L25.3255 337.903C17.9041 283.89 10.4622 229.872 3 175.849L65.0562 205.95Z" fill="#9E9E9E"/>
<path d="M264.339 19.2791C267.085 28.3123 269.589 37.8275 271.743 47.8013C283.114 100.469 280.99 148.201 274.909 186.176L420.77 197.79L424.993 27.7059L264.339 19.2791Z" fill="white" stroke="black" stroke-miterlimit="10"/>
<path opacity="0.18" d="M348.994 107.777C348.389 98.5892 348.848 89.3626 350.363 80.2806C352.883 65.2148 354.322 56.5859 361.593 50.6156C370.56 43.2537 385.703 42.1343 396.482 49.1618C408.925 57.3011 405.885 78.0339 405.208 94.2113C404.166 118.878 406.351 153.705 420.762 197.813L385.858 190.599C385.392 188.982 384.909 187.373 384.404 185.756C375.91 158.385 364.014 132.187 348.994 107.777Z" fill="#9E9E9E"/>
<path d="M317.465 111.306C316.797 112.153 315.848 113.389 314.79 114.936C314.012 116.04 310.699 120.922 309.105 125.213C307.464 129.629 307.612 133.586 308.11 138.88C309.043 148.591 310.601 158.233 312.776 167.744C308.793 170.817 304.974 174.097 301.336 177.57C297.027 181.675 296.576 182.608 292.376 186.378C287.041 191.159 284.381 193.553 280.119 195.745C277.172 197.261 275.601 197.603 272.288 199.78C267.583 202.89 266.439 205.02 265.957 206.178C264.907 208.743 264.814 212.102 265.957 212.654C267.1 213.206 269.713 210.625 271.246 209.047C272.071 208.204 272.83 207.3 273.517 206.341C276.263 208.571 279.663 209.846 283.199 209.972C285.786 210.049 288.353 209.499 290.681 208.37C291.147 206.46 291.885 204.628 292.874 202.929C295.308 198.731 298.458 196.795 304.392 192.823C312.216 187.63 316.112 184.777 317.038 184.1C323.843 179.102 326.044 176.855 327.638 173.683C328.867 171.258 329.264 169.213 329.808 166.384C330.622 161.467 330.797 156.466 330.329 151.505C329.505 143.264 325.484 128.696 317.465 111.306Z" fill="white"/>
<path d="M271.401 222.573C272.366 221.434 273.22 220.205 273.952 218.904C275.78 215.919 275.826 214.947 277.498 212.778C278.37 211.658 279.505 210.189 280.158 210.446C281.029 210.772 280.578 213.905 280.43 214.869C281.084 212.242 283.767 211.075 285.486 211.845C286.94 212.498 287.819 214.62 287.119 216.696C288.853 215.919 289.413 216.292 289.6 216.455C290.518 217.279 289.242 220.078 288.41 221.461C287.656 222.796 286.608 223.942 285.346 224.812C283.969 225.729 282.631 226.063 274.528 226.149C270.569 226.188 269.084 226.149 268.889 225.504C268.695 224.858 269.799 224.392 271.401 222.573Z" fill="white"/>
<path opacity="0.2" d="M321.517 120.635C321.751 123.861 322.069 128.649 322.365 134.456C322.917 145.247 323.197 150.642 322.933 153.207C322.559 156.868 320.778 169.641 311.531 179.389C306.087 185.134 302.844 184.761 294.328 193.382C291.352 196.371 286.185 203.037 286.185 203.037C286.185 203.037 281.367 203.941 281.5 205C281.621 205.969 286.5 207.5 286.5 207.5L288.5 208.378C288.5 208.378 290.137 209.108 290.696 208.378C291.579 205.392 293.026 202.603 294.958 200.161C297.501 196.966 299.811 195.8 306.36 191.524C312.2 187.7 315.124 185.779 317.839 183.564C322.435 179.786 326.238 176.668 328.525 171.709C330.749 166.866 330.609 162.256 330.134 157.405C328.805 143.808 325.103 130.741 321.517 120.635Z" fill="#9E9E9E"/>
<path d="M314.378 114.493C300.558 129.263 311.166 150.579 312.224 167.713C312.27 168.49 313.437 168.49 313.39 167.713C312.356 150.952 301.724 129.753 315.202 115.317C315.716 114.773 314.891 113.941 314.378 114.493Z" fill="black"/>
<path d="M314.238 167.69C307.417 169.089 301.398 176.63 296.7 181.317C290.377 187.622 284.086 193.172 276.013 197.137C270.771 199.71 264.192 203.776 264.876 210.601C265.654 218.554 272.187 208.852 273.968 206.714C274.45 206.139 273.625 205.315 273.143 205.89C272.093 207.142 268.119 213.61 266.198 211.425C264.853 209.871 266.906 205.851 267.754 204.561C268.83 203.053 270.187 201.768 271.751 200.775C276.55 197.557 281.97 195.707 286.598 192.138C291.007 188.741 294.888 184.738 298.823 180.82C303.023 176.645 308.545 170.03 314.533 168.809C315.272 168.654 314.961 167.534 314.222 167.682L314.238 167.69Z" fill="black"/>
<path d="M329.372 156.791C329.676 163.212 329.761 170.061 325.849 175.526C322.248 180.548 316.517 183.805 311.508 187.256C303.334 192.892 292.843 197.852 290.128 208.246C290.108 208.32 290.102 208.397 290.112 208.473C290.121 208.549 290.146 208.623 290.184 208.69C290.222 208.757 290.272 208.815 290.333 208.862C290.393 208.91 290.463 208.944 290.537 208.965C290.611 208.985 290.688 208.991 290.764 208.981C290.841 208.972 290.914 208.948 290.981 208.91C291.048 208.872 291.107 208.821 291.154 208.761C291.201 208.7 291.236 208.631 291.256 208.557C293.099 201.42 298.403 197.736 304.174 193.786C309.432 190.156 314.829 186.666 319.946 182.833C323.563 180.128 326.946 177.018 328.758 172.813C330.943 167.806 330.788 162.186 330.539 156.853C330.539 156.075 329.333 156.075 329.372 156.853V156.791Z" fill="black"/>
<path d="M311.376 112.604C312.519 115.752 314.292 120.86 316.042 127.289C320.079 141.935 319.091 145.169 323.003 151.302C326.425 156.666 327.669 154.948 336.551 164.875C342.119 171.095 345.106 174.608 347.221 179.646C348.409 182.534 349.224 185.562 349.648 188.656L396.964 193.577C391.997 171.774 383.797 150.835 372.637 131.456C367.233 122.092 361.15 113.136 354.438 104.659C348.528 103.05 333.751 99.9949 319.348 107.302C316.498 108.761 313.823 110.54 311.376 112.604Z" fill="#EC615B"/>
<path d="M349.344 113.164C350.287 111.628 351.427 110.222 352.735 108.982C354.601 107.217 357.207 104.76 361.08 104.356C365.583 103.89 369.02 106.494 370.226 107.404C372.691 109.277 373.928 111.399 375.499 114.268C380.943 124.265 382.615 128.502 382.615 128.502C386.06 137.255 387.787 141.64 390.392 150.004C392.655 157.273 395.331 166.741 397.835 178.052C397.191 179.997 396.102 181.765 394.654 183.214C392.891 184.877 390.721 186.046 388.362 186.604C367.986 192.045 341.481 191.338 341.481 191.338C338.604 191.26 334.482 191.128 329.427 190.871C327.828 191.332 326.15 191.449 324.504 191.213C321.704 190.794 320.716 189.527 317.8 188.275C315.044 187.115 312.079 186.533 309.089 186.565C304.47 186.681 300.783 188.563 299.951 187.272C299.773 186.958 299.694 186.598 299.726 186.238C299.801 185.852 299.962 185.488 300.198 185.173C300.433 184.858 300.737 184.6 301.087 184.419C301.331 184.001 301.609 183.603 301.919 183.23C302.275 182.793 302.674 182.392 303.109 182.033C303.211 181.501 303.365 180.98 303.567 180.478C303.967 179.531 304.527 178.66 305.224 177.905C306.725 176.389 309.346 176.56 312.472 176.801C314.873 176.994 317.244 177.455 319.542 178.177C319.674 176.7 320.04 175.845 320.646 175.611C322.01 175.093 324.581 177.684 328.361 183.385C332.718 182.996 337.041 182.29 341.295 181.271C346.054 180.121 350.72 178.616 355.255 176.77C360.341 174.694 361.795 173.59 366.361 172.183C369.213 171.306 372.131 170.662 375.087 170.255C372.691 164.184 370.599 159.123 369.028 155.392C362.425 139.735 356.997 128.494 355.527 125.47C353.015 120.339 350.861 116.095 349.344 113.164Z" fill="white"/>
<path opacity="0.21" d="M364.432 104.193C366.842 106.843 369.064 109.659 371.081 112.62C382.506 129.388 383.898 145.907 384.808 158.618C385.819 172.704 383.688 175.79 382.475 177.166C379.753 180.237 377.171 179.809 362.457 182.126C353.419 183.556 337.445 186.394 329.341 186.425C326.709 186.421 324.079 186.27 321.463 185.974C319.495 185.725 318.406 185.43 317.465 185.344C312.81 184.921 308.117 185.332 303.606 186.557C308.076 185.766 312.674 186.135 316.96 187.63C319.508 188.53 321.896 189.829 324.037 191.478L330.049 190.607C339.949 191.136 348.333 191.12 354.71 190.949C370.786 190.529 376.876 189.107 379.598 188.384C384.716 187.051 389.681 185.188 394.413 182.825L397.586 177.656C397.252 176.14 396.723 173.769 396.031 170.947C392.732 156.908 388.385 143.136 383.027 129.746C376.805 114.369 376.743 118.738 372.987 110.63C372.327 109.098 371.33 107.735 370.07 106.642C368.448 105.328 366.499 104.482 364.432 104.193Z" fill="#9E9E9E"/>
<path d="M348.839 113.459C358.272 131.766 366.778 150.535 374.325 169.695C374.597 170.387 375.724 170.084 375.452 169.384C367.87 150.126 359.325 131.261 349.85 112.861C349.5 112.192 348.496 112.775 348.839 113.444V113.459Z" fill="black"/>
<path d="M378.423 170.955C376.471 169.198 374.029 169.75 371.649 170.309C366.983 171.413 362.651 173.419 358.241 175.246C348.572 179.174 338.375 181.65 327.98 182.592C327.241 182.662 327.202 183.828 327.98 183.758C336.357 183.021 344.617 181.294 352.587 178.612C356.546 177.259 360.364 175.565 364.253 174.018C367.364 172.758 374.698 169.151 377.622 171.779C378.182 172.284 379.006 171.46 378.446 170.955H378.423Z" fill="black"/>
<path d="M370.21 108.087C378.275 117.595 382.724 129.574 386.823 141.181C390.916 152.815 394.246 164.703 396.793 176.769C396.948 177.5 398.076 177.197 397.921 176.458C395.173 163.425 391.506 150.603 386.947 138.087C382.965 127.203 378.618 116.203 371.035 107.263C370.553 106.696 369.728 107.52 370.21 108.087Z" fill="black"/>
<path d="M330.298 191.594C343.885 192.053 357.557 192.504 371.089 190.817C379.706 189.736 393.791 188.695 398.045 179.584C398.356 178.907 397.353 178.309 397.034 178.993C394.592 184.225 388.992 186.028 383.774 187.326C377.707 188.789 371.533 189.766 365.311 190.249C353.645 191.221 341.979 190.832 330.313 190.436C329.536 190.436 329.536 191.579 330.313 191.602L330.298 191.594Z" fill="black"/>
<path d="M329.263 190.312C323.819 192.333 319.627 187.575 314.634 186.324C309.968 185.157 304.625 186.324 299.943 186.689C299.165 186.751 299.165 187.917 299.943 187.855C306.748 187.319 312.729 186.3 319.052 189.503C322.489 191.237 325.725 192.861 329.574 191.439C330.274 191.174 329.971 190.047 329.263 190.312Z" fill="black"/>
<path d="M328.548 182.266C327.388 179.777 325.515 177.688 323.166 176.264C322.388 175.79 321.237 175.059 320.273 175.425C320.103 175.484 319.946 175.576 319.812 175.697C319.679 175.817 319.571 175.964 319.494 176.127C319.418 176.29 319.376 176.467 319.369 176.646C319.362 176.826 319.392 177.006 319.456 177.174C319.705 177.874 320.833 177.57 320.584 176.863C320.428 176.428 321.883 176.863 321.953 176.925C322.309 177.105 322.654 177.305 322.987 177.524C323.68 177.974 324.323 178.495 324.908 179.078C325.997 180.162 326.884 181.431 327.529 182.825C327.856 183.502 328.859 182.911 328.54 182.242L328.548 182.266Z" fill="black"/>
<path d="M326.884 182.39C324.204 179.627 320.808 177.665 317.076 176.723C313.344 175.781 309.423 175.897 305.753 177.057C305.037 177.283 305.348 178.41 306.064 178.184C309.539 177.068 313.257 176.947 316.797 177.836C320.337 178.725 323.556 180.588 326.09 183.214C326.619 183.75 327.443 182.926 326.915 182.39H326.884Z" fill="black"/>
<path d="M299.912 187.016C301.561 184.341 306.717 184.683 309.447 184.318C310.186 184.233 310.225 183.066 309.447 183.152C306.181 183.548 300.892 183.199 298.909 186.425C298.512 187.07 299.523 187.653 299.912 187.016Z" fill="black"/>
<path d="M301.436 184.559C304.096 182.18 307.736 182.095 311.119 182.071C311.274 182.071 311.422 182.01 311.532 181.901C311.641 181.791 311.702 181.643 311.702 181.488C311.702 181.334 311.641 181.185 311.532 181.076C311.422 180.967 311.274 180.905 311.119 180.905C307.394 180.905 303.521 181.131 300.612 183.735C300.052 184.24 300.877 185.057 301.436 184.559Z" fill="black"/>
<path d="M303.575 182.048C304.306 179.607 309.587 179.871 311.531 179.972C312.309 180.011 312.309 178.845 311.531 178.806C308.918 178.666 303.42 178.519 302.447 181.737C302.23 182.46 303.357 182.763 303.575 182.048Z" fill="black"/>
<path d="M304.617 179.716C304.841 179.156 305.268 178.701 305.813 178.442C306.359 178.184 306.982 178.142 307.557 178.324C308.273 178.558 308.584 177.43 307.868 177.205C306.996 176.942 306.057 177.024 305.244 177.433C304.43 177.843 303.805 178.548 303.497 179.405C303.233 180.112 304.361 180.416 304.617 179.716Z" fill="black"/>
<path d="M354.679 107.885C357.012 106.502 359.408 105.032 362.153 104.838C365.264 104.613 367.55 106.191 369.93 107.909C370.537 108.352 371.12 107.341 370.514 106.898C368.118 105.172 365.653 103.532 362.581 103.61C359.509 103.688 356.678 105.336 354.088 106.875C353.45 107.264 354.034 108.274 354.679 107.885Z" fill="black"/>
<path d="M293.776 72.9807C293.136 77.1738 293.076 81.4349 293.597 85.6443C294.179 90.7739 295.827 95.7253 298.435 100.181C301.5 105.264 305.775 109.51 310.878 112.542C312.255 112.397 313.62 112.153 314.961 111.811C317.836 111.08 320.586 109.925 323.119 108.383C324.487 109.537 325.97 110.548 327.545 111.399C331.109 113.297 335.058 114.361 339.094 114.509C342.576 110.339 345.321 105.607 347.213 100.516C348.94 95.8514 353.723 82.9157 347.587 71.2627C345.347 67.0026 342.524 64.5927 339.28 61.8252C332.787 56.2903 324.294 49.045 313.616 51.074C301.779 53.3206 295.293 65.409 294.173 70.7807C294.087 71.0373 293.939 71.8846 293.776 72.9807Z" fill="white"/>
<path opacity="0.26" d="M313.196 57.293C318.072 61.2363 321.702 66.5068 323.647 72.4678C325.591 78.4287 325.768 84.825 324.154 90.8838C321.315 102.863 313.188 109.984 310.015 112.487C312.239 111.99 314.619 111.36 317.131 110.552C319.278 109.868 321.276 109.129 323.104 108.383C324.473 109.535 325.956 110.546 327.529 111.399C329.695 112.56 332.015 113.406 334.42 113.91C339.723 107.972 343.733 100.996 346.194 93.4258C348.458 86.3827 350.495 80.0159 347.664 73.6025C344.763 67.0336 338.378 64.1184 332.608 61.4908C326.506 58.7362 319.89 57.3054 313.196 57.293Z" fill="#9E9E9E"/>
<path d="M294.157 70.7962C298.613 63.9589 304.956 58.5586 312.418 55.2485C312.975 56.9136 313.678 58.5264 314.518 60.0683C319.752 69.6224 329.085 73.8358 333.634 75.5461C335.47 73.2683 338.301 72.3121 340.572 73.1284C343.402 74.1468 344.133 77.4118 344.328 78.298C344.743 80.3068 344.432 82.3977 343.449 84.1984C341.738 87.1835 338.114 88.8627 334.21 88.5673C333.067 89.3446 327.879 93.0528 326.666 99.8704C325.414 106.867 329.116 113.498 334.21 117.043C337.382 119.177 341.135 120.282 344.958 120.207C348.781 120.131 352.488 118.88 355.574 116.623C361.446 112.301 362.651 105.74 362.9 104.185C367.488 107.691 373.22 108.243 377.07 105.74C381.55 102.809 382.39 96.4111 381.122 92.1044C379.092 85.1623 372.365 85.8853 361.228 74.5355C357.153 70.392 355.294 68.2075 353.171 64.8337C348.115 56.7722 348.636 51.6181 340.727 47.5213C325.328 39.5454 308.141 47.2337 306.157 48.151C297.421 52.3018 290.279 59.1916 285.82 67.7722C287.564 72.8896 288.354 78.283 288.153 83.6853C287.687 94.2888 283.487 97.4217 283.541 107.139C283.541 111.205 283.611 120.627 290.245 126.403C297.05 132.318 309.945 133.679 317.271 126.193C323.711 119.608 322.14 109.976 321.937 108.834L311.415 112.581C307.475 110.416 303.99 107.512 301.149 104.029C290.432 90.7595 293.519 73.9446 294.157 70.7962Z" fill="#FFC300"/>
<path d="M293.574 70.7963C291.622 86.6861 295.65 103.75 309.727 112.993C310.349 113.405 310.94 112.394 310.31 111.982C296.591 102.98 292.843 86.243 294.756 70.7808C294.849 70.0034 293.683 70.05 293.589 70.7808L293.574 70.7963Z" fill="black"/>
<path d="M310.863 113.125C316.764 112.483 322.303 109.965 326.666 105.942C327.218 105.436 326.394 104.612 325.834 105.118C321.702 108.937 316.456 111.335 310.863 111.959C310.124 112.044 310.085 113.21 310.863 113.125Z" fill="black"/>
<path d="M305.83 75.513C304.901 82.165 304.623 88.894 305 95.6106C305.014 95.7134 305.055 95.8112 305.119 95.8947C305.183 95.9781 305.269 96.0443 305.367 96.0868C305.465 96.1293 305.572 96.1467 305.679 96.1372C305.785 96.1278 305.887 96.0918 305.974 96.0329C307.421 94.9444 308.75 94.7969 310 93.5C310.537 92.9481 309.61 91.1351 309.081 91.6883C307.889 92.9074 306.599 94.0333 305.223 95.0556L306.189 95.4765C305.817 88.8661 306.092 82.2434 307.009 75.6968C307.135 74.9183 305.902 74.7175 305.799 75.4999L305.83 75.513Z" fill="black"/>
<path d="M307.736 100.376C310.096 100.476 312.45 100.088 314.652 99.2341C316.854 98.3805 318.855 97.0805 320.53 95.4161C321.066 94.8874 320.242 94.0634 319.705 94.592C318.145 96.1497 316.277 97.3649 314.22 98.16C312.163 98.9551 309.962 99.3126 307.76 99.2097C306.982 99.2097 306.982 100.345 307.76 100.376H307.736Z" fill="black"/>
<path d="M297.315 71.2937C297.588 70.9019 297.953 70.5832 298.379 70.3656C298.804 70.1481 299.277 70.0383 299.754 70.046C300.232 70.0537 300.701 70.1786 301.119 70.4097C301.537 70.6408 301.892 70.9711 302.152 71.3715C302.572 71.9856 303.583 71.3715 303.163 70.7807C302.813 70.2266 302.334 69.7652 301.768 69.4356C301.201 69.106 300.563 68.918 299.908 68.8875C299.253 68.857 298.6 68.9848 298.005 69.2603C297.41 69.5357 296.891 69.9506 296.49 70.4697C296.039 71.0527 296.856 71.8845 297.315 71.2937Z" fill="black"/>
<path d="M311.975 70.6408C312.955 69.6964 314.245 69.139 315.604 69.0718C316.964 69.0046 318.302 69.4322 319.371 70.2754C319.954 70.7418 320.786 69.9178 320.203 69.4514C318.91 68.3956 317.275 67.8499 315.607 67.9172C313.939 67.9845 312.354 68.6603 311.15 69.8167C310.614 70.3376 311.438 71.1616 311.975 70.6408Z" fill="black"/>
<path d="M334.047 75.9192C335.656 74.4266 337.539 73.3072 339.786 73.5871C343.045 73.9991 343.815 76.8676 343.784 79.5729C343.729 84.3927 340.836 86.9814 336.17 87.3001C335.392 87.3468 335.392 88.5129 336.17 88.4662C342.43 88.0387 345.915 83.6464 344.81 77.3729C343.706 71.0994 337.033 71.5192 333.222 75.0408C332.67 75.5539 333.502 76.3779 334.047 75.8726V75.9192Z" fill="black"/>
<path d="M300.799 83.7786C301.362 83.7786 301.818 82.463 301.818 80.8401C301.818 79.2172 301.362 77.9016 300.799 77.9016C300.236 77.9016 299.78 79.2172 299.78 80.8401C299.78 82.463 300.236 83.7786 300.799 83.7786Z" fill="black"/>
<path d="M314.992 83.3355C315.555 83.3355 316.011 82.0199 316.011 80.397C316.011 78.7741 315.555 77.4585 314.992 77.4585C314.43 77.4585 313.973 78.7741 313.973 80.397C313.973 82.0199 314.43 83.3355 314.992 83.3355Z" fill="black"/>
<path d="M317.255 86.5073H317.147C316.992 86.5073 316.843 86.5687 316.734 86.6781C316.625 86.7874 316.563 86.9357 316.563 87.0904C316.563 87.245 316.625 87.3933 316.734 87.5026C316.843 87.612 316.992 87.6734 317.147 87.6734H317.255C317.41 87.6734 317.559 87.612 317.668 87.5026C317.777 87.3933 317.839 87.245 317.839 87.0904C317.839 86.9357 317.777 86.7874 317.668 86.6781C317.559 86.5687 317.41 86.5073 317.255 86.5073Z" fill="black"/>
<path d="M322.241 84.7969C322.395 84.7969 322.544 84.7355 322.653 84.6262C322.763 84.5168 322.824 84.3685 322.824 84.2139C322.824 84.0593 322.763 83.911 322.653 83.8016C322.544 83.6923 322.395 83.6309 322.241 83.6309C322.086 83.6309 321.938 83.6923 321.828 83.8016C321.719 83.911 321.657 84.0593 321.657 84.2139C321.657 84.3685 321.719 84.5168 321.828 84.6262C321.938 84.7355 322.086 84.7969 322.241 84.7969Z" fill="black"/>
<path d="M322.35 89.5389C322.504 89.5389 322.653 89.4775 322.762 89.3681C322.872 89.2588 322.933 89.1105 322.933 88.9558C322.933 88.8012 322.872 88.6529 322.762 88.5436C322.653 88.4342 322.504 88.3728 322.35 88.3728C322.195 88.3728 322.047 88.4342 321.937 88.5436C321.828 88.6529 321.766 88.8012 321.766 88.9558C321.766 89.1105 321.828 89.2588 321.937 89.3681C322.047 89.4775 322.195 89.5389 322.35 89.5389Z" fill="black"/>
<path d="M322.692 108.795C325.856 111.281 329.388 113.261 333.16 114.664C333.86 114.928 334.163 113.801 333.463 113.537C329.878 112.206 326.522 110.326 323.516 107.963C322.933 107.512 322.101 108.328 322.692 108.795Z" fill="black"/>
<path d="M211.129 414.481C211.991 413.212 213.118 411.377 214.365 409.148C216.114 406.028 218.787 401.25 220.473 395.763C223.492 385.9 222.219 377.281 221.662 373.688C220.925 369.028 219.573 364.485 217.642 360.18C214.009 358.504 210.228 357.167 206.349 356.186C198.439 354.201 190.232 353.692 182.138 354.682C183.42 356.821 184.332 359.161 184.836 361.602C185.951 367.061 184.642 371.44 183.654 374.625C180.854 383.632 175.242 389.897 171.677 393.269C176.095 399.692 181.982 404.967 188.848 408.657C195.715 412.346 203.363 414.341 211.155 414.478L211.129 414.481Z" fill="white"/>
<path opacity="0.14" d="M172.98 395.377C177.301 397.941 182.324 399.068 187.325 398.597C193.123 398.01 198.917 395.204 202.187 391.095C208.681 382.921 206.933 367.395 195.454 355.549C203.136 354.957 210.828 356.559 217.636 360.17C219.112 363.534 220.249 367.037 221.028 370.627C222.597 377.752 222.697 385.122 221.324 392.286C219.576 400.493 215.79 408.125 210.314 414.48C202.055 414.124 194.008 411.757 186.871 407.583C181.526 404.409 176.816 400.27 172.98 395.377Z" fill="#9E9E9E"/>
<path d="M209.815 413.718C202.831 414.953 194.691 411.148 188.627 408.025C181.831 404.546 175.883 399.681 172.033 393.018C171.741 392.516 171.017 392.997 171.309 393.5C175.226 400.285 181.327 405.264 188.245 408.802C194.418 411.963 202.803 415.843 209.881 414.572C210.431 414.478 210.381 413.606 209.834 413.705L209.815 413.718Z" fill="black"/>
<path d="M172.204 392.71C182.121 383.884 190.451 367.065 182.475 354.445C182.411 354.349 182.311 354.282 182.198 354.259C182.085 354.236 181.968 354.259 181.872 354.323C181.776 354.387 181.709 354.486 181.686 354.599C181.663 354.712 181.686 354.83 181.75 354.926C189.503 367.2 181.156 383.584 171.53 392.147C171.117 392.52 171.772 393.087 172.189 392.719L172.204 392.71Z" fill="black"/>
<path d="M211.882 413.236C223.865 398.488 226.164 377.278 217.668 360.281C217.421 359.784 216.7 360.27 216.943 360.763C225.26 377.405 222.929 398.254 211.223 412.664C210.872 413.099 211.526 413.674 211.882 413.236Z" fill="black"/>
<path d="M217.824 359.773C207.262 354.939 195.6 353.019 184.048 354.214C183.488 354.273 183.535 355.14 184.095 355.081C195.498 353.898 207.012 355.789 217.441 360.558C217.947 360.785 218.334 360.006 217.824 359.773Z" fill="black"/>
<path d="M412.291 233.395C414.227 234.278 416.513 233.425 417.396 231.488C418.279 229.552 417.425 227.267 415.489 226.384C413.553 225.501 411.267 226.355 410.384 228.291C409.501 230.227 410.355 232.512 412.291 233.395Z" stroke="#FDB914" stroke-width="1.26514" stroke-linecap="round" stroke-linejoin="round"/>
<path d="M416.341 224.514L416.874 223.345" stroke="#FDB913" stroke-width="1.26514" stroke-linecap="round" stroke-linejoin="round"/>
<path d="M411.822 224.355L411.373 223.152" stroke="#FDB913" stroke-width="1.26514" stroke-linecap="round" stroke-linejoin="round"/>
<path d="M408.514 227.438L407.345 226.905" stroke="#FDB913" stroke-width="1.26514" stroke-linecap="round" stroke-linejoin="round"/>
<path d="M408.355 231.957L407.152 232.407" stroke="#FDB913" stroke-width="1.26514" stroke-linecap="round" stroke-linejoin="round"/>
<path d="M411.438 235.265L410.905 236.434" stroke="#FDB913" stroke-width="1.26514" stroke-linecap="round" stroke-linejoin="round"/>
<path d="M415.958 235.425L416.407 236.628" stroke="#FDB913" stroke-width="1.26514" stroke-linecap="round" stroke-linejoin="round"/>
<path d="M419.265 232.341L420.434 232.874" stroke="#FDB913" stroke-width="1.26514" stroke-linecap="round" stroke-linejoin="round"/>
<path d="M419.425 227.822L420.628 227.372" stroke="#FDB913" stroke-width="1.26514" stroke-linecap="round" stroke-linejoin="round"/>
<path d="M40.2912 403.395C42.2274 404.278 44.5129 403.425 45.3959 401.488C46.2789 399.552 45.4252 397.267 43.489 396.384C41.5528 395.501 39.2673 396.355 38.3843 398.291C37.5013 400.227 38.355 402.512 40.2912 403.395Z" stroke="#FDB914" stroke-width="1.26514" stroke-linecap="round" stroke-linejoin="round"/>
<path d="M44.3413 394.514L44.8743 393.345" stroke="#FDB913" stroke-width="1.26514" stroke-linecap="round" stroke-linejoin="round"/>
<path d="M39.8223 394.355L39.3728 393.152" stroke="#FDB913" stroke-width="1.26514" stroke-linecap="round" stroke-linejoin="round"/>
<path d="M36.5141 397.438L35.3455 396.905" stroke="#FDB913" stroke-width="1.26514" stroke-linecap="round" stroke-linejoin="round"/>
<path d="M36.3551 401.957L35.152 402.407" stroke="#FDB913" stroke-width="1.26514" stroke-linecap="round" stroke-linejoin="round"/>
<path d="M39.438 405.265L38.905 406.434" stroke="#FDB913" stroke-width="1.26514" stroke-linecap="round" stroke-linejoin="round"/>
<path d="M43.9575 405.425L44.407 406.628" stroke="#FDB913" stroke-width="1.26514" stroke-linecap="round" stroke-linejoin="round"/>
<path d="M47.2651 402.341L48.4337 402.874" stroke="#FDB913" stroke-width="1.26514" stroke-linecap="round" stroke-linejoin="round"/>
<path d="M47.4247 397.822L48.6278 397.372" stroke="#FDB913" stroke-width="1.26514" stroke-linecap="round" stroke-linejoin="round"/>
<path d="M227.291 26.3954C229.227 27.2784 231.513 26.4247 232.396 24.4885C233.279 22.5523 232.425 20.2668 230.489 19.3838C228.553 18.5008 226.267 19.3545 225.384 21.2907C224.501 23.2269 225.355 25.5124 227.291 26.3954Z" stroke="#FDB914" stroke-width="1.26514" stroke-linecap="round" stroke-linejoin="round"/>
<path d="M231.341 17.5141L231.874 16.3455" stroke="#FDB913" stroke-width="1.26514" stroke-linecap="round" stroke-linejoin="round"/>
<path d="M226.822 17.3548L226.373 16.1516" stroke="#FDB913" stroke-width="1.26514" stroke-linecap="round" stroke-linejoin="round"/>
<path d="M223.514 20.4382L222.345 19.9053" stroke="#FDB913" stroke-width="1.26514" stroke-linecap="round" stroke-linejoin="round"/>
<path d="M223.355 24.9574L222.152 25.4069" stroke="#FDB913" stroke-width="1.26514" stroke-linecap="round" stroke-linejoin="round"/>
<path d="M226.438 28.2654L225.905 29.434" stroke="#FDB913" stroke-width="1.26514" stroke-linecap="round" stroke-linejoin="round"/>
<path d="M230.958 28.4246L231.407 29.6277" stroke="#FDB913" stroke-width="1.26514" stroke-linecap="round" stroke-linejoin="round"/>
<path d="M234.265 25.3413L235.434 25.8743" stroke="#FDB913" stroke-width="1.26514" stroke-linecap="round" stroke-linejoin="round"/>
<path d="M234.425 20.8219L235.628 20.3725" stroke="#FDB913" stroke-width="1.26514" stroke-linecap="round" stroke-linejoin="round"/>
<path d="M93.2912 157.395C95.2274 158.278 97.5129 157.425 98.3959 155.488C99.2789 153.552 98.4252 151.267 96.489 150.384C94.5528 149.501 92.2673 150.355 91.3843 152.291C90.5013 154.227 91.355 156.512 93.2912 157.395Z" stroke="#FDB914" stroke-width="1.26514" stroke-linecap="round" stroke-linejoin="round"/>
<path d="M97.3413 148.514L97.8743 147.345" stroke="#FDB913" stroke-width="1.26514" stroke-linecap="round" stroke-linejoin="round"/>
<path d="M92.8223 148.355L92.3728 147.152" stroke="#FDB913" stroke-width="1.26514" stroke-linecap="round" stroke-linejoin="round"/>
<path d="M89.5141 151.438L88.3455 150.905" stroke="#FDB913" stroke-width="1.26514" stroke-linecap="round" stroke-linejoin="round"/>
<path d="M89.3551 155.957L88.152 156.407" stroke="#FDB913" stroke-width="1.26514" stroke-linecap="round" stroke-linejoin="round"/>
<path d="M92.438 159.265L91.905 160.434" stroke="#FDB913" stroke-width="1.26514" stroke-linecap="round" stroke-linejoin="round"/>
<path d="M96.9575 159.425L97.407 160.628" stroke="#FDB913" stroke-width="1.26514" stroke-linecap="round" stroke-linejoin="round"/>
<path d="M100.265 156.341L101.434 156.874" stroke="#FDB913" stroke-width="1.26514" stroke-linecap="round" stroke-linejoin="round"/>
<path d="M100.425 151.822L101.628 151.372" stroke="#FDB913" stroke-width="1.26514" stroke-linecap="round" stroke-linejoin="round"/>
<path d="M204.904 402.548C205.275 402.764 205.752 402.639 205.969 402.267C206.186 401.896 206.061 401.419 205.689 401.202C205.317 400.985 204.84 401.11 204.623 401.482C204.406 401.853 204.532 402.331 204.904 402.548Z" stroke="#FDB914" stroke-width="0.170485" stroke-linecap="round" stroke-linejoin="round"/>
<path d="M205.898 400.842L206.029 400.618" stroke="#FDB913" stroke-width="0.170485" stroke-linecap="round" stroke-linejoin="round"/>
<path d="M204.993 400.719L204.927 400.468" stroke="#FDB913" stroke-width="0.170485" stroke-linecap="round" stroke-linejoin="round"/>
<path d="M204.264 401.272L204.04 401.141" stroke="#FDB913" stroke-width="0.170485" stroke-linecap="round" stroke-linejoin="round"/>
<path d="M204.141 402.178L203.89 402.244" stroke="#FDB913" stroke-width="0.170485" stroke-linecap="round" stroke-linejoin="round"/>
<path d="M204.694 402.906L204.563 403.131" stroke="#FDB913" stroke-width="0.170485" stroke-linecap="round" stroke-linejoin="round"/>
<path d="M205.6 403.03L205.666 403.281" stroke="#FDB913" stroke-width="0.170485" stroke-linecap="round" stroke-linejoin="round"/>
<path d="M206.328 402.477L206.552 402.607" stroke="#FDB913" stroke-width="0.170485" stroke-linecap="round" stroke-linejoin="round"/>
<path d="M206.452 401.57L206.703 401.504" stroke="#FDB913" stroke-width="0.170485" stroke-linecap="round" stroke-linejoin="round"/>
<rect x="204.585" y="399.129" width="4.18661" height="4.1866" transform="rotate(30.27 204.585 399.129)" stroke="#FDB914" stroke-width="0.188097"/>
<path d="M209.906 404.075L207.49 404.71" stroke="white" stroke-width="0.188097" stroke-linecap="round" stroke-linejoin="round"/>
<path d="M207.895 404.603C207.957 404.299 208.103 404.019 208.316 403.793C208.529 403.568 208.802 403.406 209.102 403.328C209.402 403.249 209.718 403.255 210.015 403.347C210.311 403.438 210.576 403.611 210.78 403.845C210.718 404.149 210.572 404.43 210.359 404.655C210.145 404.881 209.873 405.042 209.573 405.121C209.273 405.2 208.957 405.193 208.66 405.102C208.364 405.01 208.098 404.838 207.895 404.603V404.603Z" stroke="white" stroke-width="0.188097" stroke-linecap="round" stroke-linejoin="round"/>
<path d="M208.604 401.475L211.933 403.418C212.092 403.51 212.145 403.713 212.053 403.872L210.11 407.201L206.494 405.09L208.604 401.475Z" stroke="white" stroke-width="0.188097"/>
<path d="M207.396 407.551L206.558 408.986" stroke="white" stroke-width="0.188097" stroke-linecap="round" stroke-linejoin="round"/>
<path d="M207.284 407.125L207.396 407.551L207.823 407.439" stroke="white" stroke-width="0.188097" stroke-linecap="round" stroke-linejoin="round"/>
<path d="M206.132 409.099L206.558 408.986L206.671 409.413" stroke="white" stroke-width="0.188097" stroke-linecap="round" stroke-linejoin="round"/>
<path d="M206.565 407.547L207.39 408.99" stroke="white" stroke-width="0.188097" stroke-linecap="round" stroke-linejoin="round"/>
<path d="M206.14 407.431L206.565 407.547L206.681 407.122" stroke="white" stroke-width="0.188097" stroke-linecap="round" stroke-linejoin="round"/>
<path d="M207.273 409.416L207.39 408.99L207.815 409.106" stroke="white" stroke-width="0.188097" stroke-linecap="round" stroke-linejoin="round"/>
<path d="M206.146 408.265L207.808 408.273" stroke="white" stroke-width="0.188097" stroke-linecap="round" stroke-linejoin="round"/>
<path d="M205.833 408.575L206.146 408.265L205.836 407.952" stroke="white" stroke-width="0.188097" stroke-linecap="round" stroke-linejoin="round"/>
<path d="M208.119 408.586L207.809 408.273L208.122 407.962" stroke="white" stroke-width="0.188097" stroke-linecap="round" stroke-linejoin="round"/>
<rect x="206.211" y="405.574" width="4.18661" height="4.09353" transform="rotate(30.27 206.211 405.574)" stroke="white" stroke-width="0.188097"/>
<path d="M202.206 407.168L202.763 406.892" stroke="white" stroke-width="0.188097" stroke-linecap="round" stroke-linejoin="round"/>
<path d="M202.088 406.618L202.755 406.286" stroke="white" stroke-width="0.188097" stroke-linecap="round" stroke-linejoin="round"/>
<path d="M202.727 405.247C202.815 405.096 202.946 404.975 203.103 404.898C203.26 404.821 203.436 404.793 203.609 404.817C203.782 404.84 203.944 404.915 204.075 405.031C204.206 405.146 204.299 405.298 204.343 405.467C204.388 405.636 204.381 405.815 204.324 405.98C204.267 406.145 204.163 406.289 204.024 406.395C203.885 406.501 203.717 406.563 203.543 406.573C203.369 406.584 203.195 406.543 203.044 406.455L202.147 405.931C202.075 405.889 202.014 405.832 201.966 405.764C201.919 405.696 201.887 405.618 201.873 405.536C201.858 405.455 201.862 405.371 201.883 405.291C201.905 405.211 201.943 405.136 201.996 405.072C202.049 405.008 202.116 404.957 202.19 404.921C202.265 404.886 202.347 404.867 202.43 404.866C202.513 404.865 202.595 404.883 202.671 404.917C202.746 404.951 202.814 405.001 202.868 405.064" stroke="white" stroke-width="0.188097" stroke-linecap="round" stroke-linejoin="round"/>
<path d="M202.192 403.228L205.808 405.339L203.744 408.874L200.415 406.931C200.257 406.839 200.204 406.635 200.296 406.477L202.192 403.228Z" stroke="white" stroke-width="0.188097"/>
</g>
<defs>
<clipPath id="clip0">
<rect width="451" height="418" fill="white"/>
</clipPath>
</defs>
</svg>
