<svg width="244" height="88" viewBox="0 0 244 88" fill="none" xmlns="http://www.w3.org/2000/svg">
<g filter="url(#filter0_b)">
<path d="M179.43 46.5318H169.615V54.5579H181.017V57H166.629V34.3527H180.861V36.8103H169.615V44.0898H179.43V46.5318Z" fill="#FDB913"/>
<path d="M185.572 53.5885V52.3299H192.567C193.486 52.3299 193.946 51.87 193.946 50.9503V48.3362C193.946 47.4165 193.486 46.9566 192.567 46.9566H187.363V44.7298H192.567C193.486 44.7298 193.946 44.27 193.946 43.3502V41.4623C193.946 40.5425 193.486 40.0827 192.567 40.0827H185.814V38.8241L187.072 37.8559H192.591C195.14 37.8559 196.415 39.1306 196.415 41.6801V43.3744C196.415 44.0198 196.213 44.5443 195.81 44.9477L194.963 45.7948L195.81 46.6419C196.213 47.0453 196.415 47.5698 196.415 48.2152V50.7324C196.415 53.2819 195.14 54.5566 192.591 54.5566H186.83L185.572 53.5885ZM198.596 50.7324V42.4305C198.596 39.3808 200.129 37.8559 203.195 37.8559H207.455L208.714 38.8241V40.0827H203.098C201.743 40.0827 201.065 40.7604 201.065 42.1158V44.4878H205.858C208.407 44.4878 209.682 45.7625 209.682 48.312V50.7324C209.682 53.2819 208.407 54.5566 205.858 54.5566H202.421C199.871 54.5566 198.596 53.2819 198.596 50.7324ZM201.065 50.9503C201.065 51.87 201.525 52.3299 202.445 52.3299H205.833C206.753 52.3299 207.213 51.87 207.213 50.9503V48.0942C207.213 47.1744 206.753 46.7146 205.833 46.7146H201.065V50.9503ZM211.621 53.5885V52.3299H219.1C220.02 52.3299 220.48 51.87 220.48 50.9503V48.0942C220.48 47.1744 220.02 46.7146 219.1 46.7146H211.863V37.8559H222.223V40.0827H214.332V44.4878H219.124C221.674 44.4878 222.949 45.7625 222.949 48.312V50.7324C222.949 53.2819 221.674 54.5566 219.124 54.5566H212.88L211.621 53.5885Z" fill="white"/>
<path d="M91.6547 55.5399C91.442 57.36 90.7684 58.7663 89.6338 59.7591C88.5071 60.7439 87.0062 61.2364 85.131 61.2364C83.0983 61.2364 81.4673 60.5076 80.2382 59.05C79.017 57.5924 78.4064 55.6424 78.4064 53.1999V51.5453C78.4064 49.9459 78.69 48.5395 79.2573 47.3262C79.8325 46.1128 80.644 45.1831 81.6919 44.5371C82.7398 43.8831 83.9531 43.5561 85.3319 43.5561C87.1598 43.5561 88.6253 44.0683 89.7284 45.0925C90.8314 46.1089 91.4735 47.5192 91.6547 49.3235H89.3738C89.1768 47.9526 88.7474 46.9598 88.0856 46.3453C87.4317 45.7307 86.5138 45.4234 85.3319 45.4234C83.8822 45.4234 82.7437 45.9592 81.9164 47.0307C81.097 48.1023 80.6873 49.6268 80.6873 51.6044V53.2708C80.6873 55.1381 81.0773 56.6233 81.8573 57.7263C82.6373 58.8294 83.7286 59.3809 85.131 59.3809C86.3916 59.3809 87.3568 59.0972 88.0265 58.53C88.7041 57.9548 89.1532 56.9581 89.3738 55.5399H91.6547ZM95.3435 61H93.1571V42.847H95.3435V61ZM96.8222 54.4881C96.8222 53.2354 97.0664 52.1087 97.5549 51.108C98.0513 50.1074 98.7368 49.3353 99.6113 48.7917C100.494 48.248 101.498 47.9762 102.625 47.9762C104.366 47.9762 105.773 48.5789 106.844 49.7844C107.924 50.9899 108.463 52.5932 108.463 54.5945V54.7481C108.463 55.993 108.223 57.1118 107.742 58.1045C107.27 59.0894 106.588 59.8576 105.698 60.4091C104.815 60.9606 103.799 61.2364 102.649 61.2364C100.915 61.2364 99.5089 60.6336 98.4295 59.4282C97.358 58.2227 96.8222 56.6272 96.8222 54.6417V54.4881ZM99.0204 54.7481C99.0204 56.1663 99.3474 57.3048 100.001 58.1636C100.663 59.0224 101.546 59.4518 102.649 59.4518C103.76 59.4518 104.642 59.0185 105.296 58.1518C105.95 57.2772 106.277 56.056 106.277 54.4881C106.277 53.0857 105.942 51.9511 105.272 51.0844C104.61 50.2099 103.728 49.7726 102.625 49.7726C101.546 49.7726 100.675 50.202 100.013 51.0608C99.3513 51.9196 99.0204 53.1487 99.0204 54.7481ZM117.648 59.7354C116.797 60.7361 115.548 61.2364 113.901 61.2364C112.538 61.2364 111.498 60.8424 110.781 60.0545C110.072 59.2588 109.713 58.0848 109.706 56.5327V48.2126H111.892V56.4736C111.892 58.4118 112.68 59.3809 114.256 59.3809C115.926 59.3809 117.037 58.7585 117.588 57.5136V48.2126H119.775V61H117.695L117.648 59.7354ZM121.124 54.4999C121.124 52.5381 121.588 50.9623 122.518 49.7726C123.448 48.575 124.665 47.9762 126.17 47.9762C127.667 47.9762 128.853 48.4883 129.727 49.5126V42.847H131.914V61H129.905L129.798 59.6291C128.924 60.7006 127.706 61.2364 126.146 61.2364C124.665 61.2364 123.456 60.6297 122.518 59.4163C121.588 58.203 121.124 56.6193 121.124 54.6654V54.4999ZM123.31 54.7481C123.31 56.1978 123.609 57.3324 124.208 58.1518C124.807 58.9712 125.634 59.3809 126.69 59.3809C128.077 59.3809 129.089 58.7585 129.727 57.5136V51.6399C129.073 50.4344 128.069 49.8317 126.714 49.8317C125.642 49.8317 124.807 50.2453 124.208 51.0726C123.609 51.8999 123.31 53.125 123.31 54.7481Z" fill="white"/>
<path d="M63.9776 24.6987C63.0827 23.938 60.9797 22.9984 58.9215 22.9984C54.1338 22.9984 51.3149 26.4437 51.3149 31.0076C51.3149 35.9295 54.7155 39.2406 58.9215 39.2406C61.0245 39.2406 62.68 38.5694 63.8434 37.8088L64.9172 39.4196C63.6196 40.3145 61.2929 41.2094 58.832 41.2094C51.8966 41.2094 48.3618 36.4665 48.3618 31.0971C48.3618 26.22 52.2098 21.1191 59.1452 21.1191C61.9194 21.1191 63.8434 22.1035 65.141 23.0879L63.9776 24.6987Z" fill="white"/>
<path d="M68.6321 28.6354L69.6165 27.5615C70.1981 26.9798 71.093 26.5771 71.7194 26.5771C72.3459 26.5771 73.2408 27.0246 74.0014 27.9195L72.8828 29.5303C72.2564 29.2171 71.6747 28.9486 71.0035 28.9486C69.7059 28.9486 68.6768 30.2462 68.6768 33.2888V40.7611H66.1711V26.8904H68.6321V28.6354Z" fill="white"/>
<path d="M73.1062 33.6915C73.1062 29.2171 76.4173 26.5771 79.9521 26.5771C83.4869 26.5771 86.798 29.1723 86.798 33.6915C86.798 37.987 84.0686 41.1191 79.9521 41.1191C75.8804 41.1191 73.1062 37.987 73.1062 33.6915ZM75.7909 33.6915C75.7909 36.2867 76.6857 39.3293 79.9073 39.3293C83.1737 39.3293 84.0686 36.2867 84.0686 33.6915C84.0686 31.1858 83.0394 28.3669 79.9073 28.3669C76.82 28.3669 75.7909 31.1858 75.7909 33.6915Z" fill="white"/>
<path d="M97.8498 26.9363C99.1922 30.2473 100.579 33.5584 101.922 37.5407H101.966C103.04 33.4689 104.204 30.0684 105.277 26.6678L107.559 27.0705L102.682 40.8518H100.937C99.5501 37.4064 98.1183 33.9611 96.776 30.0236H96.7312C95.3889 33.9611 94.0466 37.4064 92.6595 40.8518H91.004L86.2163 27.2495L88.6772 26.623C89.7959 30.0236 90.9592 33.4242 92.0778 37.4959H92.1226C93.4649 33.5137 94.8072 30.2026 96.1943 26.8915H97.8498V26.9363Z" fill="white"/>
<path d="M109.617 34.0495C109.572 36.8236 111.541 39.374 114.315 39.374C115.613 39.374 117.134 38.8819 118.118 38.1659L118.834 39.5083C117.402 40.5374 115.657 41.1191 114.226 41.1191C109.885 41.1191 107.022 38.4344 107.022 33.5573C107.022 28.7696 110.467 26.5771 113.599 26.5771C117.805 26.5771 119.237 30.3804 118.968 34.0047H109.617V34.0495ZM116.687 32.3939C116.687 30.2462 115.792 28.4117 113.599 28.4117C110.914 28.4117 109.885 30.6489 109.796 32.3939H116.687Z" fill="white"/>
<path d="M22.4554 15.1678C22.3211 14.9441 22.1422 14.9441 22.0079 15.1678L3.08105 47.0258C2.94682 47.2495 2.99156 47.2495 3.12579 47.0705L21.8737 24.4299C22.0527 24.2509 22.0527 24.2509 21.9184 24.4746L8.94256 47.0258C8.80833 47.2495 8.85307 47.2495 8.98731 47.0705L24.3346 28.5464C24.5136 28.3674 24.5136 28.3674 24.4241 28.5911L14.3566 47.0258C14.2224 47.2495 14.2671 47.2495 14.4461 47.0705L26.6613 32.3049C26.8403 32.1259 27.064 32.1259 27.243 32.3049L39.1003 47.0705C39.2792 47.2495 39.2793 47.2495 39.1898 47.0258L22.4554 15.1678Z" fill="#F6A81C"/>
<line x1="149.5" y1="28" x2="149.5" y2="68" stroke="#FDB914"/>
</g>
<defs>
<filter id="filter0_b" x="-50" y="-50" width="356" height="188" filterUnits="userSpaceOnUse" color-interpolation-filters="sRGB">
<feFlood flood-opacity="0" result="BackgroundImageFix"/>
<feGaussianBlur in="BackgroundImage" stdDeviation="25"/>
<feComposite in2="SourceAlpha" operator="in" result="effect1_backgroundBlur"/>
<feBlend mode="normal" in="SourceGraphic" in2="effect1_backgroundBlur" result="shape"/>
</filter>
</defs>
</svg>
