<svg width="50" height="50" viewBox="0 0 50 50" fill="none" xmlns="http://www.w3.org/2000/svg">
<path fill-rule="evenodd" clip-rule="evenodd" d="M34.0909 18.1818C34.0909 23.2026 30.0208 27.2727 25 27.2727C19.9792 27.2727 15.9091 23.2026 15.9091 18.1818C15.9091 13.161 19.9792 9.09091 25 9.09091C30.0208 9.09091 34.0909 13.161 34.0909 18.1818ZM29.5455 18.1818C29.5455 20.6922 27.5104 22.7273 25 22.7273C22.4896 22.7273 20.4545 20.6922 20.4545 18.1818C20.4545 15.6714 22.4896 13.6364 25 13.6364C27.5104 13.6364 29.5455 15.6714 29.5455 18.1818Z" fill="#000000"/>
<path fill-rule="evenodd" clip-rule="evenodd" d="M25 0C11.1929 0 0 11.1929 0 25C0 38.8071 11.1929 50 25 50C38.8071 50 50 38.8071 50 25C50 11.1929 38.8071 0 25 0ZM4.54545 25C4.54545 29.7505 6.16488 34.1227 8.88178 37.5948C12.6192 32.702 18.5142 29.5455 25.1465 29.5455C31.6928 29.5455 37.5208 32.6207 41.2648 37.4052C43.8933 33.9642 45.4545 29.6644 45.4545 25C45.4545 13.7033 36.2967 4.54545 25 4.54545C13.7033 4.54545 4.54545 13.7033 4.54545 25ZM25 45.4545C20.1131 45.4545 15.6265 43.7408 12.1083 40.8815C14.9853 36.7755 19.7524 34.0909 25.1465 34.0909C30.4737 34.0909 35.1894 36.7093 38.0767 40.7292C34.5315 43.6798 29.973 45.4545 25 45.4545Z" fill="#000000"/>
</svg>
