<svg width="220" height="67" viewBox="0 0 220 67" fill="none" xmlns="http://www.w3.org/2000/svg">
    <g id="logo-saricks">
        <path id="E365"
              d="M88.0849 48.075C88.0849 48.4083 88.0316 48.7483 87.9249 49.095C87.8183 49.4417 87.6583 49.7683 87.4449 50.075C87.2316 50.3683 86.9583 50.6283 86.6249 50.855C86.2916 51.0817 85.8983 51.255 85.4449 51.375V51.455C85.8449 51.5217 86.2249 51.635 86.5849 51.795C86.9583 51.955 87.2849 52.175 87.5649 52.455C87.8449 52.735 88.0716 53.075 88.2449 53.475C88.4183 53.875 88.5049 54.3483 88.5049 54.895C88.5049 55.615 88.3516 56.2417 88.0449 56.775C87.7516 57.295 87.3583 57.7217 86.8649 58.055C86.3849 58.3883 85.8316 58.635 85.2049 58.795C84.5783 58.955 83.9383 59.035 83.2849 59.035C83.0583 59.035 82.7916 59.035 82.4849 59.035C82.1783 59.035 81.8583 59.0217 81.5249 58.995C81.1916 58.9817 80.8583 58.955 80.5249 58.915C80.1916 58.8883 79.8983 58.8417 79.6449 58.775V44.995C80.1383 44.915 80.7116 44.8483 81.3649 44.795C82.0183 44.7417 82.7316 44.715 83.5049 44.715C84.0249 44.715 84.5516 44.7617 85.0849 44.855C85.6316 44.935 86.1249 45.1017 86.5649 45.355C87.0049 45.595 87.3649 45.935 87.6449 46.375C87.9383 46.815 88.0849 47.3817 88.0849 48.075ZM83.4449 57.595C83.8716 57.595 84.2849 57.5483 84.6849 57.455C85.0849 57.3483 85.4383 57.1883 85.7449 56.975C86.0516 56.7483 86.2916 56.475 86.4649 56.155C86.6516 55.835 86.7449 55.455 86.7449 55.015C86.7449 54.4683 86.6316 54.0283 86.4049 53.695C86.1916 53.3617 85.9049 53.1017 85.5449 52.915C85.1983 52.7283 84.8049 52.6017 84.3649 52.535C83.9249 52.4683 83.4849 52.435 83.0449 52.435H81.3049V57.455C81.3983 57.4817 81.5316 57.5017 81.7049 57.515C81.8783 57.5283 82.0649 57.5417 82.2649 57.555C82.4649 57.5683 82.6716 57.5817 82.8849 57.595C83.0983 57.595 83.2849 57.595 83.4449 57.595ZM82.3449 51.035C82.5716 51.035 82.8449 51.0283 83.1649 51.015C83.4849 51.0017 83.7516 50.9817 83.9649 50.955C84.2849 50.8483 84.5849 50.7217 84.8649 50.575C85.1449 50.415 85.3916 50.235 85.6049 50.035C85.8316 49.8217 86.0049 49.5817 86.1249 49.315C86.2583 49.035 86.3249 48.735 86.3249 48.415C86.3249 47.975 86.2383 47.615 86.0649 47.335C85.9049 47.0417 85.6849 46.8083 85.4049 46.635C85.1249 46.4617 84.8049 46.3417 84.4449 46.275C84.0849 46.195 83.7183 46.155 83.3449 46.155C82.9049 46.155 82.4983 46.1683 82.1249 46.195C81.7649 46.2083 81.4916 46.235 81.3049 46.275V51.035H82.3449ZM98.1646 44.875H99.7646V54.215C99.7646 55.055 99.6513 55.7817 99.4246 56.395C99.2113 57.0083 98.8979 57.515 98.4846 57.915C98.0846 58.3017 97.5979 58.5883 97.0246 58.775C96.4513 58.9617 95.8179 59.055 95.1246 59.055C93.4713 59.055 92.2246 58.6817 91.3846 57.935C90.5446 57.1883 90.1246 56.055 90.1246 54.535V44.875H91.7846V53.755C91.7846 54.4617 91.8513 55.0617 91.9846 55.555C92.1313 56.035 92.3446 56.4283 92.6246 56.735C92.9046 57.0283 93.2513 57.2417 93.6646 57.375C94.0913 57.5083 94.5846 57.575 95.1446 57.575C96.2246 57.575 96.9979 57.2817 97.4646 56.695C97.9313 56.095 98.1646 55.115 98.1646 53.755V44.875ZM108.291 55.315C108.291 54.755 108.125 54.3017 107.791 53.955C107.458 53.595 107.038 53.2817 106.531 53.015C106.038 52.735 105.498 52.475 104.911 52.235C104.325 51.995 103.778 51.7083 103.271 51.375C102.778 51.0283 102.365 50.6083 102.031 50.115C101.698 49.6083 101.531 48.9683 101.531 48.195C101.531 47.1017 101.911 46.235 102.671 45.595C103.431 44.955 104.511 44.635 105.911 44.635C106.725 44.635 107.465 44.695 108.131 44.815C108.798 44.935 109.318 45.0883 109.691 45.275L109.191 46.735C108.885 46.5883 108.431 46.4483 107.831 46.315C107.245 46.1817 106.578 46.115 105.831 46.115C104.951 46.115 104.291 46.315 103.851 46.715C103.411 47.1017 103.191 47.5617 103.191 48.095C103.191 48.615 103.358 49.0483 103.691 49.395C104.025 49.7417 104.438 50.055 104.931 50.335C105.438 50.6017 105.985 50.8683 106.571 51.135C107.158 51.4017 107.698 51.715 108.191 52.075C108.698 52.4217 109.118 52.8417 109.451 53.335C109.785 53.8283 109.951 54.4417 109.951 55.175C109.951 55.775 109.845 56.315 109.631 56.795C109.418 57.275 109.105 57.6883 108.691 58.035C108.278 58.3817 107.778 58.6483 107.191 58.835C106.605 59.0217 105.938 59.115 105.191 59.115C104.191 59.115 103.365 59.035 102.711 58.875C102.058 58.7283 101.551 58.5617 101.191 58.375L101.751 56.875C102.058 57.0483 102.511 57.2217 103.111 57.395C103.711 57.555 104.385 57.635 105.131 57.635C105.571 57.635 105.985 57.595 106.371 57.515C106.758 57.4217 107.091 57.2817 107.371 57.095C107.651 56.895 107.871 56.6483 108.031 56.355C108.205 56.0617 108.291 55.715 108.291 55.315ZM111.776 44.875H113.436V58.875H111.776V44.875ZM118.537 49.715L117.457 47.695H117.377L117.577 49.715V58.875H116.017V44.655H116.897L123.597 53.995L124.637 55.915H124.737L124.517 53.995V44.875H126.077V59.095H125.197L118.537 49.715ZM128.274 44.875H135.894V46.355H129.934V50.935H135.394V52.415H129.934V57.395H135.994V58.875H128.274V44.875ZM144.116 55.315C144.116 54.755 143.95 54.3017 143.616 53.955C143.283 53.595 142.863 53.2817 142.356 53.015C141.863 52.735 141.323 52.475 140.736 52.235C140.15 51.995 139.603 51.7083 139.096 51.375C138.603 51.0283 138.19 50.6083 137.856 50.115C137.523 49.6083 137.356 48.9683 137.356 48.195C137.356 47.1017 137.736 46.235 138.496 45.595C139.256 44.955 140.336 44.635 141.736 44.635C142.55 44.635 143.29 44.695 143.956 44.815C144.623 44.935 145.143 45.0883 145.516 45.275L145.016 46.735C144.71 46.5883 144.256 46.4483 143.656 46.315C143.07 46.1817 142.403 46.115 141.656 46.115C140.776 46.115 140.116 46.315 139.676 46.715C139.236 47.1017 139.016 47.5617 139.016 48.095C139.016 48.615 139.183 49.0483 139.516 49.395C139.85 49.7417 140.263 50.055 140.756 50.335C141.263 50.6017 141.81 50.8683 142.396 51.135C142.983 51.4017 143.523 51.715 144.016 52.075C144.523 52.4217 144.943 52.8417 145.276 53.335C145.61 53.8283 145.776 54.4417 145.776 55.175C145.776 55.775 145.67 56.315 145.456 56.795C145.243 57.275 144.93 57.6883 144.516 58.035C144.103 58.3817 143.603 58.6483 143.016 58.835C142.43 59.0217 141.763 59.115 141.016 59.115C140.016 59.115 139.19 59.035 138.536 58.875C137.883 58.7283 137.376 58.5617 137.016 58.375L137.576 56.875C137.883 57.0483 138.336 57.2217 138.936 57.395C139.536 57.555 140.21 57.635 140.956 57.635C141.396 57.635 141.81 57.595 142.196 57.515C142.583 57.4217 142.916 57.2817 143.196 57.095C143.476 56.895 143.696 56.6483 143.856 56.355C144.03 56.0617 144.116 55.715 144.116 55.315ZM153.541 55.315C153.541 54.755 153.375 54.3017 153.041 53.955C152.708 53.595 152.288 53.2817 151.781 53.015C151.288 52.735 150.748 52.475 150.161 52.235C149.575 51.995 149.028 51.7083 148.521 51.375C148.028 51.0283 147.615 50.6083 147.281 50.115C146.948 49.6083 146.781 48.9683 146.781 48.195C146.781 47.1017 147.161 46.235 147.921 45.595C148.681 44.955 149.761 44.635 151.161 44.635C151.975 44.635 152.715 44.695 153.381 44.815C154.048 44.935 154.568 45.0883 154.941 45.275L154.441 46.735C154.135 46.5883 153.681 46.4483 153.081 46.315C152.495 46.1817 151.828 46.115 151.081 46.115C150.201 46.115 149.541 46.315 149.101 46.715C148.661 47.1017 148.441 47.5617 148.441 48.095C148.441 48.615 148.608 49.0483 148.941 49.395C149.275 49.7417 149.688 50.055 150.181 50.335C150.688 50.6017 151.235 50.8683 151.821 51.135C152.408 51.4017 152.948 51.715 153.441 52.075C153.948 52.4217 154.368 52.8417 154.701 53.335C155.035 53.8283 155.201 54.4417 155.201 55.175C155.201 55.775 155.095 56.315 154.881 56.795C154.668 57.275 154.355 57.6883 153.941 58.035C153.528 58.3817 153.028 58.6483 152.441 58.835C151.855 59.0217 151.188 59.115 150.441 59.115C149.441 59.115 148.615 59.035 147.961 58.875C147.308 58.7283 146.801 58.5617 146.441 58.375L147.001 56.875C147.308 57.0483 147.761 57.2217 148.361 57.395C148.961 57.555 149.635 57.635 150.381 57.635C150.821 57.635 151.235 57.595 151.621 57.515C152.008 57.4217 152.341 57.2817 152.621 57.095C152.901 56.895 153.121 56.6483 153.281 56.355C153.455 56.0617 153.541 55.715 153.541 55.315ZM161.159 44.875H162.819V58.875H161.159V44.875ZM171.719 55.315C171.719 54.755 171.552 54.3017 171.219 53.955C170.885 53.595 170.465 53.2817 169.959 53.015C169.465 52.735 168.925 52.475 168.339 52.235C167.752 51.995 167.205 51.7083 166.699 51.375C166.205 51.0283 165.792 50.6083 165.459 50.115C165.125 49.6083 164.959 48.9683 164.959 48.195C164.959 47.1017 165.339 46.235 166.099 45.595C166.859 44.955 167.939 44.635 169.339 44.635C170.152 44.635 170.892 44.695 171.559 44.815C172.225 44.935 172.745 45.0883 173.119 45.275L172.619 46.735C172.312 46.5883 171.859 46.4483 171.259 46.315C170.672 46.1817 170.005 46.115 169.259 46.115C168.379 46.115 167.719 46.315 167.279 46.715C166.839 47.1017 166.619 47.5617 166.619 48.095C166.619 48.615 166.785 49.0483 167.119 49.395C167.452 49.7417 167.865 50.055 168.359 50.335C168.865 50.6017 169.412 50.8683 169.999 51.135C170.585 51.4017 171.125 51.715 171.619 52.075C172.125 52.4217 172.545 52.8417 172.879 53.335C173.212 53.8283 173.379 54.4417 173.379 55.175C173.379 55.775 173.272 56.315 173.059 56.795C172.845 57.275 172.532 57.6883 172.119 58.035C171.705 58.3817 171.205 58.6483 170.619 58.835C170.032 59.0217 169.365 59.115 168.619 59.115C167.619 59.115 166.792 59.035 166.139 58.875C165.485 58.7283 164.979 58.5617 164.619 58.375L165.179 56.875C165.485 57.0483 165.939 57.2217 166.539 57.395C167.139 57.555 167.812 57.635 168.559 57.635C168.999 57.635 169.412 57.595 169.799 57.515C170.185 57.4217 170.519 57.2817 170.799 57.095C171.079 56.895 171.299 56.6483 171.459 56.355C171.632 56.0617 171.719 55.715 171.719 55.315ZM178.956 44.875H186.576V46.355H180.616V50.935H186.076V52.415H180.616V57.395H186.676V58.875H178.956V44.875ZM195.539 54.995H190.379L188.979 58.875H187.339L192.639 44.655H193.399L198.719 58.875H196.979L195.539 54.995ZM190.919 53.555H195.039L193.479 49.295L192.979 47.175H192.959L192.459 49.335L190.919 53.555ZM206.098 55.315C206.098 54.755 205.931 54.3017 205.598 53.955C205.264 53.595 204.844 53.2817 204.338 53.015C203.844 52.735 203.304 52.475 202.718 52.235C202.131 51.995 201.584 51.7083 201.078 51.375C200.584 51.0283 200.171 50.6083 199.838 50.115C199.504 49.6083 199.338 48.9683 199.338 48.195C199.338 47.1017 199.718 46.235 200.478 45.595C201.238 44.955 202.318 44.635 203.718 44.635C204.531 44.635 205.271 44.695 205.938 44.815C206.604 44.935 207.124 45.0883 207.498 45.275L206.998 46.735C206.691 46.5883 206.238 46.4483 205.638 46.315C205.051 46.1817 204.384 46.115 203.638 46.115C202.758 46.115 202.098 46.315 201.658 46.715C201.218 47.1017 200.998 47.5617 200.998 48.095C200.998 48.615 201.164 49.0483 201.498 49.395C201.831 49.7417 202.244 50.055 202.738 50.335C203.244 50.6017 203.791 50.8683 204.378 51.135C204.964 51.4017 205.504 51.715 205.998 52.075C206.504 52.4217 206.924 52.8417 207.258 53.335C207.591 53.8283 207.758 54.4417 207.758 55.175C207.758 55.775 207.651 56.315 207.438 56.795C207.224 57.275 206.911 57.6883 206.498 58.035C206.084 58.3817 205.584 58.6483 204.998 58.835C204.411 59.0217 203.744 59.115 202.998 59.115C201.998 59.115 201.171 59.035 200.518 58.875C199.864 58.7283 199.358 58.5617 198.998 58.375L199.558 56.875C199.864 57.0483 200.318 57.2217 200.918 57.395C201.518 57.555 202.191 57.635 202.938 57.635C203.378 57.635 203.791 57.595 204.178 57.515C204.564 57.4217 204.898 57.2817 205.178 57.095C205.458 56.895 205.678 56.6483 205.838 56.355C206.011 56.0617 206.098 55.715 206.098 55.315ZM212.683 53.315L208.063 44.875H210.003L213.283 50.995L213.623 52.215H213.643L214.003 50.955L217.143 44.875H218.923L214.343 53.295V58.875H212.683V53.315Z"
              fill="black"/>
        <g id="E365_2">
            <path d="M81.0467 5.8H94.7627V8.464H84.0347V16.708H93.8627V19.372H84.0347V28.336H94.9427V31H81.0467V5.8ZM97.2515 19.3H105.964V21.964H97.2515V19.3Z"
                  fill="#FDB913"/>
            <path d="M114.364 28.912C115.18 28.912 115.936 28.792 116.632 28.552C117.328 28.312 117.928 27.964 118.432 27.508C118.936 27.028 119.332 26.464 119.62 25.816C119.908 25.168 120.052 24.46 120.052 23.692C120.052 22.012 119.548 20.764 118.54 19.948C117.556 19.132 116.188 18.724 114.436 18.724H111.772V17.68L116.956 9.688L118.612 8.104L116.272 8.464H109.144V5.8H121.996V6.844L116.272 15.448L115.012 16.492V16.564L116.236 16.312C117.196 16.336 118.084 16.516 118.9 16.852C119.716 17.164 120.424 17.632 121.024 18.256C121.624 18.856 122.092 19.588 122.428 20.452C122.764 21.292 122.932 22.252 122.932 23.332C122.932 24.628 122.704 25.78 122.248 26.788C121.792 27.796 121.168 28.648 120.376 29.344C119.608 30.016 118.696 30.532 117.64 30.892C116.584 31.252 115.468 31.432 114.292 31.432C113.212 31.432 112.24 31.348 111.376 31.18C110.512 31.012 109.756 30.796 109.108 30.532L109.864 27.976C110.416 28.24 111.064 28.468 111.808 28.66C112.576 28.828 113.428 28.912 114.364 28.912ZM141.109 23.404C141.109 24.508 140.941 25.552 140.605 26.536C140.269 27.496 139.777 28.348 139.129 29.092C138.481 29.812 137.677 30.388 136.717 30.82C135.757 31.228 134.665 31.432 133.441 31.432C132.241 31.432 131.161 31.24 130.201 30.856C129.241 30.472 128.413 29.908 127.717 29.164C127.021 28.396 126.481 27.46 126.097 26.356C125.737 25.252 125.557 23.98 125.557 22.54C125.557 20.164 125.857 17.98 126.457 15.988C127.081 13.972 127.933 12.22 129.013 10.732C130.093 9.244 131.365 8.044 132.829 7.132C134.317 6.196 135.925 5.608 137.653 5.368L138.265 7.672C136.921 7.912 135.697 8.368 134.593 9.04C133.489 9.712 132.517 10.54 131.677 11.524C130.861 12.508 130.189 13.612 129.661 14.836C129.133 16.06 128.773 17.32 128.581 18.616C128.965 17.968 129.613 17.38 130.525 16.852C131.437 16.3 132.553 16.024 133.873 16.024C136.129 16.024 137.893 16.672 139.165 17.968C140.461 19.264 141.109 21.076 141.109 23.404ZM138.121 23.692C138.121 21.988 137.725 20.704 136.933 19.84C136.141 18.976 134.917 18.544 133.261 18.544C132.085 18.544 131.065 18.832 130.201 19.408C129.361 19.984 128.773 20.632 128.437 21.352C128.389 21.688 128.365 21.964 128.365 22.18C128.365 22.396 128.365 22.636 128.365 22.9C128.365 23.644 128.461 24.376 128.653 25.096C128.869 25.816 129.193 26.464 129.625 27.04C130.057 27.592 130.585 28.048 131.209 28.408C131.857 28.744 132.613 28.912 133.477 28.912C134.173 28.912 134.797 28.78 135.349 28.516C135.925 28.252 136.417 27.892 136.825 27.436C137.233 26.98 137.545 26.428 137.761 25.78C138.001 25.132 138.121 24.436 138.121 23.692ZM148.523 28.912C150.179 28.912 151.547 28.432 152.627 27.472C153.707 26.512 154.247 25.12 154.247 23.296C154.247 21.544 153.707 20.236 152.627 19.372C151.571 18.508 150.107 18.076 148.235 18.076L145.211 18.256V5.8H156.443V8.464H147.911V15.628L149.459 15.556C151.835 15.58 153.707 16.24 155.075 17.536C156.443 18.832 157.127 20.692 157.127 23.116C157.127 24.46 156.899 25.66 156.443 26.716C155.987 27.748 155.363 28.612 154.571 29.308C153.803 30.004 152.891 30.532 151.835 30.892C150.779 31.252 149.651 31.432 148.451 31.432C147.371 31.432 146.459 31.372 145.715 31.252C144.971 31.132 144.275 30.952 143.627 30.712L144.383 28.264C144.935 28.48 145.523 28.648 146.147 28.768C146.795 28.864 147.587 28.912 148.523 28.912ZM175.55 17H177.15V26.34C177.15 27.18 177.036 27.9067 176.81 28.52C176.596 29.1333 176.283 29.64 175.87 30.04C175.47 30.4267 174.983 30.7133 174.41 30.9C173.836 31.0867 173.203 31.18 172.51 31.18C170.856 31.18 169.61 30.8067 168.77 30.06C167.93 29.3133 167.51 28.18 167.51 26.66V17H169.17V25.88C169.17 26.5867 169.236 27.1867 169.37 27.68C169.516 28.16 169.73 28.5533 170.01 28.86C170.29 29.1533 170.636 29.3667 171.05 29.5C171.476 29.6333 171.97 29.7 172.53 29.7C173.61 29.7 174.383 29.4067 174.85 28.82C175.316 28.22 175.55 27.24 175.55 25.88V17ZM178.417 29.5L185.477 19.28L186.317 18.48H178.417V17H187.817V18.5L180.717 28.78L179.877 29.52H187.817V31H178.417V29.5Z"
                  fill="black"/>
        </g>
        <g id="LOGO_E365">
            <g id="Sun">
                <g id="Group 9">
                    <rect fill="#FDB914" id="Rectangle 114" x="0.697917" y="0.697917" width="31.0681" height="31.068"
                          stroke="#FDB914" stroke-width="1.39583"/>

                    <path id="Vector"
                          d="M15.5283 21.4166C18.7217 21.4166 21.3105 18.8278 21.3105 15.6344C21.3105 12.4409 18.7217 9.85211 15.5283 9.85211C12.3348 9.85211 9.74597 12.4409 9.74597 15.6344C9.74597 18.8278 12.3348 21.4166 15.5283 21.4166Z"
                          stroke="#000" stroke-width="1.26514" stroke-linecap="round" stroke-linejoin="round"/>
                    <path id="Vector_2" d="M15.528 6.76827V4.84085" stroke="#000" stroke-width="1.26514"
                          stroke-linecap="round" stroke-linejoin="round"/>
                    <path id="Vector_3" d="M9.25877 9.36491L7.89587 8.00201" stroke="#000" stroke-width="1.26514"
                          stroke-linecap="round" stroke-linejoin="round"/>
                    <path id="Vector_4" d="M6.66189 15.6346H4.73447" stroke="#000" stroke-width="1.26514"
                          stroke-linecap="round" stroke-linejoin="round"/>
                    <path id="Vector_5" d="M9.25877 21.9041L7.89587 23.267" stroke="#000" stroke-width="1.26514"
                          stroke-linecap="round" stroke-linejoin="round"/>
                    <path id="Vector_6" d="M15.528 24.5008V26.4282" stroke="#000" stroke-width="1.26514"
                          stroke-linecap="round" stroke-linejoin="round"/>
                    <path id="Vector_7" d="M21.7976 21.9041L23.1605 23.267" stroke="#000" stroke-width="1.26514"
                          stroke-linecap="round" stroke-linejoin="round"/>
                    <path id="Vector_8" d="M24.394 15.6346H26.3215" stroke="#000" stroke-width="1.26514"
                          stroke-linecap="round" stroke-linejoin="round"/>
                    <path id="Vector_9" d="M21.7976 9.36491L23.1605 8.00201" stroke="#000" stroke-width="1.26514"
                          stroke-linecap="round" stroke-linejoin="round"/>
                </g>
            </g>
            <g id="Leaf">
                <path id="Vector_10" d="M53.306 12.4949L40.1995 25.6014" stroke="black" stroke-width="1.39583"
                      stroke-linecap="round" stroke-linejoin="round"/>
                <path id="Vector_11"
                      d="M42.3948 23.4057C41.6553 21.2245 41.5407 18.8798 42.0641 16.6369C42.5875 14.3939 43.728 12.3421 45.3566 10.7135C46.9852 9.0849 49.037 7.94441 51.28 7.42101C53.5229 6.89761 55.8676 7.01217 58.0488 7.75174C58.7884 9.93298 58.903 12.2776 58.3796 14.5206C57.8562 16.7635 56.7157 18.8153 55.0871 20.4439C53.4584 22.0725 51.4066 23.213 49.1637 23.7364C46.9207 24.2598 44.5761 24.1453 42.3948 23.4057V23.4057Z"
                      stroke="black" stroke-width="1.39583" stroke-linecap="round" stroke-linejoin="round"/>
                <path id="Rectangle 111"
                      d="M35.234 0.697917H63.8371C65.1985 0.697917 66.3021 1.8015 66.3021 3.16284V31.7659H35.234V0.697917Z"
                      stroke="black" stroke-width="1.39583"/>
            </g>
            <g id="Snowflake">
                <path id="Vector_12" d="M50.2217 44.1599V56.4954" stroke="black" stroke-width="1.39583"
                      stroke-linecap="round" stroke-linejoin="round"/>
                <path id="Vector_13" d="M47.9092 41.847L50.2221 44.1599L52.535 41.847" stroke="black"
                      stroke-width="1.39583" stroke-linecap="round" stroke-linejoin="round"/>
                <path id="Vector_14" d="M47.9092 58.8082L50.2221 56.4953L52.535 58.8082" stroke="black"
                      stroke-width="1.39583" stroke-linecap="round" stroke-linejoin="round"/>
                <path id="Vector_15" d="M44.8803 47.2435L55.5632 53.4113" stroke="black" stroke-width="1.39583"
                      stroke-linecap="round" stroke-linejoin="round"/>
                <path id="Vector_16" d="M41.7213 48.0904L44.8808 47.2438L44.0342 44.0842" stroke="black"
                      stroke-width="1.39583" stroke-linecap="round" stroke-linejoin="round"/>
                <path id="Vector_17" d="M56.4096 56.5709L55.5631 53.4114L58.7226 52.5648" stroke="black"
                      stroke-width="1.39583" stroke-linecap="round" stroke-linejoin="round"/>
                <path id="Vector_18" d="M44.8803 53.4113L55.5632 47.2435" stroke="black" stroke-width="1.39583"
                      stroke-linecap="round" stroke-linejoin="round"/>
                <path id="Vector_19" d="M44.0342 56.5709L44.8808 53.4114L41.7213 52.5648" stroke="black"
                      stroke-width="1.39583" stroke-linecap="round" stroke-linejoin="round"/>
                <path id="Vector_20" d="M58.7226 48.0904L55.5631 47.2438L56.4096 44.0842" stroke="black"
                      stroke-width="1.39583" stroke-linecap="round" stroke-linejoin="round"/>
                <rect id="Rectangle 113" x="35.2339" y="35.9247" width="31.0681" height="30.3773" stroke="black"
                      stroke-width="1.39583"/>
            </g>
            <g id="Cloud">
                <path id="Vector_21" d="M15.528 61.1214L18.0577 57.2666" stroke="black" stroke-width="1.39583"
                      stroke-linecap="round" stroke-linejoin="round"/>
                <path id="Vector_22" d="M12.7094 58.0375L15.7451 53.4117" stroke="black" stroke-width="1.39583"
                      stroke-linecap="round" stroke-linejoin="round"/>
                <path id="Vector_23"
                      d="M11.6734 46.8586C11.6734 45.5625 12.0578 44.2955 12.7779 43.2178C13.498 42.1401 14.5214 41.3002 15.7189 40.8042C16.9163 40.3082 18.234 40.1784 19.5052 40.4312C20.7764 40.6841 21.9441 41.3082 22.8605 42.2247C23.777 43.1412 24.4012 44.3089 24.654 45.5801C24.9069 46.8513 24.7771 48.1689 24.2811 49.3664C23.7851 50.5638 22.9452 51.5873 21.8675 52.3074C20.7898 53.0275 19.5228 53.4118 18.2267 53.4118H10.517C9.90131 53.4113 9.29313 53.2767 8.73472 53.0174C8.1763 52.7581 7.68105 52.3803 7.28339 51.9103C6.88572 51.4403 6.59517 50.8893 6.43195 50.2957C6.26872 49.702 6.23673 49.0799 6.33819 48.4727C6.43965 47.8654 6.67213 47.2875 7.01948 46.7792C7.36683 46.2709 7.82071 45.8443 8.34958 45.529C8.87844 45.2138 9.46961 45.0176 10.082 44.9539C10.6944 44.8902 11.3133 44.9606 11.8957 45.1603"
                      stroke="black" stroke-width="1.39583" stroke-linecap="round" stroke-linejoin="round"/>
                <path id="Rectangle 112"
                      d="M0.697917 35.9247H31.766V66.302H3.16285C1.80151 66.302 0.697917 65.1984 0.697917 63.837V35.9247Z"
                      stroke="black" stroke-width="1.39583"/>
            </g>
        </g>
        <path id="Line 3" d="M219.149 38.3854H80.2638" stroke="black" stroke-width="1.39583"/>
        <rect id="Rectangle 61429" x="160.521" y="29.3125" width="2.79167" height="2.79167" fill="black"/>
    </g>
</svg>
