<svg width="309" height="317" viewBox="0 0 309 317" fill="none" xmlns="http://www.w3.org/2000/svg">
<path d="M307.281 113.264L283.221 153.666L272.566 133.292H256.412L269.816 110.501L252.287 79.4226H217.572L190.762 125.35H145.048L152.953 111.882L143.673 92.89H170.483L197.293 45.5817H271.191L307.281 113.264ZM188.012 0L210.697 41.7832H193.168L183.888 56.6319L169.108 32.4598H135.424L116.519 63.5382L143.329 112.228L119.269 151.248L111.364 133.637H95.2091L107.239 110.846L80.4294 62.1569L115.145 0C115.488 0 188.012 0 188.012 0ZM35.0589 48.6896H82.1479L74.2425 62.1569L83.5228 79.768H53.9633L36.4338 110.846L53.9633 140.544H107.583L131.643 182.327H114.113L104.833 198.557L91.4283 174.384H37.8087L1.71858 111.192L35.0589 48.6896ZM0 205.118L24.0601 164.716L31.9655 179.564H52.2447L37.4649 205.118L54.9944 234.815H88.6786L115.488 187.507H166.358L155.703 205.118L163.608 219.966H135.424L108.614 267.275H34.7153L0 205.118ZM190.762 317H119.613L95.5529 275.217H113.082L120.988 260.368L134.393 283.159H171.858L189.387 252.081L162.577 206.154L186.637 165.752L195.918 180.6H214.822L200.042 207.535L226.852 253.462L190.762 317ZM274.972 268.31H226.852L233.726 254.843L223.071 235.851H256.755L271.535 210.297L252.631 174.039H199.011L176.326 133.637H193.855L203.136 118.789L216.541 141.579H270.16L309 211.679L274.972 268.31Z" fill="#EB7367"/>
</svg>
