<svg width="50" height="52" viewBox="0 0 50 52" fill="#none" xmlns="http://www.w3.org/2000/svg">
<path d="M49.7219 18.3351L45.8287 24.8753L44.1046 21.5772H41.4906L43.6596 17.8879L40.8231 12.8569H35.2058L30.8676 20.2915H23.4705L24.7497 18.1115L23.2481 15.037H27.5862L31.9244 7.37875H43.8821L49.7219 18.3351ZM30.4227 0L34.0934 6.76385H31.257L29.7553 9.16754L27.3637 5.25457H21.9132L18.8543 10.2855L23.1924 18.1674L19.2992 24.484L18.02 21.6331H15.406L17.3526 17.9438L13.0145 10.0619L18.6318 0C18.6874 0 30.4227 0 30.4227 0ZM5.67297 7.88184H13.2925L12.0134 10.0619L13.515 12.9128H8.73192L5.89544 17.9438L8.73192 22.7511H17.4082L21.3014 29.515H18.465L16.9633 32.1422L14.7942 28.2293H6.11791L0.278087 17.9997L5.67297 7.88184ZM0 33.2043L3.89321 26.6641L5.17242 29.0678H8.45384L6.06229 33.2043L8.89878 38.0117H14.3493L18.6874 30.3535H26.9188L25.1947 33.2043L26.4739 35.608H21.9132L17.5751 43.2663H5.61736L0 33.2043ZM30.8676 51.3158H19.3548L15.4616 44.5519H18.2981L19.5773 42.1483L21.7464 45.8376H27.8087L30.6452 40.8067L26.307 33.372L30.2002 26.8318L31.7019 29.2355H34.7608L32.3693 33.5956L36.7075 41.0303L30.8676 51.3158ZM44.4939 43.434H36.7075L37.8198 41.2539L36.0957 38.1794H41.5462L43.9377 34.0428L40.8788 28.1734H32.2024L28.5317 21.6331H31.3682L32.8699 19.2295L35.0389 22.9188H43.7152L50 34.2664L44.4939 43.434Z" fill="#000000"/>
</svg>
