<svg width="534" height="431" viewBox="0 0 534 431" fill="none" xmlns="http://www.w3.org/2000/svg">
<g id="relaxed Man">
<g id="shadow">
<path id="Vector" d="M517.942 401.92C517.942 405.039 402.002 407.558 258.968 407.558C115.934 407.558 0 405.034 0 401.92C0 398.805 115.939 396.276 258.973 396.276C402.008 396.276 517.942 398.805 517.942 401.92Z" fill="#E2843D"/>
<path id="Vector_2" d="M493.257 414.044C493.257 421.4 393.276 427.359 269.957 427.359C146.637 427.359 46.6565 421.4 46.6565 414.044C46.6565 406.687 146.635 400.734 269.957 400.734C393.278 400.734 493.257 406.692 493.257 414.044Z" fill="#E2843D"/>
</g>
<g id="chair">
<path id="Vector_3" d="M125.025 105.409C100.832 105.291 63.0954 116.792 60.0142 163.397C56.9331 210.001 50.3354 318.107 71.8649 349.932C93.3944 381.757 113.934 411.759 181.103 417.883C248.272 424.008 360.364 414.855 378.912 409.373C403.778 402.035 416.315 387.656 415.065 350.496C414.222 325.414 394.829 301.887 363.89 294.555C332.952 287.222 281.539 251.751 248.275 230.556C215.011 209.36 196.057 159.52 187.555 139.578C175.441 111.155 149.211 105.535 125.025 105.409Z" fill="#7EC5E9"/>
<path id="Vector_4" d="M341.472 391.322C296.219 399.75 241.982 399.623 197.783 385.469C111.042 357.693 80.8732 264.469 83.9414 177.957C84.7142 156.137 59.6026 138.122 57.9987 167.385C55.443 214.022 50.0727 322.196 71.9612 353.775C93.8497 385.354 114.728 415.131 181.962 420.495C249.196 425.859 361.177 415.437 379.662 409.745C403.657 402.359 415.978 388.45 415.221 353.852C395.862 373.206 370.392 385.938 341.472 391.322Z" fill="#F39C12"/>
</g>
<g id="face">
<path id="Vector_5" d="M217.656 82.1716C212.608 84.6333 206.52 83.5649 206.52 83.5649L206.611 90.5213L202.743 109.708L179.409 88.0621L180.928 71.2691C181.192 64.4664 180.371 57.6649 178.497 51.1201C175.294 40.2021 173.917 39.5834 175.897 27.35C178.416 11.9477 209.824 10.3646 209.824 10.3646L226.939 14.6383C229.001 25.3665 228.314 23.8926 228.52 30.3031C228.613 33.2769 228.837 37.9509 228.577 40.943C227.522 53.2076 232.302 75.0177 217.656 82.1716Z" fill="#EAAD8F"/>
<path id="Vector_6" d="M177.163 13.4165C173.389 4.50007 190.663 -1.17212 207.731 0.205637C224.912 1.59119 235.066 10.7649 235.91 15.4831C236.971 21.4204 228.517 30.3005 228.517 30.3005L228.034 24.2409C228.034 24.2409 223.401 27.9713 216.39 28.2598C206.361 28.6783 186.145 20.2948 186.145 20.2948C186.145 20.2948 188.209 27.3994 187.965 33.7708C187.72 40.1423 185.16 37.7117 185.162 48.5492C184.679 52.9892 178.814 55.9475 177.839 51.9598C177.059 48.7286 169.63 29.0839 170.228 22.0963C170.93 14.069 177.163 13.4165 177.163 13.4165Z" fill="#445973"/>
<path id="Vector_7" d="M185.175 48.5492C189.633 49.6384 181.97 54.7881 178.622 53.9094C176.23 53.2777 173.883 49.7502 174.296 45.1776C174.751 40.1371 178.164 38.3746 180.553 38.9959C184.723 40.0877 182.129 47.8005 185.175 48.5492Z" fill="#EAAD8F"/>
<path id="Vector_8" d="M202.837 44.6161C202.701 46.1056 202.057 47.2702 201.399 47.2156C200.741 47.161 200.315 45.8951 200.45 44.4055C200.585 42.916 201.23 41.7566 201.888 41.806C202.545 41.8554 202.972 43.1266 202.837 44.6161Z" fill="#271E2B"/>
<path id="Vector_9" d="M197.37 38.294C200.32 36.3366 205.444 36.7811 205.48 36.373C205.517 35.9648 206.073 34.4103 205.719 34.1088C205.366 33.8072 198.82 34.6417 196.834 36.7473C196.304 37.314 196.567 38.8347 197.37 38.294Z" fill="#3F5168"/>
<path id="Vector_10" d="M220.901 46.2486C220.768 47.7381 221.192 48.9989 221.85 49.0587C222.507 49.1185 223.149 47.9539 223.287 46.4591C223.425 44.9644 222.996 43.7114 222.336 43.6516C221.675 43.5919 221.036 44.7565 220.901 46.2486Z" fill="#271E2B"/>
<path id="Vector_11" d="M226.505 40.5426C223.953 38.0939 219.746 38.0835 219.772 37.6831C219.798 37.2828 219.544 35.6477 219.944 35.4163C220.344 35.185 225.733 36.7005 227.314 39.1285C227.735 39.7654 227.199 41.2107 226.505 40.5426Z" fill="#3F5168"/>
<path id="Vector_12" d="M212.702 45.175C211.29 52.8202 216.263 53.6547 216.117 55.9813C215.972 58.3078 212.478 59.2905 212.478 59.2905" stroke="#D29374" stroke-width="5.93" stroke-miterlimit="10" stroke-linecap="round"/>
<path id="Vector_13" d="M206.102 65.7451C209.928 75.1034 218.603 71.6876 218.725 64.3076L206.102 65.7451Z" fill="white"/>
<path id="Vector_14" d="M193.957 78.826C197.908 83.4791 205.116 83.4401 205.116 83.4401" stroke="#D29374" stroke-width="5.93" stroke-miterlimit="10" stroke-linecap="round"/>
<path id="Vector_15" d="M228 25.2262C230.145 24.1006 231.85 21.7792 232.627 19.2472" stroke="#233345" stroke-width="4.59" stroke-miterlimit="10" stroke-linecap="round"/>
<path id="Vector_16" d="M186.493 18.6597C187.237 21.5764 189.68 23.4013 191.885 25.2599C194.295 27.2876 197.136 28.6159 199.943 29.6792C202.915 30.7996 205.883 31.2025 209.12 31.1869C210.679 31.1869 212.042 30.2511 213.567 30.3108C215.023 30.3654 216.58 30.7606 218.13 30.9009C220.633 31.1271 224.431 30.7918 226.329 28.8707C228.226 26.9496 228.023 24.2383 228.023 24.2383C228.023 24.2383 226.368 21.6752 224.693 21.0071C219.97 19.1354 214.722 19.0575 209.957 17.2586C207.157 16.2058 205.322 13.6686 202.48 12.7328C200.728 12.1413 198.844 12.0593 197.047 12.4962C195.789 12.8342 194.424 13.692 193.125 13.7622L186.493 18.6597Z" fill="#445973"/>
<path id="Vector_17" d="M184.078 16.6425C191.162 28.8603 204.188 32.7024 211.35 30.888" stroke="#233345" stroke-width="4.59" stroke-miterlimit="10" stroke-linecap="round"/>
<path id="Vector_18" d="M195.953 19.2498C203.492 28.7667 215.93 31.6964 222.208 30.8931C224.524 30.8931 229.009 28.7901 227.826 22.689" stroke="#233345" stroke-width="4.59" stroke-miterlimit="10" stroke-linecap="round"/>
<path id="Vector_19" opacity="0.4" d="M206.624 53.2569C204.334 54.4839 198.046 53.9146 196.486 52.3419C195.053 50.9044 194.266 47.7537 194.406 45.9263C194.541 44.0338 194.606 41.793 195.794 40.6752C196.982 39.5574 208.254 40.9351 209.374 41.8996C210.495 42.864 210.495 45.6663 210.331 47.2988C210.141 49.0717 208.961 52.0092 206.624 53.2569Z" fill="white"/>
<path id="Vector_20" opacity="0.4" d="M196.616 48.9079C195.745 45.24 198.37 41.9334 202.041 41.6136C203.784 41.4422 205.536 41.8388 207.035 42.7444C208.534 43.65 209.7 45.016 210.359 46.6385C210.453 44.9956 210.333 42.7392 209.351 41.8996C208.23 40.93 196.959 39.56 195.771 40.6752C194.583 41.7904 194.518 44.0338 194.383 45.9263C194.25 47.7459 195.038 50.9044 196.462 52.3419C196.933 52.815 197.835 53.1894 198.921 53.4623C197.803 52.1485 197.012 50.5874 196.616 48.9079Z" fill="white"/>
<path id="Vector_21" d="M210.058 41.3797C208.823 40.3113 196.444 38.8009 195.139 40.0305C193.834 41.2601 193.761 43.7219 193.613 45.8015C193.47 47.8109 194.333 51.2605 195.906 52.8462C197.635 54.5749 204.534 55.1858 207.05 53.8522C209.619 52.4797 210.916 49.2537 211.111 47.3066C211.287 45.5155 211.293 42.4533 210.058 41.3797ZM206.468 53.036C204.261 54.2188 198.207 53.6729 196.691 52.1547C195.313 50.7744 194.554 47.7355 194.679 45.9705C194.809 44.1508 194.871 41.988 196.018 40.9118C197.164 39.8356 208.022 41.1587 209.104 42.0919C210.185 43.0252 210.185 45.7313 210.027 47.291C209.858 49.0041 208.719 51.8324 206.468 53.036Z" fill="#51595F"/>
<path id="Vector_22" d="M194.224 45.2296C194.224 45.2296 193.301 44.6915 193.112 44.078C192.922 43.4645 193.317 41.2757 193.499 40.8C193.681 40.3243 195.456 39.8537 195.456 39.8537L194.224 45.2296Z" fill="#51595F"/>
<path id="Vector_23" opacity="0.4" d="M218.26 54.3098C220.121 55.9085 225.897 56.431 227.589 55.152C229.131 53.9848 230.384 51.0187 230.579 49.1965C230.784 47.3092 231.099 45.0918 230.228 43.7868C229.357 42.4819 218.92 41.8944 217.75 42.6586C216.58 43.4229 216.089 46.1732 215.954 47.8083C215.8 49.5838 216.362 52.6772 218.26 54.3098Z" fill="white"/>
<path id="Vector_24" opacity="0.4" d="M228.055 51.7492C229.464 48.284 227.67 44.5745 224.415 43.6335C221.161 42.6924 217.797 44.1144 216.019 47.148C216.216 45.5155 216.71 43.3215 217.747 42.6586C218.928 41.8944 229.354 42.4793 230.225 43.7868C231.096 45.0944 230.782 47.3092 230.576 49.1965C230.381 51.0161 229.128 53.9848 227.587 55.152C227.067 55.5367 226.199 55.7525 225.172 55.8305C226.434 54.7096 227.42 53.3131 228.055 51.7492Z" fill="white"/>
<path id="Vector_25" d="M215.241 47.6783C215.08 49.6306 215.699 53.0282 217.784 54.8219C219.827 56.5791 226.172 57.1614 228.034 55.7473C229.723 54.4683 231.101 51.2085 231.317 49.2043C231.543 47.1246 231.899 44.6967 230.932 43.2643C229.965 41.832 218.509 41.1847 217.209 42.0244C215.91 42.864 215.374 45.8847 215.241 47.6783ZM216.221 47.8551C216.351 46.2746 216.812 43.6257 217.948 42.89C219.084 42.1543 229.126 42.7158 229.989 43.9792C230.852 45.2426 230.522 47.3742 230.327 49.1913C230.137 50.9486 228.928 53.8106 227.444 54.931C225.814 56.1632 220.248 55.6615 218.452 54.12C216.656 52.5785 216.068 49.5656 216.208 47.8551H216.221Z" fill="#51595F"/>
<path id="Vector_26" d="M230.839 48.5362C230.839 48.5362 231.769 48.1671 232.045 47.5978C232.32 47.0285 232.341 44.8007 232.255 44.3015C232.17 43.8024 230.654 43.033 230.654 43.033L230.839 48.5362Z" fill="#51595F"/>
<path id="Vector_27" d="M215.761 46.4046C215.832 45.6761 216.065 44.9727 216.442 44.3457C215.55 43.6579 214.48 43.2372 213.358 43.1323C212.236 43.0274 211.107 43.2426 210.102 43.753C210.45 44.4828 210.619 45.2847 210.596 46.0926C211.356 45.5287 212.303 45.2768 213.243 45.3884C214.183 45.5001 215.045 45.9668 215.652 46.6931L215.751 46.6125C215.761 46.5319 215.743 46.4696 215.761 46.4046Z" fill="#51595F"/>
</g>
<g id="body">
<path id="Vector_28" d="M334.745 265.046C347.545 267.906 356.607 268.223 358.14 268.267C359.477 268.309 360.295 266.143 358.879 265.811C356.706 265.291 347.563 263.429 347.563 263.429C347.563 263.429 359.638 264.953 362.245 265.202C364.852 265.452 365.567 261.654 362.877 261.303C359.586 260.887 347.54 259.247 347.54 259.247C347.54 259.247 362.653 259.629 364.852 259.689C367.052 259.748 368.125 255.087 364.525 254.929C360.925 254.77 346.692 253.86 346.692 253.86C346.692 253.86 359.23 253.016 361.905 252.857C364.579 252.698 364.969 248.453 361.023 248.3C357.077 248.147 344.415 247.866 344.415 247.866L337.916 245.703C337.916 245.703 341.072 244.733 344.311 244.084C347.23 243.501 346.328 238.068 341.878 238.859C337.427 239.649 332.652 241.871 324.328 238.211C294.197 224.982 264.846 192.129 259.371 151.402C255.212 120.556 222.848 132.85 226.56 164.517C232.242 213.045 288.119 254.659 334.745 265.046Z" fill="#EAAD8F"/>
<path id="Vector_29" d="M259.174 220.521C254.494 221.52 238.039 199.699 238.039 199.699C238.039 199.699 204.391 78.5452 238.559 103.321C257.965 117.39 255.818 147.459 282.309 195.639C285.92 202.184 263.866 219.515 259.174 220.521Z" fill="#E2E2E2"/>
<path id="Vector_30" d="M194.149 244.822C194.149 244.822 321.118 263.648 327.843 268.335C334.568 273.022 324.742 298.211 318.409 301.993C312.077 305.776 195.758 307.408 195.758 307.408L194.149 244.822Z" fill="#3A2F4D"/>
<path id="Vector_31" d="M142.169 275.712C151.696 281.491 190.497 293.444 217.607 276.323C222.323 273.344 221.285 269.325 231.645 262.41C241.679 255.711 258.204 249.012 260.64 246.522C269.439 237.525 245.856 169.576 245.856 169.576C245.856 169.576 243.332 107.707 238.676 103.288C234.021 98.8684 206.611 90.5238 206.611 90.5238L179.41 88.0647C179.41 88.0647 154.753 91.0074 146.484 98.0391C138.215 105.071 132.706 166.589 132.706 166.589C132.706 166.589 135.865 271.886 142.169 275.712Z" fill="white"/>
<path id="Vector_32" d="M276.039 263.541C289.053 261.914 297.694 259.163 299.141 258.693C300.415 258.282 300.441 255.966 299.009 256.13C296.789 256.372 287.553 257.705 287.553 257.705C287.553 257.705 299.435 255.067 301.975 254.422C304.515 253.777 303.906 249.961 301.257 250.549C298.018 251.266 286.115 253.785 286.115 253.785L302.565 248.365C304.66 247.679 304.096 242.929 300.652 243.995C297.207 245.061 283.495 248.999 283.495 248.999C283.495 248.999 295.016 243.98 297.48 242.927C299.945 241.874 298.879 237.749 295.115 238.937C291.351 240.125 279.333 244.136 279.333 244.136L272.491 244.284C272.491 244.284 275.137 242.311 277.966 240.608C280.521 239.074 277.838 234.265 273.916 236.506C269.993 238.747 266.244 242.451 257.175 241.814C224.355 239.498 185.646 218.468 166.763 181.973C152.465 154.324 126.122 176.813 140.294 205.369C162.008 249.137 228.642 269.478 276.039 263.541Z" fill="#EAAD8F"/>
<path id="Vector_33" d="M139.434 211.329C147.165 215.281 177.278 194.817 181.224 186.566C185.17 178.315 171.808 86.9417 149.33 96.1856C138.628 100.589 124.598 114.72 121.294 151.374C118.871 178.227 130.203 206.614 139.434 211.329Z" fill="#E2E2E2"/>
</g>
<g id="allMain">
<path id="Vector_34" d="M463.336 375.084C470.955 371.001 494.01 363.6 497.855 359.5C501.7 355.401 506.478 349.882 507.239 346.222C507.663 344.176 501.835 339.175 495.716 343.438L487.985 348.14L465.577 352.058C465.577 352.058 371.552 278.309 323.122 261.334C274.693 244.359 254.513 290.238 296.253 307.707C345.619 328.373 453.538 368.016 453.538 368.016C453.538 368.016 457.75 378.082 463.336 375.084Z" fill="#D29374"/>
<path id="Vector_35" d="M497.837 374.799C504.19 368.939 524.656 356.007 527.362 351.075C530.069 346.144 533.308 339.609 533.126 335.873C533.027 333.793 526.13 330.414 521.272 336.055L514.963 342.554L494.239 351.949C494.239 351.949 381.908 303.174 330.775 298.861C279.642 294.548 278.067 339.224 322.849 345.702C375.815 353.363 486.578 370.426 486.578 370.426C486.578 370.426 493.176 379.093 497.837 374.799Z" fill="#EAAD8F"/>
<path id="Vector_36" d="M169.209 335.577C134.895 317.877 147.141 266.85 147.141 266.85L211.267 261.282C238.539 264.854 328.54 288.177 331.293 293.132C334.045 298.086 332.868 344.537 326.496 346.222C320.125 347.906 258.129 341.998 222.655 345.946C212.364 347.09 179.352 340.81 169.209 335.577Z" fill="#53456A"/>
<path id="Vector_37" d="M249.857 268.714C248.796 271.867 250.637 274.693 253.951 274.992L367.33 285.234C370.644 285.533 374.226 283.199 375.29 280.035L398.535 211.08C399.595 207.929 397.755 205.101 394.44 204.799L281.062 194.557C277.747 194.258 274.165 196.598 273.102 199.756L249.857 268.714Z" fill="#A0A09F"/>
<path id="Vector_38" d="M176.87 256.595L302.3 267.927L300.48 273.287C299.417 276.443 295.837 278.777 292.52 278.486L179.142 268.244C175.827 267.945 173.984 265.124 175.047 261.963L176.87 256.595Z" fill="#A0A09F"/>
<path id="Vector_39" d="M256.629 269.325C255.565 272.478 257.409 275.304 260.72 275.603L374.099 285.845C377.413 286.144 380.996 283.81 382.061 280.646L405.304 211.691C406.367 208.538 404.524 205.712 401.21 205.408L287.834 195.166C284.517 194.867 280.934 197.206 279.871 200.365L256.629 269.325Z" fill="#C9C8C8"/>
<path id="Vector_40" d="M321.563 237.878C321.389 239.774 321.782 241.678 322.691 243.35C323.6 245.022 324.985 246.387 326.67 247.271C328.355 248.156 330.265 248.521 332.157 248.32C334.05 248.119 335.84 247.361 337.301 246.142C338.763 244.923 339.83 243.297 340.368 241.472C340.905 239.646 340.889 237.702 340.321 235.885C339.753 234.069 338.659 232.462 337.177 231.267C335.695 230.073 333.893 229.345 331.997 229.175C329.46 228.948 326.936 229.737 324.98 231.369C323.024 233.001 321.795 235.342 321.563 237.878Z" fill="#A0A09F"/>
<path id="Vector_41" d="M225.021 266.661C224.973 267.197 225.139 267.73 225.483 268.144C225.828 268.558 226.323 268.818 226.859 268.868L236.461 269.736C236.998 269.784 237.532 269.617 237.946 269.272C238.36 268.927 238.62 268.432 238.668 267.895C238.715 267.359 238.548 266.826 238.202 266.412C237.857 265.999 237.362 265.74 236.825 265.691L227.225 264.825C226.96 264.801 226.693 264.829 226.438 264.908C226.184 264.987 225.948 265.116 225.743 265.286C225.538 265.457 225.369 265.666 225.245 265.902C225.121 266.137 225.045 266.395 225.021 266.661Z" fill="#5E5B57"/>
<path id="Vector_42" d="M206.949 265.028C206.901 265.564 207.067 266.098 207.412 266.512C207.756 266.925 208.251 267.186 208.787 267.235L218.405 268.103C218.671 268.127 218.938 268.098 219.193 268.018C219.447 267.938 219.683 267.809 219.888 267.638C220.092 267.467 220.261 267.257 220.384 267.021C220.508 266.784 220.583 266.526 220.607 266.26C220.631 265.995 220.602 265.728 220.523 265.473C220.444 265.219 220.315 264.983 220.144 264.779C219.974 264.574 219.764 264.405 219.528 264.282C219.292 264.158 219.034 264.082 218.769 264.058L209.166 263.193C208.631 263.144 208.098 263.31 207.685 263.654C207.271 263.999 207.012 264.493 206.962 265.028H206.949Z" fill="#5E5B57"/>
<path id="Vector_43" d="M163.62 319.678C182.001 319.813 194.671 329.419 214.737 337.147C231.26 343.511 251.937 328.202 269.39 331.849C285.19 335.156 300.87 340.734 311.432 351.548C298.063 344.943 274.742 345.606 258.456 348.816C243.413 351.785 230.641 361.055 213.874 356.935C188.381 350.67 171.541 360.543 139.722 333.019C139.722 333.008 152.562 319.597 163.62 319.678Z" fill="#7EC5E9"/>
<path id="Vector_44" d="M163.62 319.678C182.001 319.813 194.671 329.419 214.737 337.147C231.26 343.511 251.937 328.202 269.39 331.849C285.19 335.156 300.87 340.734 311.432 351.548C298.063 344.943 276.338 332.904 260.047 336.115C245.004 339.081 231.122 347.74 214.347 343.62C188.856 337.355 189.293 310.821 139.722 333.008C139.722 333.008 152.562 319.597 163.62 319.678Z" fill="#8ECBEA"/>
</g>
</g>
</svg>
