<svg width="40" height="52" viewBox="0 0 40 52" fill="none" xmlns="http://www.w3.org/2000/svg">
<path d="M25.1476 1.23191C24.993 1.09358 24.7733 1 24.5577 1C24.5129 1 24.4641 1 24.4152 1.01221H2.9611C2.43218 1.01221 1.9358 1.23191 1.57775 1.58996C1.21971 1.948 1 2.43218 1 2.97738V42.5656C1 43.1108 1.21971 43.5909 1.57775 43.949C1.9358 44.307 2.4159 44.5267 2.9611 44.5267H15.098V42.7731H2.94483C2.90007 42.7731 2.83497 42.7569 2.80242 42.708C2.76988 42.6755 2.73733 42.6145 2.73733 42.5656V2.97738C2.73733 2.91228 2.7536 2.86752 2.80242 2.83497C2.83497 2.80243 2.87973 2.76988 2.94483 2.76988H23.6503H23.6666V2.77394V10.4515C23.6666 11.1839 23.9636 11.8552 24.4478 12.3353C24.9279 12.8154 25.5992 13.1165 26.3316 13.1165H33.8668V21.5509H35.6611V12.4411C35.6773 12.3638 35.6936 12.2987 35.6936 12.2214C35.6936 11.957 35.5716 11.721 35.3966 11.5501L25.2534 1.29701C25.2208 1.26446 25.2086 1.25226 25.1761 1.23191H25.1476ZM20.3832 24.9482H37.4106C37.8256 24.9482 38.204 25.1151 38.4807 25.3917L38.5132 25.4284C38.7695 25.6969 38.9242 26.0631 38.9242 26.4577V49.4865C38.9242 49.9015 38.7573 50.2758 38.4807 50.5524L38.4766 50.5565C38.204 50.8291 37.8256 51 37.4106 51H20.3832C19.9682 51 19.5898 50.8332 19.3131 50.5565L19.2806 50.5199C19.0242 50.2514 18.8696 49.8852 18.8696 49.4905V26.4618C18.8696 26.0468 19.0365 25.6725 19.3131 25.3958L19.3172 25.3917C19.5857 25.1232 19.9682 24.9482 20.3832 24.9482ZM22.4338 35.954H24.814C25.0174 35.954 25.1842 36.1208 25.1842 36.3243V38.3342C25.1842 38.5376 25.0174 38.7044 24.814 38.7044H22.4338C22.2304 38.7044 22.0636 38.5376 22.0636 38.3342V36.3243C22.0595 36.1208 22.2304 35.954 22.4338 35.954ZM22.4338 45.5032H24.814C25.0174 45.5032 25.1842 45.67 25.1842 45.8735V47.8793C25.1842 48.0828 25.0174 48.2496 24.814 48.2496H22.4338C22.2304 48.2496 22.0636 48.0828 22.0636 47.8793V45.8694C22.0595 45.6741 22.2304 45.5032 22.4338 45.5032ZM22.4338 40.7266H24.814C25.0174 40.7266 25.1842 40.8934 25.1842 41.1009V43.1108C25.1842 43.3143 25.0174 43.4811 24.814 43.4811H22.4338C22.2304 43.4811 22.0636 43.3143 22.0636 43.1108V41.1009C22.0595 40.8975 22.2304 40.7266 22.4338 40.7266ZM32.9839 35.954H35.3641C35.5675 35.954 35.7302 36.1208 35.7302 36.3243V38.3342C35.7302 38.5376 35.5634 38.7044 35.3641 38.7044H32.9839C32.7805 38.7044 32.6136 38.5376 32.6136 38.3342V36.3243C32.6096 36.1208 32.7764 35.954 32.9839 35.954ZM32.9839 45.5032H35.3641C35.5675 45.5032 35.7302 45.67 35.7302 45.8735V47.8793C35.7302 48.0828 35.5634 48.2496 35.3641 48.2496H32.9839C32.7805 48.2496 32.6136 48.0828 32.6136 47.8793V45.8694C32.6096 45.6741 32.7764 45.5032 32.9839 45.5032ZM32.9839 40.7266H35.3641C35.5675 40.7266 35.7302 40.8934 35.7302 41.1009V43.1108C35.7302 43.3143 35.5634 43.4811 35.3641 43.4811H32.9839C32.7805 43.4811 32.6136 43.3143 32.6136 43.1108V41.1009C32.6096 40.8975 32.7764 40.7266 32.9839 40.7266ZM27.7068 35.954H30.087C30.2904 35.954 30.4572 36.1208 30.4572 36.3243V38.3342C30.4572 38.5376 30.2904 38.7044 30.087 38.7044H27.7068C27.5034 38.7044 27.3366 38.5376 27.3366 38.3342V36.3243C27.3325 36.1208 27.5034 35.954 27.7068 35.954ZM27.7068 45.5032H30.087C30.2904 45.5032 30.4572 45.67 30.4572 45.8735V47.8793C30.4572 48.0828 30.2904 48.2496 30.087 48.2496H27.7068C27.5034 48.2496 27.3366 48.0828 27.3366 47.8793V45.8694C27.3325 45.6741 27.5034 45.5032 27.7068 45.5032ZM27.7068 40.7266H30.087C30.2904 40.7266 30.4572 40.8934 30.4572 41.1009V43.1108C30.4572 43.3143 30.2904 43.4811 30.087 43.4811H27.7068C27.5034 43.4811 27.3366 43.3143 27.3366 43.1108V41.1009C27.3325 40.8975 27.5034 40.7266 27.7068 40.7266ZM22.1205 27.8004H35.6733C35.8808 27.8004 36.0639 27.8818 36.1981 28.0201L36.2307 28.0567C36.3487 28.191 36.4179 28.3619 36.4179 28.545V32.7764C36.4179 32.9798 36.3365 33.167 36.1981 33.3012C36.0639 33.4355 35.8767 33.521 35.6733 33.521H22.1205C21.913 33.521 21.7299 33.4396 21.5957 33.3012L21.5631 33.2646C21.4451 33.1304 21.3759 32.9595 21.3759 32.7764V28.5409C21.3759 28.3375 21.4573 28.1544 21.5957 28.016C21.7299 27.8858 21.9171 27.8004 22.1205 27.8004ZM35.5756 28.6385H22.2182V32.6787H35.5756V28.6385ZM37.4106 26.0061H20.3832C20.2571 26.0061 20.1431 26.059 20.0577 26.1404C19.9763 26.2217 19.9234 26.3357 19.9234 26.4618V49.4905C19.9234 49.6085 19.9682 49.7143 20.0373 49.7916L20.0577 49.8119C20.1391 49.8933 20.253 49.9462 20.3791 49.9462H37.4065C37.5327 49.9462 37.6466 49.8933 37.728 49.8119C37.8093 49.7306 37.8622 49.6166 37.8622 49.4905V26.4618C37.8622 26.3438 37.8175 26.238 37.7483 26.1607L37.728 26.1404C37.6507 26.0549 37.5367 26.0061 37.4106 26.0061ZM7.98999 27.7312C7.55057 27.7312 7.1966 27.3772 7.1966 26.9378C7.1966 26.4984 7.55057 26.1444 7.98999 26.1444H14.6138C15.0532 26.1444 15.4072 26.4984 15.4072 26.9378C15.4072 27.3772 15.0532 27.7312 14.6138 27.7312H7.98999ZM7.98999 33.7407C7.55057 33.7407 7.1966 33.3867 7.1966 32.9473C7.1966 32.5079 7.55057 32.1539 7.98999 32.1539H14.6138C15.0532 32.1539 15.4072 32.5079 15.4072 32.9473C15.4072 33.3867 15.0532 33.7407 14.6138 33.7407H7.98999ZM8.27073 7.96965C7.79063 7.96965 7.38376 8.36024 7.38376 8.86069C7.38376 9.34079 7.77435 9.74766 8.27073 9.74766H14.3453C14.8254 9.74766 15.2363 9.35707 15.2363 8.86069C15.2363 8.38058 14.8457 7.96965 14.3453 7.96965H8.27073ZM25.4283 10.4515V4.02303L32.6706 11.3548H26.3316C26.0834 11.3548 25.8637 11.2449 25.6928 11.0903C25.5341 10.9316 25.4283 10.6997 25.4283 10.4515ZM8.27073 14.093C7.79063 14.093 7.38376 14.4836 7.38376 14.98C7.38376 15.4601 7.77435 15.871 8.27073 15.871H23.8049C24.285 15.871 24.696 15.4804 24.696 14.98C24.696 14.4999 24.3054 14.0889 23.8049 14.0889L8.27073 14.093ZM8.27073 20.0089C7.79063 20.0089 7.38376 20.3995 7.38376 20.8999C7.38376 21.38 7.77435 21.791 8.27073 21.791H28.3497C28.8298 21.791 29.2407 21.4004 29.2407 20.8999C29.2407 20.4198 28.8501 20.0089 28.3497 20.0089H8.27073Z" fill="#000000" stroke="#000000" stroke-width="1.1"/>
</svg>
