<svg width="608" height="752" viewBox="0 0 608 752" fill="none" xmlns="http://www.w3.org/2000/svg">
<g id="Rocket">
<g id="Vector" filter="url(#filter0_d)">
<path d="M348.837 329.112L323.784 316.034L94.5739 705.315L160.342 739.664L348.837 329.112Z" fill="url(#paint0_linear)"/>
</g>
<g id="RightCloud">
<g id="&#208;&#161;&#208;&#187;&#208;&#190;&#208;&#185; 1">
<path id="Vector_2" d="M372.304 712.69C372.307 708.61 371.506 704.569 369.946 700.798C368.386 697.028 366.098 693.602 363.212 690.716C360.327 687.831 356.901 685.543 353.131 683.983C349.36 682.423 345.319 681.622 341.238 681.625H340.014C337.283 667.833 330.122 655.31 319.62 645.961C321.02 643.603 321.77 640.916 321.794 638.173C321.818 635.431 321.114 632.731 319.756 630.349C318.397 627.967 316.431 625.987 314.059 624.612C311.686 623.236 308.991 622.514 306.249 622.518C304.95 622.517 303.656 622.685 302.4 623.018C302.55 621.344 302.65 619.644 302.65 618.02C302.645 607.21 299.522 596.63 293.656 587.55C287.791 578.469 279.431 571.273 269.579 566.823C259.727 562.374 248.801 560.859 238.11 562.462C227.419 564.064 217.418 568.715 209.303 575.858C202.655 571.747 195.125 569.275 187.334 568.645C179.543 568.015 171.714 569.245 164.492 572.234C167.599 564.141 168.517 555.371 167.152 546.81C165.787 538.249 162.188 530.2 156.719 523.474C163.062 511.453 164.833 497.54 161.702 484.313C158.571 471.086 150.751 459.443 139.691 451.541C128.632 443.639 115.082 440.015 101.555 441.339C88.027 442.664 75.4381 448.847 66.1212 458.744C65.578 455.328 63.9091 452.191 61.3796 449.832C58.85 447.473 55.6049 446.026 52.1592 445.721C48.7135 445.417 45.2648 446.272 42.3608 448.152C39.4568 450.031 37.2639 452.827 36.1302 456.095C27.4979 452.924 18.2893 451.629 9.11718 452.294C-0.0549305 452.96 -8.98021 455.571 -17.0644 459.955C-25.1485 464.339 -32.2061 470.394 -37.7677 477.718C-43.3292 485.042 -47.2671 493.466 -49.319 502.431C-52.5351 496.267 -57.7256 491.361 -64.0601 488.496C-70.3946 485.631 -77.5069 484.974 -84.2589 486.63C-91.011 488.286 -97.0125 492.158 -101.303 497.628C-105.594 503.098 -107.926 509.849 -107.926 516.801V755.602H255.814C269.246 760.133 283.794 760.133 297.227 755.602H372.204L372.304 712.69Z" fill="#F9AE41"/>
</g>
</g>
<g id="LeftCloud">
<g id="Group">
<g id="&#208;&#161;&#208;&#187;&#208;&#190;&#208;&#185; 1_2">
<path id="Vector_3" d="M499.903 716.465C501.29 719.674 502.003 723.113 502 726.586L501.911 763.108H435.244C423.301 766.964 410.366 766.964 398.422 763.108H75V559.868C75.0001 553.951 77.0736 548.206 80.8888 543.55C84.704 538.895 90.0403 535.599 96.044 534.19C102.048 532.781 108.372 533.34 114.004 535.778C119.636 538.216 124.251 542.392 127.111 547.638C128.936 540.008 132.437 532.838 137.382 526.605C142.327 520.372 148.602 515.218 155.79 511.487C162.979 507.756 170.915 505.534 179.07 504.967C188.754 500.621 199.259 501.579 212.765 504.452C221.138 506.233 228.771 510.197 231.773 514.985C243.278 510.197 250.35 508.443 262.286 510.197C271.717 511.583 277.292 513.07 284.795 519.294C290.031 523.638 290.798 522.646 299.802 537.009C305.304 548.979 303.303 558.555 299.802 568.61C306.304 569.088 318.374 578.122 319.588 585.408C320.801 592.695 319.985 600.158 317.222 607.046C323.644 604.502 330.605 603.455 337.533 603.991C344.46 604.528 351.155 606.632 357.067 610.13C364.282 604.051 373.175 600.093 382.681 598.729C392.187 597.365 401.902 598.654 410.661 602.441C419.421 606.228 426.854 612.353 432.07 620.081C437.285 627.809 440.062 636.813 440.067 646.014C440.067 647.396 439.978 648.843 439.844 650.268C440.961 649.985 442.112 649.842 443.267 649.842C445.705 649.838 448.101 650.453 450.211 651.624C452.32 652.795 454.068 654.479 455.276 656.507C456.484 658.534 457.11 660.832 457.088 663.166C457.067 665.5 456.4 667.787 455.156 669.794C464.493 677.751 460.943 694.284 463.371 706.022C463.371 706.022 468.594 701.957 473.876 701.234C477.377 700.756 482.028 700.864 485.38 702.192C488.733 703.52 491.351 705.429 493.916 707.885C496.482 710.34 498.516 713.256 499.903 716.465Z" fill="#F9AE41"/>
</g>
</g>
</g>
<g id="rocket1">
<g id="flames">
<g id="yellowFlame">
<g id="Vector_4" filter="url(#filter1_d)">
<path d="M294.782 322.861C297.034 319.297 300.004 316.242 303.503 313.89C297.835 322.886 295.275 333.494 296.219 344.085C298.055 357.485 301.062 370.698 305.206 383.573C318.219 379.678 330.85 374.605 342.942 368.415C352.148 363.144 359.369 354.996 363.494 345.222C363.584 349.413 362.796 353.577 361.18 357.445C370.749 350.78 379.074 342.6 383.954 333.245C396.651 308.918 387.727 281.025 364.976 269.153C342.224 257.28 313.894 266.509 301.517 290.207C296.66 299.518 294.862 311.084 294.782 322.861Z" fill="url(#paint1_linear)"/>
</g>
<g id="Vector_5" filter="url(#filter2_d)">
<path d="M317.589 273.329C324.355 268.533 332.31 265.691 340.583 265.114C348.856 264.536 357.129 266.246 364.495 270.056C369.816 272.798 374.532 276.583 378.36 281.185C382.189 285.787 385.052 291.113 386.78 296.844C390.325 308.852 388.983 321.773 383.045 332.795C378.112 341.492 371.322 348.994 363.159 354.768C364.067 351.684 364.501 348.479 364.444 345.264L364.368 340.959L362.576 344.914C359.081 353.091 353.408 360.151 346.176 365.324C344.991 366.149 343.77 367 342.416 367.699C330.64 373.667 318.366 378.593 305.732 382.422C301.784 369.905 298.89 357.079 297.081 344.08C296.151 333.696 298.668 323.295 304.243 314.486L306.428 310.744L302.873 313.219L302.418 313.537C299.918 315.289 297.678 317.386 295.766 319.767C295.787 309.761 298.023 299.884 302.313 290.844C305.909 283.921 311.123 277.968 317.512 273.491L317.589 273.329ZM316.941 272.67C310.414 277.235 305.089 283.312 301.422 290.382C296.583 299.68 294.786 311.246 294.705 323.023C296.854 319.606 299.672 316.658 302.989 314.357L303.427 314.052C297.758 323.048 295.199 333.656 296.142 344.247C297.978 357.647 300.985 370.86 305.13 383.735C318.143 379.84 330.774 374.767 342.865 368.577C344.161 367.855 345.42 367.068 346.637 366.221C354.096 360.92 359.932 353.65 363.494 345.222C363.584 349.413 362.796 353.577 361.18 357.445C370.749 350.78 379.074 342.6 383.954 333.245C396.651 308.918 387.727 281.026 364.976 269.153C357.448 265.257 348.993 263.508 340.537 264.097C332.081 264.687 323.95 267.593 317.036 272.496L316.941 272.67Z" fill="url(#paint2_linear)"/>
</g>
</g>
<path id="orangeFlame" d="M316.188 311.66C317.601 309.405 319.48 307.478 321.699 306.008C318.122 311.68 316.504 318.37 317.096 325.05C318.242 333.506 320.136 341.844 322.755 349.965C330.968 347.507 338.938 344.302 346.567 340.391C352.38 337.076 356.934 331.933 359.523 325.763C359.581 328.414 359.083 331.048 358.06 333.495C363.961 329.584 368.873 324.356 372.409 318.223C374.328 314.797 375.542 311.022 375.981 307.12C376.42 303.218 376.074 299.267 374.964 295.501C373.854 291.734 372.002 288.228 369.517 285.187C367.032 282.147 363.964 279.634 360.493 277.797C356.994 276.03 353.18 274.971 349.27 274.683C345.36 274.394 341.432 274.88 337.711 276.114C333.99 277.347 330.549 279.304 327.586 281.871C324.623 284.438 322.197 287.565 320.446 291.072C317.448 297.512 315.99 304.56 316.188 311.66Z" fill="url(#paint3_linear)"/>
<path id="redFlame" d="M328.419 339.171C327.157 334.213 326.17 329.189 325.463 324.122C325.073 319.235 326.31 314.357 328.982 310.247C329.939 308.598 330.309 306.673 330.032 304.787C329.755 302.9 328.848 301.163 327.458 299.858C327.101 299.515 326.713 299.205 326.299 298.933C326.711 297.568 327.247 296.243 327.901 294.975C330.416 289.894 334.843 286.018 340.212 284.197C345.581 282.375 351.453 282.758 356.541 285.259C359.021 286.595 361.21 288.412 362.979 290.604C364.749 292.796 366.064 295.318 366.847 298.024C367.63 300.73 367.866 303.565 367.541 306.363C367.216 309.161 366.336 311.867 364.953 314.321C364.275 315.584 363.493 316.789 362.617 317.924C362.178 317.755 361.728 317.616 361.271 317.507C359.405 317.123 357.463 317.377 355.759 318.23C354.055 319.083 352.688 320.485 351.877 322.209C350.033 326.737 346.747 330.529 342.528 332.999C337.95 335.33 333.239 337.391 328.419 339.171Z" fill="url(#paint4_linear)"/>
</g>
<g id="mainRocket">
<g id="Vector_6" filter="url(#filter3_d)">
<path d="M442.446 252.009L334.734 195.769L307.252 248.423L316.476 253.232L310.409 264.848L399.66 311.45L405.709 299.847L414.946 304.675L442.446 252.009Z" fill="#2C3E50"/>
</g>
<g id="Vector_7" filter="url(#filter4_d)">
<path d="M519.309 287.587C520.44 286.012 521.091 284.143 521.183 282.205C521.274 280.268 520.803 278.345 519.826 276.67C509.985 259.161 483.658 216.97 483.658 216.97L446.407 277.673C446.407 277.673 460.096 293.828 460.306 295.062C460.815 297.659 459.341 300.363 458.31 302.651C456.918 305.705 432.998 359.587 432.998 359.587C437.057 364.014 444.261 359.511 451.76 352.284C459.26 345.058 519.079 287.801 519.309 287.587Z" fill="#2C3E50"/>
</g>
<g id="Vector_8" filter="url(#filter5_d)">
<path d="M247.079 245.317C245.428 255.617 245.854 264.118 251.779 264.89C251.779 264.89 282.34 214.559 284.05 211.689C285.114 209.234 286.887 207.151 289.141 205.707C290.356 205.159 311.44 207.175 311.44 207.175L339.947 141.924C339.947 141.924 290.271 144.446 270.291 146.425C268.364 146.575 266.522 147.278 264.985 148.449C263.448 149.62 262.282 151.21 261.626 153.028C261.602 153.343 248.767 234.721 247.079 245.317Z" fill="#2C3E50"/>
</g>
<g id="Vector_9" filter="url(#filter6_d)">
<path d="M442.254 296.428C458.14 278.885 471.622 259.309 482.347 238.212C526.858 153.071 531.053 42.3037 493.621 22.7626C456.189 3.22157 367.756 69.9587 323.265 155.168C312.065 175.993 303.685 198.216 298.344 221.251L442.254 296.428Z" fill="url(#paint5_linear)"/>
</g>
<path id="Vector_10" d="M470.748 66.6033C485.936 74.6147 502.063 80.7049 518.755 84.7334C517.306 54.1255 508.974 30.7749 493.621 22.7629C478.268 14.7508 454.369 21.2457 428.408 37.5679C441.266 48.9605 455.488 58.7135 470.748 66.6033Z" fill="#2C3E50"/>
<path id="Vector_11" d="M461.212 196.572C482.402 175.429 482.439 141.112 461.296 119.922C440.153 98.7332 405.836 98.6956 384.647 119.839C363.458 140.982 363.42 175.299 384.563 196.488C405.706 217.677 440.023 217.715 461.212 196.572Z" fill="#34495E"/>
<path id="Vector_12" d="M452.836 182.374C466.613 165.62 464.201 140.87 447.448 127.092C430.695 113.315 405.945 115.727 392.167 132.48C378.389 149.233 380.801 173.983 397.554 187.761C414.308 201.539 439.058 199.127 452.836 182.374Z" fill="#F1C40F"/>
</g>
</g>
</g>
<defs>
<filter id="filter0_d" x="90.574" y="316.034" width="262.263" height="431.63" filterUnits="userSpaceOnUse" color-interpolation-filters="sRGB">
<feFlood flood-opacity="0" result="BackgroundImageFix"/>
<feColorMatrix in="SourceAlpha" type="matrix" values="0 0 0 0 0 0 0 0 0 0 0 0 0 0 0 0 0 0 127 0"/>
<feOffset dy="4"/>
<feGaussianBlur stdDeviation="2"/>
<feColorMatrix type="matrix" values="0 0 0 0 0 0 0 0 0 0 0 0 0 0 0 0 0 0 0.25 0"/>
<feBlend mode="normal" in2="BackgroundImageFix" result="effect1_dropShadow"/>
<feBlend mode="normal" in="SourceGraphic" in2="effect1_dropShadow" result="shape"/>
</filter>
<filter id="filter1_d" x="290.782" y="263.984" width="102.98" height="127.588" filterUnits="userSpaceOnUse" color-interpolation-filters="sRGB">
<feFlood flood-opacity="0" result="BackgroundImageFix"/>
<feColorMatrix in="SourceAlpha" type="matrix" values="0 0 0 0 0 0 0 0 0 0 0 0 0 0 0 0 0 0 127 0"/>
<feOffset dy="4"/>
<feGaussianBlur stdDeviation="2"/>
<feColorMatrix type="matrix" values="0 0 0 0 0 0 0 0 0 0 0 0 0 0 0 0 0 0 0.25 0"/>
<feBlend mode="normal" in2="BackgroundImageFix" result="effect1_dropShadow"/>
<feBlend mode="normal" in="SourceGraphic" in2="effect1_dropShadow" result="shape"/>
</filter>
<filter id="filter2_d" x="290.705" y="263.985" width="103.056" height="127.749" filterUnits="userSpaceOnUse" color-interpolation-filters="sRGB">
<feFlood flood-opacity="0" result="BackgroundImageFix"/>
<feColorMatrix in="SourceAlpha" type="matrix" values="0 0 0 0 0 0 0 0 0 0 0 0 0 0 0 0 0 0 127 0"/>
<feOffset dy="4"/>
<feGaussianBlur stdDeviation="2"/>
<feColorMatrix type="matrix" values="0 0 0 0 0 0 0 0 0 0 0 0 0 0 0 0 0 0 0.25 0"/>
<feBlend mode="normal" in2="BackgroundImageFix" result="effect1_dropShadow"/>
<feBlend mode="normal" in="SourceGraphic" in2="effect1_dropShadow" result="shape"/>
</filter>
<filter id="filter3_d" x="303.252" y="195.769" width="143.193" height="123.681" filterUnits="userSpaceOnUse" color-interpolation-filters="sRGB">
<feFlood flood-opacity="0" result="BackgroundImageFix"/>
<feColorMatrix in="SourceAlpha" type="matrix" values="0 0 0 0 0 0 0 0 0 0 0 0 0 0 0 0 0 0 127 0"/>
<feOffset dy="4"/>
<feGaussianBlur stdDeviation="2"/>
<feColorMatrix type="matrix" values="0 0 0 0 0 0 0 0 0 0 0 0 0 0 0 0 0 0 0.25 0"/>
<feBlend mode="normal" in2="BackgroundImageFix" result="effect1_dropShadow"/>
<feBlend mode="normal" in="SourceGraphic" in2="effect1_dropShadow" result="shape"/>
</filter>
<filter id="filter4_d" x="428.998" y="216.97" width="96.196" height="152.372" filterUnits="userSpaceOnUse" color-interpolation-filters="sRGB">
<feFlood flood-opacity="0" result="BackgroundImageFix"/>
<feColorMatrix in="SourceAlpha" type="matrix" values="0 0 0 0 0 0 0 0 0 0 0 0 0 0 0 0 0 0 127 0"/>
<feOffset dy="4"/>
<feGaussianBlur stdDeviation="2"/>
<feColorMatrix type="matrix" values="0 0 0 0 0 0 0 0 0 0 0 0 0 0 0 0 0 0 0.25 0"/>
<feBlend mode="normal" in2="BackgroundImageFix" result="effect1_dropShadow"/>
<feBlend mode="normal" in="SourceGraphic" in2="effect1_dropShadow" result="shape"/>
</filter>
<filter id="filter5_d" x="242.244" y="141.924" width="101.703" height="130.966" filterUnits="userSpaceOnUse" color-interpolation-filters="sRGB">
<feFlood flood-opacity="0" result="BackgroundImageFix"/>
<feColorMatrix in="SourceAlpha" type="matrix" values="0 0 0 0 0 0 0 0 0 0 0 0 0 0 0 0 0 0 127 0"/>
<feOffset dy="4"/>
<feGaussianBlur stdDeviation="2"/>
<feColorMatrix type="matrix" values="0 0 0 0 0 0 0 0 0 0 0 0 0 0 0 0 0 0 0.25 0"/>
<feBlend mode="normal" in2="BackgroundImageFix" result="effect1_dropShadow"/>
<feBlend mode="normal" in="SourceGraphic" in2="effect1_dropShadow" result="shape"/>
</filter>
<filter id="filter6_d" x="294.344" y="19.3375" width="228.643" height="285.091" filterUnits="userSpaceOnUse" color-interpolation-filters="sRGB">
<feFlood flood-opacity="0" result="BackgroundImageFix"/>
<feColorMatrix in="SourceAlpha" type="matrix" values="0 0 0 0 0 0 0 0 0 0 0 0 0 0 0 0 0 0 127 0"/>
<feOffset dy="4"/>
<feGaussianBlur stdDeviation="2"/>
<feColorMatrix type="matrix" values="0 0 0 0 0 0 0 0 0 0 0 0 0 0 0 0 0 0 0.25 0"/>
<feBlend mode="normal" in2="BackgroundImageFix" result="effect1_dropShadow"/>
<feBlend mode="normal" in="SourceGraphic" in2="effect1_dropShadow" result="shape"/>
</filter>
<linearGradient id="paint0_linear" x1="337.616" y1="339.633" x2="196.738" y2="611.658" gradientUnits="userSpaceOnUse">
<stop stop-color="#FFD85A"/>
<stop offset="1" stop-color="#F9AE41"/>
</linearGradient>
<linearGradient id="paint1_linear" x1="21276.4" y1="101355" x2="23612.2" y2="96814.7" gradientUnits="userSpaceOnUse">
<stop stop-color="#FFD85A"/>
<stop offset="1" stop-color="#F9AE41"/>
</linearGradient>
<linearGradient id="paint2_linear" x1="119647" y1="-22893.7" x2="117341" y2="-16970" gradientUnits="userSpaceOnUse">
<stop stop-color="#FFD85A"/>
<stop offset="1" stop-color="#F9AE41"/>
</linearGradient>
<linearGradient id="paint3_linear" x1="324.582" y1="347.885" x2="358.311" y2="281.325" gradientUnits="userSpaceOnUse">
<stop stop-color="#FF9A6E"/>
<stop offset="1" stop-color="#DD704A"/>
</linearGradient>
<linearGradient id="paint4_linear" x1="328.923" y1="338.274" x2="356.879" y2="284.737" gradientUnits="userSpaceOnUse">
<stop stop-color="#F96B8E"/>
<stop offset="1" stop-color="#CC4062"/>
</linearGradient>
<linearGradient id="paint5_linear" x1="370.546" y1="257.317" x2="492.009" y2="29.5087" gradientUnits="userSpaceOnUse">
<stop stop-color="#D8DEE5"/>
<stop offset="1" stop-color="white"/>
</linearGradient>
</defs>
</svg>
