<svg width="602" height="414" viewBox="0 0 602 414" fill="none" xmlns="http://www.w3.org/2000/svg">
<g id="Group">
<path id="roll_top" d="M395.194 7.70897C394.052 11.9917 392.815 16.4648 392.434 17.6545L391.816 19.8435L388.818 20.1766C387.201 20.3669 384.441 20.8428 382.681 21.2234C380.92 21.6517 379.255 21.8421 379.017 21.6993C378.779 21.509 376.162 17.94 373.26 13.6572C370.31 9.42207 367.741 5.75793 367.551 5.5676C367.313 5.28207 355.038 10.469 354.372 11.1352C354.277 11.1828 355.418 15.7034 356.893 21.1283C358.321 26.6007 359.463 31.0738 359.367 31.1214C358.13 32.0255 352.992 36.1179 351.422 37.4979L349.281 39.3538L340.098 34.9283L330.916 30.5028L326.872 36.2131C324.635 39.3538 322.827 42.0662 322.827 42.2566C322.827 42.4469 326.063 45.7779 329.964 49.7276L337.101 56.8655L335.531 60.6724C334.627 62.7662 333.675 65.4786 333.342 66.7159C332.628 69.3331 333.247 69.1428 322.352 69.9517C318.831 70.2373 315.025 70.5704 313.978 70.7131L312.027 70.951L311.409 77.8035C311.076 81.6104 310.885 84.8462 311.076 84.989C311.218 85.1317 315.5 86.4166 320.591 87.7966C325.682 89.1766 330.107 90.4138 330.392 90.6042C330.678 90.7945 330.916 91.7462 330.916 92.6979C330.916 93.6497 331.344 96.3621 331.82 98.7414C332.295 101.073 332.628 103.167 332.533 103.357C332.391 103.548 328.68 106.212 324.255 109.258C319.782 112.303 316.166 115.016 316.166 115.254C316.166 115.777 321.352 127.15 321.781 127.626C322.066 127.912 336.34 124.486 340.717 123.058C341.526 122.82 342.144 123.343 344.38 126.199C345.808 128.102 347.663 130.291 348.472 131.052C349.281 131.861 349.947 132.623 349.947 132.813C349.947 133.003 347.996 137.286 345.665 142.283C343.286 147.327 341.383 151.514 341.478 151.562C342.667 152.609 352.659 159.414 353.04 159.414C353.325 159.414 356.703 156.226 360.604 152.323L367.694 145.233L370.12 146.328C371.452 146.899 374.069 147.85 375.877 148.469C377.733 149.04 379.35 149.706 379.588 149.849C379.778 150.039 380.254 154.56 380.682 159.937C381.111 165.267 381.586 169.788 381.777 169.978C381.919 170.168 385.155 170.597 388.913 170.93C394.48 171.453 395.765 171.501 395.955 170.977C396.098 170.644 397.335 166.219 398.715 161.175L401.189 152.038L402.806 151.705C403.71 151.514 406.612 150.991 409.324 150.515L414.177 149.611L420.03 158.034C425.644 166.123 425.882 166.409 427.023 165.886C427.69 165.6 430.592 164.268 433.542 162.888L438.87 160.413L436.492 151.467C435.207 146.566 434.017 142.092 433.875 141.521C433.684 140.712 434.113 140.141 436.158 138.714C437.538 137.714 439.774 135.811 441.154 134.526L443.628 132.194L452.954 136.572C458.044 138.999 462.326 140.903 462.422 140.808C463.088 140.046 469.939 130.196 470.082 129.768C470.177 129.434 467.084 125.866 463.23 121.821C456.95 115.301 456.189 114.35 456.665 113.493C456.95 112.97 457.949 110.305 458.948 107.545L460.709 102.548L466.561 102.025C469.796 101.692 474.411 101.311 476.79 101.121L481.12 100.788L481.691 95.0297C481.976 91.8414 482.214 88.5579 482.214 87.7966V86.369L472.461 83.7517C464.039 81.5152 462.66 81.0393 462.517 80.1828C462.422 79.6593 461.993 77.0897 461.613 74.4724C461.185 71.8552 460.756 69.3807 460.566 69C460.376 68.4766 462.66 66.6683 468.845 62.3855L477.361 56.5324L474.411 50.1559C472.603 46.2062 471.224 43.8269 470.795 43.7793C470.415 43.7793 466.085 44.8738 461.185 46.1586C452.097 48.5855 450.813 48.8235 450.813 48.1572C450.813 47.9193 449.1 45.6828 447.006 43.1131L443.152 38.4973L447.244 29.8366C449.528 25.0779 451.479 20.9379 451.621 20.6524C451.717 20.3193 449.195 18.2255 445.96 15.989L440.155 11.8966L432.923 19.0821L425.691 26.3152L421.457 24.6021C419.173 23.6979 416.366 22.6986 415.319 22.4131C413.036 21.7945 413.273 22.7462 412.227 8.94621L411.656 1.47517L409.705 1.18965C407.802 0.951721 398.239 0 397.573 0C397.43 0 396.336 3.4738 395.194 7.70897ZM404.186 35.9276C422.741 38.7352 438.395 51.8214 444.39 69.5235C446.15 74.7104 447.006 79.9448 447.006 85.8931C447.006 97.5993 443.295 108.211 436.063 117.205C429.069 125.913 420.03 131.814 409.134 134.717C403.71 136.192 392.577 136.525 387.058 135.383C367.884 131.481 352.944 117.633 347.806 98.9317C346.093 92.8407 345.665 83.0379 346.807 76.9469C348.853 66.1924 353.801 57.0559 361.746 49.3945C373.165 38.4021 388.533 33.5007 404.186 35.9276Z" fill="white"/>
<path id="roll_left" d="M111.726 51.7376C111.584 52.2134 109.871 58.019 107.873 64.681C105.922 71.2955 104.304 76.7679 104.304 76.8631C104.304 76.9107 102.734 77.101 100.879 77.2914C98.9754 77.4817 95.074 78.1003 92.1717 78.7189C89.317 79.3376 86.9381 79.8134 86.8905 79.7658C86.843 79.7658 83.5601 75.0072 79.5635 69.2493C75.6145 63.4914 72.1889 58.59 71.9986 58.3996C71.7131 58.1141 55.1559 65.2045 54.3947 65.9183C54.2995 66.061 55.6793 71.9141 57.4397 79.052C60.2468 90.1872 60.5798 92.0431 59.9613 92.3762C58.6767 93.09 53.5383 97.0396 50.9215 99.3238C49.5417 100.561 48.0668 101.846 47.6386 102.179C46.9725 102.702 45.1645 102.036 34.8877 97.3252C28.3219 94.3272 22.7552 91.8527 22.5173 91.8527C22.1843 91.8527 12.6687 104.32 11.3841 106.462C11.1462 106.89 13.9533 109.936 20.5191 116.36L29.9871 125.687L28.417 129.113C27.5606 131.016 26.1333 134.585 25.2769 137.06C24.4205 139.534 23.7068 141.628 23.6592 141.723C23.5641 141.818 17.4741 142.389 10.0519 143.055C2.62968 143.722 -3.60306 144.435 -3.74579 144.578C-4.03126 144.911 -6.21985 162.804 -5.98196 162.994C-5.88681 163.042 0.060462 164.564 7.24476 166.42L20.3287 169.751L20.6618 173.273C20.9948 176.556 22.1367 183.123 22.7552 185.407C22.9931 186.311 21.6134 187.406 11.9074 193.925C5.81742 198.065 0.631398 201.587 0.441086 201.777C0.108039 202.062 6.81656 217.576 7.67296 218.527C7.8157 218.718 13.9533 217.29 21.2803 215.339C28.5598 213.388 34.5546 211.818 34.6022 211.913C35.3159 213.055 41.168 220.336 42.9759 222.334L45.4024 225.047L39.3124 236.991L33.1748 248.982L34.6498 250.124C35.4586 250.743 38.9318 253.218 42.3574 255.549L48.5902 259.832L58.4388 250.458C63.8152 245.271 68.6205 241.083 69.0487 241.083C69.4769 241.131 71.4277 241.844 73.3784 242.701C75.3291 243.51 78.6595 244.7 80.753 245.318L84.5592 246.413L84.8447 248.792C85.035 250.077 85.4156 255.882 85.7487 261.64C86.0817 267.446 86.5099 272.395 86.7002 272.68C87.0333 273.251 105.065 274.964 105.541 274.489C105.684 274.346 106.826 270.587 108.158 266.209C113.154 249.22 113.296 248.935 114.438 248.697C115.009 248.602 117.388 248.221 119.672 247.936C122.003 247.602 125.381 246.984 127.189 246.508L130.52 245.699L133.755 250.267C135.515 252.789 138.941 257.691 141.367 261.164C144.983 266.351 145.935 267.446 146.696 267.208C147.886 266.827 162.873 259.927 163.206 259.642C163.349 259.499 162.016 253.741 160.256 246.889C158.543 239.989 157.116 234.231 157.116 234.088C157.116 233.898 158.781 232.518 160.827 231.042C162.825 229.52 165.87 227.045 167.583 225.522L170.676 222.81L175.433 224.951C178.05 226.141 183.569 228.711 187.709 230.614L195.226 234.088L200.935 226.427L206.645 218.718L197.177 209.2L187.661 199.636L189.517 195.829C190.516 193.735 191.895 190.261 192.609 188.072C193.323 185.931 194.036 184.027 194.227 183.932C194.417 183.837 200.602 183.171 208.024 182.504C215.447 181.838 221.584 181.22 221.632 181.172C221.727 181.029 223.487 164.517 223.487 163.518C223.487 162.709 221.775 162.185 210.403 159.235L197.319 155.856L196.748 150.955C196.463 148.242 195.844 144.531 195.464 142.77C195.036 140.962 194.703 139.391 194.703 139.249C194.703 139.153 199.841 135.584 206.121 131.349C212.402 127.162 217.54 123.64 217.54 123.545C217.54 123.498 215.827 119.691 213.734 115.122C210.736 108.508 209.785 106.89 209.119 106.985C208.643 107.08 202.601 108.651 195.702 110.459C188.803 112.315 183.141 113.742 183.046 113.647C182.951 113.552 181.952 112.172 180.762 110.554C179.573 108.984 177.146 106.129 175.386 104.273L172.198 100.847L178.241 89.0452C181.523 82.5258 184.235 77.0059 184.235 76.7203C184.235 76.2445 169.819 66.1562 169.106 66.1562C168.725 66.1562 162.397 72.0569 151.597 82.4783L149.123 84.81L144.079 82.8589C141.32 81.7645 137.656 80.5272 135.991 80.099L132.946 79.29L132.708 76.6252C132.518 75.1976 132.137 69.3445 131.852 63.6817C131.519 57.9714 131.138 53.1176 130.948 52.8796C130.805 52.5941 126.713 52.0707 121.908 51.69C111.203 50.7858 112.012 50.7383 111.726 51.7376ZM125.286 98.4196C151.311 104.558 169.914 123.022 175.243 148.052C176.623 154.476 176.766 165.611 175.529 172.083C170.343 199.921 148.457 221.811 120.243 227.426C98.5472 231.709 75.7573 225.189 60.4371 210.247C55.0132 204.965 51.0642 199.445 47.6386 192.498C44.4509 185.978 42.8332 180.696 41.7865 173.558C38.7891 153.382 46.1637 132.253 61.5314 117.073C71.3325 107.413 84.8923 100.418 98.8327 97.801C104.447 96.8017 119.767 97.1348 125.286 98.4196Z" fill="white"/>
<path id="roll_right" d="M512.833 170.946L510.312 180.939L506.696 181.51C504.698 181.795 501.843 182.366 500.273 182.747C498.75 183.128 497.466 183.413 497.371 183.318C497.323 183.223 494.754 179.654 491.661 175.323C488.616 170.993 485.904 167.281 485.714 167.091C485.191 166.52 472.345 172.754 472.63 173.515C473.106 174.848 478.054 192.645 477.959 192.74C474.581 195.357 471.726 197.737 470.156 199.259L468.158 201.163L459.07 197.023C454.075 194.786 449.84 192.93 449.602 192.93C449.364 192.93 447.414 195.548 445.273 198.688L441.324 204.494L448.603 211.679L455.835 218.865L455.026 221.006C454.55 222.196 453.646 224.861 452.98 226.954C452.314 229.048 451.696 230.857 451.6 230.952C451.505 231.095 446.89 231.618 441.324 232.141L431.237 233.141L430.904 236.948C430.714 239.041 430.476 242.277 430.285 244.133L430 247.512L439.991 250.034L449.983 252.556L450.316 254.745C450.601 256.791 451.505 261.692 452.124 264.31C452.362 265.404 451.696 265.975 444.036 271.4C439.468 274.636 435.757 277.443 435.852 277.634C437.517 281.726 441.799 290.006 442.275 290.006C442.656 290.006 447.128 288.817 452.314 287.341L461.687 284.724L462.876 286.247C463.543 287.103 465.446 289.388 467.111 291.339L470.108 294.812L466.017 303.759C463.78 308.708 461.925 312.895 461.925 313.133C461.925 313.371 464.542 315.37 467.777 317.559L473.582 321.508L480.766 314.037C487.665 306.852 487.998 306.566 489.092 307.185C489.711 307.518 492.47 308.565 495.23 309.517L500.225 311.23L501.177 320.985C501.7 326.315 502.271 330.93 502.461 331.216C502.699 331.549 505.316 331.882 508.885 332.072C512.263 332.263 515.308 332.501 515.736 332.643C516.354 332.786 516.925 331.026 519.019 322.841C521.255 314.132 521.683 312.8 522.539 312.657C523.11 312.562 525.489 312.134 527.821 311.706C530.2 311.277 532.626 310.849 533.292 310.659C534.434 310.421 534.957 311.039 540.191 318.368C543.331 322.746 546.043 326.505 546.186 326.743C546.328 326.981 549.326 325.743 552.847 324.03C557.652 321.651 559.175 320.699 559.079 320.081C558.984 319.652 557.747 315.179 556.32 310.23L553.798 301.189L555.321 299.999C556.13 299.333 558.366 297.477 560.269 295.812C562.172 294.194 563.837 292.861 563.98 292.861C564.123 292.861 568.31 294.717 573.305 296.954C578.301 299.238 582.535 300.856 582.726 300.666C582.916 300.428 584.772 297.81 586.817 294.812L590.529 289.435L583.249 282.155L575.97 274.874L577.682 270.163C578.634 267.593 579.586 264.833 579.823 264.072L580.252 262.644L590.291 261.645C595.857 261.074 600.472 260.55 600.568 260.455C600.805 260.17 601.852 246.608 601.662 246.417C601.567 246.275 597.094 245.085 591.67 243.705L581.917 241.23L581.346 237.566C581.061 235.52 580.49 232.617 580.109 231.142C579.728 229.667 579.586 228.335 579.776 228.144C579.966 227.954 583.582 225.384 587.769 222.434C591.956 219.483 595.572 216.914 595.762 216.723C596.381 216.2 590.1 203.352 589.339 203.637C589.006 203.78 584.867 204.97 580.157 206.254C575.446 207.587 571.259 208.777 570.831 208.872C570.308 209.062 569.642 208.539 568.881 207.349C568.214 206.35 566.311 204.066 564.694 202.305L561.744 199.069L565.836 190.075C568.072 185.079 569.927 180.843 569.927 180.606C569.927 180.368 567.31 178.417 564.17 176.275L558.413 172.373L551.134 179.606L543.854 186.887L541.761 186.03C540.667 185.554 537.907 184.603 535.671 183.889L531.627 182.604L530.675 172.421L529.724 162.237L525.68 161.904C523.443 161.761 520.208 161.476 518.495 161.286L515.355 161L512.833 170.946ZM526.393 197.451C537.431 199.735 548.374 206.54 555.463 215.439C559.032 219.912 563.219 228.049 564.646 233.379C569.499 251.366 564.456 270.02 551.181 283.011C531.579 302.188 499.75 302.046 480.48 282.773C470.489 272.78 465.636 261.169 465.541 247.179C465.446 234.33 469.395 223.671 477.864 213.678C485.238 205.017 497.513 198.403 509.265 196.785C513.69 196.166 521.683 196.499 526.393 197.451Z" fill="white"/>
<path id="roll_mid" d="M288.833 123.946L286.312 133.939L282.696 134.51C280.698 134.795 277.843 135.366 276.273 135.747C274.75 136.128 273.466 136.413 273.371 136.318C273.323 136.223 270.754 132.654 267.661 128.323C264.616 123.993 261.904 120.281 261.714 120.091C261.191 119.52 248.345 125.754 248.63 126.515C249.106 127.848 254.054 145.645 253.959 145.74C250.581 148.357 247.726 150.737 246.156 152.259L244.158 154.163L235.07 150.023C230.075 147.786 225.84 145.93 225.602 145.93C225.364 145.93 223.414 148.548 221.273 151.688L217.324 157.494L224.603 164.679L231.835 171.865L231.026 174.006C230.55 175.196 229.646 177.861 228.98 179.954C228.314 182.048 227.696 183.857 227.6 183.952C227.505 184.095 222.89 184.618 217.324 185.141L207.237 186.141L206.904 189.948C206.714 192.041 206.476 195.277 206.285 197.133L206 200.512L215.991 203.034L225.983 205.556L226.316 207.745C226.601 209.791 227.505 214.692 228.124 217.31C228.362 218.404 227.696 218.975 220.036 224.4C215.468 227.636 211.757 230.443 211.852 230.634C213.517 234.726 217.799 243.006 218.275 243.006C218.656 243.006 223.128 241.817 228.314 240.341L237.687 237.724L238.876 239.247C239.543 240.103 241.446 242.388 243.111 244.339L246.108 247.812L242.017 256.759C239.78 261.708 237.925 265.895 237.925 266.133C237.925 266.371 240.542 268.37 243.777 270.559L249.582 274.508L256.766 267.037C263.665 259.852 263.998 259.566 265.092 260.185C265.711 260.518 268.47 261.565 271.23 262.517L276.225 264.23L277.177 273.985C277.7 279.315 278.271 283.93 278.461 284.216C278.699 284.549 281.316 284.882 284.885 285.072C288.263 285.263 291.308 285.501 291.736 285.643C292.354 285.786 292.925 284.026 295.019 275.841C297.255 267.132 297.683 265.8 298.539 265.657C299.11 265.562 301.489 265.134 303.821 264.706C306.2 264.277 308.626 263.849 309.292 263.659C310.434 263.421 310.957 264.039 316.191 271.368C319.331 275.746 322.043 279.505 322.186 279.743C322.328 279.981 325.326 278.743 328.847 277.03C333.652 274.651 335.175 273.699 335.079 273.081C334.984 272.652 333.747 268.179 332.32 263.23L329.798 254.189L331.321 252.999C332.13 252.333 334.366 250.477 336.269 248.812C338.172 247.194 339.837 245.861 339.98 245.861C340.123 245.861 344.31 247.717 349.305 249.954C354.301 252.238 358.535 253.856 358.726 253.666C358.916 253.428 360.772 250.81 362.817 247.812L366.529 242.435L359.249 235.155L351.97 227.874L353.682 223.163C354.634 220.593 355.586 217.833 355.823 217.072L356.252 215.644L366.291 214.645C371.857 214.074 376.472 213.55 376.568 213.455C376.805 213.17 377.852 199.608 377.662 199.417C377.567 199.275 373.094 198.085 367.67 196.705L357.917 194.23L357.346 190.566C357.061 188.52 356.49 185.617 356.109 184.142C355.728 182.667 355.586 181.335 355.776 181.144C355.966 180.954 359.582 178.384 363.769 175.434C367.956 172.483 371.572 169.914 371.762 169.723C372.381 169.2 366.1 156.352 365.339 156.637C365.006 156.78 360.867 157.97 356.157 159.254C351.446 160.587 347.259 161.777 346.831 161.872C346.308 162.062 345.642 161.539 344.881 160.349C344.214 159.35 342.311 157.066 340.694 155.305L337.744 152.069L341.836 143.075C344.072 138.079 345.927 133.843 345.927 133.606C345.927 133.368 343.31 131.417 340.17 129.275L334.413 125.373L327.134 132.606L319.854 139.887L317.761 139.03C316.667 138.554 313.907 137.603 311.671 136.889L307.627 135.604L306.675 125.421L305.724 115.237L301.68 114.904C299.443 114.761 296.208 114.476 294.495 114.286L291.355 114L288.833 123.946ZM302.393 150.451C313.431 152.735 324.374 159.54 331.463 168.439C335.032 172.912 339.219 181.049 340.646 186.379C345.499 204.366 340.456 223.02 327.181 236.011C307.579 255.188 275.75 255.046 256.48 235.773C246.489 225.78 241.636 214.169 241.541 200.179C241.446 187.33 245.395 176.671 253.864 166.678C261.238 158.017 273.513 151.403 285.265 149.785C289.69 149.166 297.683 149.499 302.393 150.451Z" fill="white"/>
<path id="roll_bottom" d="M379.833 256.946L377.312 266.939L373.696 267.51C371.698 267.795 368.843 268.366 367.273 268.747C365.75 269.128 364.466 269.413 364.371 269.318C364.323 269.223 361.754 265.654 358.661 261.323C355.616 256.993 352.904 253.281 352.714 253.091C352.191 252.52 339.345 258.754 339.63 259.515C340.106 260.848 345.054 278.645 344.959 278.74C341.581 281.357 338.726 283.737 337.156 285.259L335.158 287.163L326.07 283.023C321.075 280.786 316.84 278.93 316.602 278.93C316.364 278.93 314.414 281.548 312.273 284.688L308.324 290.494L315.603 297.679L322.835 304.865L322.026 307.006C321.55 308.196 320.646 310.861 319.98 312.954C319.314 315.048 318.696 316.857 318.6 316.952C318.505 317.095 313.89 317.618 308.324 318.141L298.237 319.141L297.904 322.948C297.714 325.041 297.476 328.277 297.285 330.133L297 333.512L306.991 336.034L316.983 338.556L317.316 340.745C317.601 342.791 318.505 347.692 319.124 350.31C319.362 351.404 318.696 351.975 311.036 357.4C306.468 360.636 302.757 363.443 302.852 363.634C304.517 367.726 308.799 376.006 309.275 376.006C309.656 376.006 314.128 374.817 319.314 373.341L328.687 370.724L329.876 372.247C330.543 373.103 332.446 375.388 334.111 377.339L337.108 380.812L333.017 389.759C330.78 394.708 328.925 398.895 328.925 399.133C328.925 399.371 331.542 401.37 334.777 403.559L340.582 407.508L347.766 400.037C354.665 392.852 354.998 392.566 356.092 393.185C356.711 393.518 359.47 394.565 362.23 395.517L367.225 397.23L368.177 406.985C368.7 412.315 369.271 416.93 369.461 417.216C369.699 417.549 372.316 417.882 375.885 418.072C379.263 418.263 382.308 418.501 382.736 418.643C383.354 418.786 383.925 417.026 386.019 408.841C388.255 400.132 388.683 398.8 389.539 398.657C390.11 398.562 392.489 398.134 394.821 397.706C397.2 397.277 399.626 396.849 400.292 396.659C401.434 396.421 401.957 397.039 407.191 404.368C410.331 408.746 413.043 412.505 413.186 412.743C413.328 412.981 416.326 411.743 419.847 410.03C424.652 407.651 426.175 406.699 426.079 406.081C425.984 405.652 424.747 401.179 423.32 396.23L420.798 387.189L422.321 385.999C423.13 385.333 425.366 383.477 427.269 381.812C429.172 380.194 430.837 378.861 430.98 378.861C431.123 378.861 435.31 380.717 440.305 382.954C445.301 385.238 449.535 386.856 449.726 386.666C449.916 386.428 451.772 383.81 453.817 380.812L457.529 375.435L450.249 368.155L442.97 360.874L444.682 356.163C445.634 353.593 446.586 350.833 446.823 350.072L447.252 348.644L457.291 347.645C462.857 347.074 467.472 346.55 467.568 346.455C467.805 346.17 468.852 332.608 468.662 332.417C468.567 332.275 464.094 331.085 458.67 329.705L448.917 327.23L448.346 323.566C448.061 321.52 447.49 318.617 447.109 317.142C446.728 315.667 446.586 314.335 446.776 314.144C446.966 313.954 450.582 311.384 454.769 308.434C458.956 305.483 462.572 302.914 462.762 302.723C463.381 302.2 457.1 289.352 456.339 289.637C456.006 289.78 451.867 290.97 447.157 292.254C442.446 293.587 438.259 294.777 437.831 294.872C437.308 295.062 436.642 294.539 435.881 293.349C435.214 292.35 433.311 290.066 431.694 288.305L428.744 285.069L432.836 276.075C435.072 271.079 436.927 266.843 436.927 266.606C436.927 266.368 434.31 264.417 431.17 262.275L425.413 258.373L418.134 265.606L410.854 272.887L408.761 272.03C407.667 271.554 404.907 270.603 402.671 269.889L398.627 268.604L397.675 258.421L396.724 248.237L392.68 247.904C390.443 247.761 387.208 247.476 385.495 247.286L382.355 247L379.833 256.946ZM393.393 283.451C404.431 285.735 415.374 292.54 422.463 301.439C426.032 305.912 430.219 314.049 431.646 319.379C436.499 337.366 431.456 356.02 418.181 369.011C398.579 388.188 366.75 388.046 347.48 368.773C337.489 358.78 332.636 347.169 332.541 333.179C332.446 320.33 336.395 309.671 344.864 299.678C352.238 291.017 364.513 284.403 376.265 282.785C380.69 282.166 388.683 282.499 393.393 283.451Z" fill="white"/>
</g>
</svg>
