<svg width="475" height="428" viewBox="0 0 475 428" fill="none" xmlns="http://www.w3.org/2000/svg">
<g filter="url(#filter0_f)">
<path d="M40.5522 5.5H433.052L402.052 95L295.052 151H180.052L87.0522 95L40.5522 5.5Z" fill="#C4C4C4" fill-opacity="0.4"/>
</g>
<circle cx="236.552" cy="196.5" r="74.5" fill="white"/>
<path d="M88.8142 75.5C66.8443 50.6807 50.4809 25.5 40.8142 5.5C24.3142 19.5 21.6516 30.4547 19.8142 49.5C16.7357 81.4093 36.3142 102 58.3142 122C73.9142 140 117.814 156.833 137.814 163C137.981 163.5 138.214 165.7 137.814 170.5C99.3142 162 85.3142 152.5 52.8142 134C26.3142 114 21.8142 108 3.31408 87C2.59102 90.7599 2.09352 92.7669 1.53758 96.5C0.613793 102.703 0.153786 112.5 0.153786 112.5C0.153786 112.5 -0.192233 120.131 0.153786 125C0.446955 129.126 0.685559 131.453 1.53758 135.5C8.40461 168.119 48.3141 182.5 66.8141 190.5C81.2141 197.7 114.814 204.5 129.814 207V212.5C101.814 209.5 122.314 215 66.8141 200C15.8141 177.5 30.8141 183.5 1.31408 160C1.81408 188.5 0.890344 194.693 12.8141 211.5C25.7252 229.699 44.541 234.925 62.4254 239.892L62.8141 240C79.2141 246.4 117.314 247 134.314 246.5V253C128.481 253.5 110.914 254.3 87.3141 253.5C48.8141 250 33.8141 241.5 12.8141 229C13.8141 239 27.3141 286 63.8141 290C93.0141 293.2 132.647 286.333 148.814 282.5C149.314 283.5 150.614 286.2 151.814 289C115.814 300.5 94.8141 300.5 51.8141 300.5C74.8141 330 79.2843 328.661 102.314 332.5C129.419 337.018 155.814 318 169.314 311L174.314 315C172.647 316.167 168.514 319 165.314 321C148.314 332 130.314 337 96.3141 346C112.814 363 124.742 365.099 144.814 363.5C167.015 361.731 185.147 343.5 193.314 333.5L198.314 336.5C198.147 336.833 197.614 338.2 196.814 341C189.314 359.5 152.814 374.5 140.814 377.5C143.314 379 144.814 380 154.314 385L154.471 385.059C170.319 391.002 171.118 391.302 181.814 389.5C200.472 386.357 212.314 365 216.814 356L223.814 359C223.481 359.833 220.288 370.404 216.553 377C209.103 390.153 197.814 397 189.314 404.5C194.814 409.5 216.856 427.895 237.814 427.5C258.42 427.112 282.814 407 284.814 403.5C281.314 402 270.386 390.884 263.314 381C257.719 373.18 254.314 365.333 251.314 359.5C251.481 359.333 252.814 358.5 256.814 356.5C258.314 359 263.314 367 275.814 380C285.814 389.2 296.314 390.5 300.314 390C315.814 389 320.814 384.5 332.814 377C310.814 371 312.814 371 296.314 360.5C286.314 351.3 278.481 341.667 275.814 338L280.814 333.5L282.314 335C282.314 335 290.914 344.7 303.314 353.5C318.814 364.5 340.814 364.5 349.814 363.5C357.014 362.7 365.148 357.833 368.314 355.5C378.314 347 376.814 347.5 378.314 345C366.314 342.5 374.814 344.5 365.814 342.5C340.314 336.5 347.814 338 331.814 332C307.014 320.4 301.148 315.833 301.314 315C301.814 314.667 303.314 313.5 305.314 311.5C317.814 318 335.314 324.5 353.314 330.5C372.127 333.965 376.457 335.226 390.004 330.559C396.97 328.159 400.455 326.106 406.552 321.5C415.069 315.067 417.314 308.5 422.814 300C383.314 301.5 393.314 301 366.814 298C348.814 296.8 330.648 291.167 323.814 288.5L325.814 284C359.014 290 387.981 291.167 398.314 291C423.314 290 426.38 286.713 439.314 275.5C452.975 263.657 457.481 246.167 460.814 234.5L461.814 228.5L460.814 229C434.314 244.5 433.814 244 413.314 249C388.114 255 353.814 253.833 339.814 252.5V248C344.314 247.667 386.814 245.5 386.814 245.5C386.814 245.5 421.552 242 441.314 229C460.871 216.135 470.981 191.333 472.814 178V160L472.314 160.5C468.481 165.833 454.814 179.1 430.814 189.5C400.814 202.5 410.814 197.5 393.314 204C379.314 209.2 354.148 211.833 343.314 212.5V208.5C365.481 204.167 414.614 192.2 433.814 179C457.814 162.5 460.917 159.91 468.814 141.5C477.21 121.927 474.314 104.5 470.814 87C462.314 106.5 419.314 136 393.314 150C372.514 161.2 347.719 167.333 337.052 168.5C336.436 167.961 337.052 168.5 336.552 165.5C345.052 160 376.105 151.29 397.814 136C419.037 121.052 434.688 113.184 445.314 89.5C449.311 80.5924 452.052 60.5 452.052 60.5C452.052 60.5 452.53 35.1683 445.314 21.5C441.54 14.3511 432.814 5 432.814 5C418.814 45 396.158 66.7426 363.314 98C339.042 121.1 311.052 138 293.552 149C301.052 160.5 304.551 164.854 307.552 176C311.052 189 311.283 196.898 309.052 210C307.207 220.838 305.552 225.5 300.052 235C296.794 240.627 294.823 243.1 290.552 247.5C287.661 250.479 282.552 254.5 282.552 254.5C280.751 255.928 278.681 257.315 275.552 259C269.342 262.344 261.314 261.5 256.314 258.5C238.314 243 246.814 226.5 250.814 219.5C258.314 210.5 265.314 211 278.314 211.5C273.314 194 265.314 191.5 250.814 180.5C235.314 171 229.814 165.5 218.814 155C212.814 166 211.024 169.709 214.814 178C217.756 184.435 226.814 188.5 228.814 189.5C230.814 190.5 230.814 190 231.814 193C222.314 199 210.314 208 204.314 223.5C198.314 239 200.314 238.5 200.314 260C191.345 254.511 184.49 248.162 179.28 241.5C172.999 233.469 169.109 224.983 166.784 217C163.834 206.871 163.405 197.552 163.814 191C164.449 180.838 166.345 175.982 169.934 167C172.973 159.394 175.436 156.527 179.814 148.5C138.314 127 119.012 109.614 88.8142 75.5Z" fill="#555759"/>
<defs>
<filter id="filter0_f" x="35.5522" y="0.5" width="402.5" height="155.5" filterUnits="userSpaceOnUse" color-interpolation-filters="sRGB">
<feFlood flood-opacity="0" result="BackgroundImageFix"/>
<feBlend mode="normal" in="SourceGraphic" in2="BackgroundImageFix" result="shape"/>
<feGaussianBlur stdDeviation="2.5" result="effect1_foregroundBlur"/>
</filter>
</defs>
</svg>
