<svg width="64" height="58" viewBox="0 0 64 58" fill="none" xmlns="http://www.w3.org/2000/svg">
    <path d="M11.9847 9.51334C9.02003 6.1642 6.81194 2.76629 5.50751 0.0674705C3.28098 1.95664 2.92169 3.43489 2.67375 6.00487C2.25834 10.3108 4.90028 13.0893 7.86898 15.7881C9.97405 18.217 15.898 20.4885 18.5968 21.3207C18.6193 21.3881 18.6508 21.685 18.5968 22.3327C13.4016 21.1857 11.5124 19.9038 7.1268 17.4074C3.55087 14.7086 2.94363 13.8989 0.447205 11.0652C0.349635 11.5725 0.282501 11.8433 0.207483 12.3471C0.0828258 13.1842 0.020752 14.5062 0.020752 14.5062C0.020752 14.5062 -0.02594 15.5358 0.020752 16.1929C0.0603125 16.7496 0.09251 17.0637 0.207483 17.6098C1.13413 22.0115 6.51955 23.952 9.01595 25.0315C10.9591 26.0031 15.4931 26.9207 17.5172 27.2581V28.0002C13.7389 27.5954 16.5052 28.3376 9.01595 26.3135C2.13397 23.2773 4.15808 24.087 0.177323 20.9158C0.244793 24.7617 0.120144 25.5973 1.72914 27.8653C3.47138 30.3211 6.0104 31.0263 8.42373 31.6966L8.47619 31.7111C10.6892 32.5747 15.8305 32.6557 18.1245 32.5882V33.4654C17.3373 33.5328 14.9668 33.6408 11.7822 33.5328C6.58702 33.0605 4.5629 31.9135 1.72914 30.2268C1.86408 31.5762 3.68579 37.9184 8.61113 38.4582C12.5514 38.89 17.8996 37.9634 20.0811 37.4461C20.1486 37.5811 20.324 37.9454 20.4859 38.3232C15.6281 39.875 12.7943 39.875 6.99184 39.875C10.0955 43.8558 10.6987 43.6752 13.8064 44.1932C17.464 44.8028 21.0257 42.2365 22.8474 41.2919L23.5221 41.8317C23.2972 41.9891 22.7394 42.3715 22.3076 42.6413C20.0136 44.1257 17.5847 44.8004 12.9967 46.0149C15.2232 48.3089 16.8328 48.5921 19.5413 48.3763C22.5371 48.1376 24.984 45.6775 26.086 44.3281L26.7607 44.7329C26.7382 44.7779 26.6662 44.9623 26.5583 45.3402C25.5462 47.8366 20.6209 49.8607 19.0016 50.2655C19.3389 50.4679 19.5413 50.6029 20.8233 51.2776L20.8444 51.2855C22.983 52.0875 23.0908 52.1279 24.5342 51.8848C27.0518 51.4607 28.6499 48.5787 29.2571 47.3643L30.2017 47.7691C30.1567 47.8815 29.7259 49.308 29.2218 50.198C28.2166 51.9729 26.6932 52.8969 25.5462 53.9089C26.2884 54.5836 29.2627 57.0658 32.0909 57.0126C34.8714 56.9602 38.1632 54.2463 38.4331 53.774C37.9608 53.5716 36.4861 52.0716 35.5318 50.7378C34.7769 49.6825 34.3174 48.6237 33.9126 47.8366C33.9351 47.8141 34.115 47.7016 34.6547 47.4317C34.8571 47.7691 35.5318 48.8486 37.2186 50.6029C38.568 51.8443 39.9849 52.0197 40.5247 51.9523C42.6163 51.8173 43.291 51.2101 44.9103 50.198C41.9416 49.3884 42.2114 49.3884 39.9849 47.9715C38.6355 46.73 37.5785 45.4301 37.2186 44.9353L37.8933 44.3281L38.0957 44.5305C38.0957 44.5305 39.2562 45.8394 40.9295 47.0269C43.0211 48.5113 45.9898 48.5113 47.2043 48.3763C48.1758 48.2684 49.2733 47.6117 49.7007 47.2968C51.0501 46.1498 50.8477 46.2173 51.0501 45.8799C49.4308 45.5426 50.5778 45.8125 49.3633 45.5426C45.9223 44.7329 46.9344 44.9353 44.7753 44.1257C41.4288 42.5604 40.6371 41.9441 40.6596 41.8317C40.7271 41.7867 40.9295 41.6293 41.1994 41.3594C42.8861 42.2365 45.2476 43.1136 47.6765 43.9233C50.2151 44.3909 50.7995 44.5611 52.6276 43.9312C53.5675 43.6074 54.0378 43.3303 54.8605 42.7088C56.0097 41.8407 56.3128 40.9546 57.0549 39.8076C51.7248 40.01 53.0742 39.9425 49.4982 39.5377C47.0693 39.3758 44.6179 38.6156 43.6958 38.2558L43.9657 37.6485C48.4457 38.4582 52.3545 38.6156 53.7489 38.5931C57.1224 38.4582 57.5362 38.0146 59.2815 36.5015C61.1248 34.9034 61.7329 32.5433 62.1827 30.9689L62.3176 30.1593L62.1827 30.2268C58.6068 32.3184 58.5393 32.2509 55.773 32.9256C52.3725 33.7352 47.744 33.5778 45.8548 33.3979V32.7907C46.4621 32.7457 52.1971 32.4533 52.1971 32.4533C52.1971 32.4533 56.8847 31.981 59.5513 30.2268C62.1904 28.4907 63.5546 25.144 63.802 23.3448V20.9158L63.7345 20.9833C63.2172 21.703 61.3731 23.4932 58.1345 24.8966C54.0862 26.6508 55.4356 25.9761 53.0742 26.8532C51.185 27.5549 47.789 27.9103 46.3271 28.0002V27.4605C49.3183 26.8757 55.9484 25.2609 58.5393 23.4797C61.7779 21.2532 62.1966 20.9037 63.2622 18.4194C64.3952 15.7782 64.0044 13.4266 63.5321 11.0652C62.3851 13.6965 56.5826 17.6773 53.0742 19.5664C50.2674 21.0778 46.9215 21.9054 45.4822 22.0628C45.399 21.9901 45.4822 22.0628 45.4147 21.658C46.5617 20.9158 50.752 19.7406 53.6814 17.6773C56.5453 15.6602 58.6572 14.5985 60.0911 11.4025C60.6304 10.2005 61.0004 7.48922 61.0004 7.48922C61.0004 7.48922 61.0648 4.07093 60.0911 2.22653C59.5818 1.26185 58.4044 0 58.4044 0C56.5152 5.39764 53.4579 8.33161 49.026 12.5495C45.7506 15.6667 41.9737 17.9471 39.6122 19.4315C40.6243 20.9833 41.0965 21.5708 41.5014 23.0749C41.9737 24.8291 42.0049 25.8949 41.7038 27.6629C41.4548 29.1254 41.2315 29.7545 40.4894 31.0364C40.0497 31.7958 39.7836 32.1295 39.2074 32.7232C38.8173 33.1252 38.1279 33.6678 38.1279 33.6678C37.8849 33.8604 37.6055 34.0477 37.1833 34.275C36.3452 34.7263 35.262 34.6124 34.5873 34.2075C32.1583 32.1159 33.3053 29.8894 33.8451 28.9448C34.8572 27.7304 35.8017 27.7978 37.556 27.8653C36.8813 25.5038 35.8018 25.1665 33.8451 23.6821C31.7535 22.4002 31.0113 21.658 29.527 20.2411C28.7174 21.7255 28.4757 22.2259 28.9872 23.3448C29.3842 24.2131 30.6065 24.7617 30.8764 24.8966C31.1463 25.0315 31.1463 24.9641 31.2812 25.3689C29.9993 26.1785 28.38 27.393 27.5704 29.4846C26.7607 31.5762 27.0306 31.5087 27.0306 34.4099C25.8202 33.6693 24.8953 32.8125 24.1922 31.9135C23.3447 30.8298 22.8197 29.6847 22.5059 28.6075C22.1079 27.2407 22.05 25.9832 22.1052 25.099C22.191 23.7277 22.4467 23.0725 22.931 21.8604C23.3411 20.8341 23.6735 20.4472 24.2643 19.364C18.6643 16.4628 16.0596 14.1167 11.9847 9.51334Z" fill="black"/>
</svg>
