<svg width="483" height="460" viewBox="0 0 483 460" fill="none" xmlns="http://www.w3.org/2000/svg">
<path d="M420.778 3C420.778 3 428.578 69.8723 430.513 112.925C432.515 157.472 430.513 182.518 430.513 227.11C430.513 270.751 432.37 295.259 430.513 338.861C428.626 383.18 420.778 452.031 420.778 452.031" stroke="#EEEEEE" stroke-width="5" stroke-linecap="round" stroke-linejoin="round"/>
<path d="M222.02 3.6084C222.02 3.6084 229.819 70.4807 231.755 113.534C233.757 158.081 231.755 183.126 231.755 227.718C231.755 271.36 233.611 295.867 231.755 339.469C229.867 383.788 222.02 452.639 222.02 452.639" stroke="#EEEEEE" stroke-width="5" stroke-linecap="round" stroke-linejoin="round"/>
<path d="M361.556 4.82544C361.556 4.82544 369.356 71.6978 371.291 114.751C373.294 159.298 371.291 184.344 371.291 228.935C371.291 272.577 373.148 297.084 371.291 340.686C369.404 385.005 361.556 453.857 361.556 453.857" stroke="#EEEEEE" stroke-width="5" stroke-linecap="round" stroke-linejoin="round"/>
<path d="M162.798 5.43384C162.798 5.43384 170.598 72.3062 172.533 115.359C174.535 159.906 172.533 184.952 172.533 229.544C172.533 273.185 174.39 297.693 172.533 341.294C170.646 385.613 162.798 454.465 162.798 454.465" stroke="#EEEEEE" stroke-width="5" stroke-linecap="round" stroke-linejoin="round"/>
<path d="M284.486 7.66479C284.486 7.66479 292.286 74.5371 294.221 117.59C296.224 162.137 294.221 187.183 294.221 231.775C294.221 275.416 296.078 299.924 294.221 343.525C292.334 387.844 284.486 456.696 284.486 456.696" stroke="#EEEEEE" stroke-width="5" stroke-linecap="round" stroke-linejoin="round"/>
<path d="M85.7285 8.27319C85.7285 8.27319 93.5284 75.1455 95.4636 118.199C97.4659 162.745 95.4636 187.791 95.4636 232.383C95.4636 276.024 97.3202 300.532 95.4636 344.134C93.5765 388.453 85.7285 457.304 85.7285 457.304" stroke="#EEEEEE" stroke-width="5" stroke-linecap="round" stroke-linejoin="round"/>
<path d="M25.6953 69.8047C25.6953 69.8047 92.5676 62.0048 135.621 60.0696C180.168 58.0673 205.213 60.0696 249.805 60.0696C293.447 60.0696 317.954 58.213 361.556 60.0696C405.875 61.9567 474.726 69.8047 474.726 69.8047" stroke="#EEEEEE" stroke-width="5" stroke-linecap="round" stroke-linejoin="round"/>
<path d="M26.3037 268.563C26.3037 268.563 93.176 260.763 136.229 258.828C180.776 256.825 205.822 258.828 250.414 258.828C294.055 258.828 318.562 256.971 362.164 258.828C406.483 260.715 475.335 268.563 475.335 268.563" stroke="#EEEEEE" stroke-width="5" stroke-linecap="round" stroke-linejoin="round"/>
<path d="M27.5205 129.026C27.5205 129.026 94.3928 121.226 137.446 119.291C181.993 117.289 207.039 119.291 251.63 119.291C295.272 119.291 319.779 117.435 363.381 119.291C407.7 121.178 476.552 129.026 476.552 129.026" stroke="#EEEEEE" stroke-width="5" stroke-linecap="round" stroke-linejoin="round"/>
<path d="M28.1289 327.784C28.1289 327.784 95.0012 319.985 138.054 318.049C182.601 316.047 207.647 318.049 252.239 318.049C295.88 318.049 320.388 316.193 363.99 318.049C408.308 319.936 477.16 327.784 477.16 327.784" stroke="#EEEEEE" stroke-width="5" stroke-linecap="round" stroke-linejoin="round"/>
<path d="M30.3599 206.096C30.3599 206.096 97.2322 198.296 140.285 196.361C184.832 194.359 209.878 196.361 254.47 196.361C298.111 196.361 322.619 194.504 366.221 196.361C410.539 198.248 479.391 206.096 479.391 206.096" stroke="#EEEEEE" stroke-width="5" stroke-linecap="round" stroke-linejoin="round"/>
<path d="M30.9683 404.854C30.9683 404.854 97.8406 397.054 140.894 395.119C185.441 393.117 210.486 395.119 255.078 395.119C298.72 395.119 323.227 393.262 366.829 395.119C411.148 397.006 479.999 404.854 479.999 404.854" stroke="#EEEEEE" stroke-width="5" stroke-linecap="round" stroke-linejoin="round"/>
<path d="M40.2984 233.438C49.06 233.438 57.8216 233.438 66.5426 233.438C67.3133 233.438 67.3133 232.221 66.5426 232.221C57.781 232.221 49.0194 232.221 40.2984 232.221C39.4871 232.221 39.4871 233.438 40.2984 233.438Z" fill="#CDCDCD"/>
<path d="M41.2718 232.586C45.896 224.96 50.8447 217.537 56.0367 210.317C55.6717 210.317 55.3472 210.317 54.9821 210.317C59.2818 217.578 63.0541 225.163 66.218 232.992C66.502 233.722 67.6783 233.397 67.3943 232.667C64.1899 224.757 60.377 217.091 56.0367 209.708C55.7933 209.303 55.266 209.343 54.9821 209.708C49.7901 216.929 44.8414 224.352 40.2172 231.977C39.8116 232.667 40.8662 233.275 41.2718 232.586Z" fill="#CDCDCD"/>
<path d="M41.515 245.525C49.7087 245.525 57.943 245.525 66.1367 245.525C66.9074 245.525 66.9074 244.309 66.1367 244.309C57.943 244.309 49.7087 244.309 41.515 244.309C40.7443 244.309 40.7443 245.525 41.515 245.525Z" fill="#CDCDCD"/>
<path d="M41.4744 245.566C44.76 252.786 48.6135 259.682 53.0754 266.212C53.3593 266.618 53.8461 266.577 54.13 266.212C58.8353 260.047 62.8916 253.394 66.2989 246.418C66.6234 245.728 65.5687 245.079 65.2442 245.809C61.8775 252.827 57.8212 259.438 53.0754 265.604C53.4404 265.604 53.7649 265.604 54.13 265.604C49.6681 259.073 45.8146 252.178 42.529 244.957C42.2045 244.268 41.1904 244.876 41.4744 245.566Z" fill="#CDCDCD"/>
<path d="M39.2435 299.88C48.5324 299.88 57.7808 299.88 67.0697 299.88C67.8404 299.88 67.8404 298.663 67.0697 298.663C57.7808 298.663 48.5324 298.663 39.2435 298.663C38.4729 298.663 38.4729 299.88 39.2435 299.88Z" fill="#CDCDCD"/>
<path d="M40.2577 299.028C45.1658 291.402 50.3984 283.979 55.915 276.759C55.5499 276.759 55.2254 276.759 54.8603 276.759C59.4439 284.06 63.4191 291.646 66.8264 299.555C67.1509 300.285 68.1649 299.636 67.881 298.947C64.4737 291.037 60.4986 283.411 55.915 276.151C55.6716 275.745 55.1443 275.785 54.8603 276.151C49.3438 283.371 44.1517 290.794 39.203 298.42C38.7974 299.069 39.8521 299.718 40.2577 299.028Z" fill="#CDCDCD"/>
<path d="M39.1221 341.173C48.411 341.173 57.6594 341.173 66.9483 341.173C67.7189 341.173 67.7189 339.956 66.9483 339.956C57.6594 339.956 48.411 339.956 39.1221 339.956C38.3109 339.956 38.3109 341.173 39.1221 341.173Z" fill="#CDCDCD"/>
<path d="M40.1361 340.321C45.0442 332.695 50.2768 325.272 55.7934 318.052C55.4283 318.052 55.1038 318.052 54.7387 318.052C59.3223 325.353 63.2975 332.939 66.7048 340.848C67.0293 341.578 68.0433 340.929 67.7594 340.24C64.3521 332.33 60.377 324.704 55.7934 317.444C55.55 317.038 55.0227 317.078 54.7387 317.444C49.2222 324.664 44.0301 332.087 39.0814 339.713C38.6352 340.362 39.6899 340.97 40.1361 340.321Z" fill="#CDCDCD"/>
<path d="M74.006 220.579C77.9001 218.186 81.9969 221.35 85.7693 222.445C89.4199 223.5 92.7461 222.242 96.2345 221.228C100.778 219.93 104.631 221.228 109.052 222.161C113.149 223.054 117.287 223.378 121.465 223.216C122.235 223.175 122.235 221.959 121.465 221.999C116.759 222.161 112.135 221.675 107.592 220.579C103.536 219.565 100.007 218.916 95.91 220.052C93.8413 220.661 91.7726 221.472 89.5822 221.634C87.1484 221.837 84.958 220.904 82.7676 219.971C79.766 218.714 76.3992 217.699 73.3976 219.525C72.708 219.93 73.3164 220.985 74.006 220.579Z" fill="#CDCDCD"/>
<path d="M131.078 222.324C132.579 222.324 134.039 222.324 135.54 222.324C136.311 222.324 136.311 221.107 135.54 221.107C134.039 221.107 132.579 221.107 131.078 221.107C130.307 221.107 130.307 222.324 131.078 222.324Z" fill="#CDCDCD"/>
<path d="M105.158 229.3C110.959 226.664 117.165 229.544 123.087 230.071C125.926 230.314 128.401 229.828 131.037 228.895C133.674 227.962 137.365 226.664 139.393 229.422C139.839 230.03 140.894 229.422 140.448 228.813C139.109 226.988 136.959 226.339 134.769 226.583C131.2 226.948 128.279 228.976 124.547 228.935C117.773 228.854 111.161 225.244 104.509 228.246C103.82 228.57 104.428 229.625 105.158 229.3Z" fill="#CDCDCD"/>
<path d="M74.047 254.936C76.3996 253.151 79.1579 252.097 82.119 252.097C85.0395 252.097 87.7167 253.232 90.3533 254.368C94.9774 256.315 99.1554 257.126 104.023 255.585C108.728 254.125 112.947 251.448 117.774 250.393C123.98 249.054 130.064 251.488 135.703 253.881C136.433 254.165 136.757 252.989 136.027 252.705C130.754 250.515 125.116 248.203 119.315 248.933C113.961 249.582 109.337 252.583 104.307 254.246C101.549 255.179 98.7092 255.626 95.8293 255.017C93.0304 254.409 90.475 253.03 87.8384 252.056C82.8897 250.231 77.6977 250.677 73.4385 253.922C72.8301 254.368 73.4385 255.423 74.047 254.936Z" fill="#CDCDCD"/>
<path d="M114.974 260.696C118.301 259.073 121.992 258.424 125.683 258.992C128.928 259.479 131.889 260.939 135.053 261.832C141.503 263.657 148.277 262.643 154.686 261.223C155.456 261.061 155.132 259.885 154.361 260.047C150.467 260.899 146.532 261.629 142.557 261.588C138.866 261.588 135.499 260.737 132.051 259.52C126.008 257.41 120.329 256.761 114.407 259.641C113.676 259.966 114.285 261.02 114.974 260.696Z" fill="#CDCDCD"/>
<path d="M76.6019 286.048C80.496 279.963 88.8114 284.385 93.76 286.21C96.5994 287.224 99.4388 287.751 102.44 287.143C105.199 286.575 107.754 285.196 110.269 283.938C113.23 282.478 116.232 281.302 119.599 281.302C122.844 281.302 126.008 282.154 129.09 283.168C134.729 284.952 140.286 287.305 146.33 286.899C147.1 286.859 147.1 285.642 146.33 285.683C139.556 286.129 133.39 283.046 127.022 281.261C124.02 280.45 120.897 279.882 117.814 280.207C114.934 280.491 112.297 281.667 109.701 282.924C106.578 284.425 103.373 286.21 99.8445 286.25C96.0315 286.291 92.5837 284.344 89.1359 283.046C84.6739 281.383 78.5895 280.896 75.669 285.48C75.1417 286.088 76.1963 286.697 76.6019 286.048Z" fill="#CDCDCD"/>
<path d="M120.004 293.106C123.979 292.173 128.036 291.24 132.132 291.199C136.189 291.159 139.799 292.294 143.531 293.674C150.305 296.107 157.038 296.919 164.055 295.134C164.826 294.931 164.502 293.755 163.731 293.957C159.756 294.972 155.659 295.215 151.603 294.647C147.952 294.12 144.585 292.7 141.097 291.524C133.877 289.13 126.9 290.266 119.639 291.929C118.949 292.092 119.274 293.268 120.004 293.106Z" fill="#CDCDCD"/>
<path d="M73.7222 329.004C76.2777 326.529 79.8472 325.312 83.3762 325.961C86.2967 326.529 88.8116 328.233 91.651 329.044C97.2892 330.626 102.765 328.152 107.876 326.002C114.163 323.365 120.41 322.189 127.265 322.757C134.283 323.325 141.097 325.231 147.871 327.178C148.642 327.381 148.966 326.205 148.196 326.002C141.341 324.014 134.404 322.108 127.265 321.54C120.329 320.972 113.961 322.189 107.552 324.826C104.509 326.083 101.467 327.462 98.1816 328.071C94.3282 328.76 91.1642 327.665 87.6758 326.164C82.4838 323.933 77.0889 324.014 72.8704 328.152C72.3025 328.72 73.1543 329.572 73.7222 329.004Z" fill="#CDCDCD"/>
<path d="M124.183 333.75C132.174 329.734 140.57 334.804 148.236 337.157C155.822 339.469 163.934 339.388 171.479 337.076C172.209 336.833 171.925 335.656 171.154 335.9C162.433 338.577 153.591 337.928 145.113 334.764C138.258 332.208 130.673 329.085 123.574 332.655C122.844 333.06 123.453 334.074 124.183 333.75Z" fill="#CDCDCD"/>
<path d="M204.943 43.6036C232.12 43.6036 259.338 43.6036 286.515 43.6036C287.286 43.6036 287.286 42.3867 286.515 42.3867C259.338 42.3867 232.12 42.3867 204.943 42.3867C204.173 42.3867 204.173 43.6036 204.943 43.6036Z" fill="#CDCDCD"/>
<path d="M233.662 55.4071C255.2 55.4071 276.739 55.4071 298.319 55.4071C299.089 55.4071 299.089 54.1902 298.319 54.1902C276.78 54.1902 255.241 54.1902 233.662 54.1902C232.891 54.1902 232.891 55.4071 233.662 55.4071Z" fill="#CDCDCD"/>
<path d="M278.159 348.88C272.926 358.128 267.653 367.376 262.42 376.625C262.015 377.314 263.069 377.923 263.475 377.233C268.708 367.985 273.981 358.737 279.213 349.488C279.578 348.799 278.524 348.19 278.159 348.88Z" fill="#CDCDCD"/>
<path d="M278.443 350.705C282.134 359.71 285.825 368.674 289.516 377.679C289.8 378.41 290.977 378.085 290.693 377.355C287.002 368.35 283.31 359.386 279.619 350.381C279.295 349.65 278.118 349.975 278.443 350.705Z" fill="#CDCDCD"/>
<path d="M262.907 378.937C271.669 378.693 280.43 378.734 289.192 379.14C289.963 379.18 289.963 377.963 289.192 377.923C280.43 377.517 271.669 377.436 262.907 377.72C262.096 377.76 262.096 378.977 262.907 378.937Z" fill="#CDCDCD"/>
<path d="M299.454 365.227C305.458 364.902 311.339 366.078 317.302 366.443C323.022 366.808 328.011 365.794 333.365 363.847C336.042 362.874 338.719 361.86 341.559 361.535C344.398 361.211 347.197 361.819 349.915 362.549C354.498 363.807 359.285 365.51 363.909 363.604C364.639 363.32 364.315 362.144 363.584 362.428C358.473 364.496 353.281 362.022 348.292 360.886C343.1 359.669 338.598 360.643 333.69 362.428C331.134 363.361 328.619 364.334 325.942 364.821C322.981 365.389 319.939 365.389 316.937 365.186C311.096 364.78 305.336 363.685 299.454 364.01C298.684 364.05 298.684 365.267 299.454 365.227Z" fill="#CDCDCD"/>
<path d="M329.511 376.503C342.289 371.392 355.999 379.707 368.979 375.611C369.709 375.367 369.425 374.191 368.655 374.434C355.675 378.491 342.005 370.175 329.187 375.327C328.457 375.611 328.781 376.787 329.511 376.503Z" fill="#CDCDCD"/>
<path d="M357.419 78.8526C351.172 86.8841 345.696 95.4429 341.032 104.488C340.667 105.178 341.721 105.786 342.086 105.097C346.711 96.1324 352.105 87.6548 358.271 79.7045C358.758 79.096 357.906 78.2442 357.419 78.8526Z" fill="#CDCDCD"/>
<path d="M357.987 79.745C363.828 87.8171 369.263 96.173 374.333 104.732C374.739 105.421 375.794 104.813 375.388 104.123C370.318 95.524 364.882 87.2086 359.041 79.1366C358.555 78.4876 357.5 79.096 357.987 79.745Z" fill="#CDCDCD"/>
<path d="M341.681 106.192C352.592 106.638 363.504 106.395 374.415 105.462C375.186 105.381 375.186 104.164 374.415 104.245C363.544 105.218 352.592 105.462 341.681 104.975C340.869 104.934 340.869 106.151 341.681 106.192Z" fill="#CDCDCD"/>
<path d="M127.549 383.155C140.813 383.155 154.077 383.155 167.301 383.155C168.072 383.155 168.072 381.938 167.301 381.938C154.037 381.938 140.773 381.938 127.549 381.938C126.779 381.938 126.779 383.155 127.549 383.155Z" fill="#CDCDCD"/>
<path d="M126.494 383.804C130.307 388.915 134.161 394.026 137.974 399.137C139.88 401.693 141.786 404.248 143.733 406.803C144.626 408.02 146.127 411.103 148.033 410.657C148.642 410.495 148.966 410.048 149.291 409.521C150.102 408.345 150.751 406.966 151.522 405.749C153.063 403.234 154.645 400.76 156.308 398.366C159.715 393.377 163.447 388.591 167.422 384.007C167.95 383.399 167.057 382.547 166.57 383.155C159.918 390.862 153.955 399.178 148.804 408.02C148.398 408.71 148.195 409.602 146.978 409.116C146.451 408.913 145.802 407.615 145.478 407.169C144.585 405.992 143.733 404.816 142.841 403.64C141.178 401.409 139.474 399.178 137.811 396.947C134.363 392.363 130.956 387.779 127.508 383.196C127.103 382.587 126.048 383.196 126.494 383.804Z" fill="#CDCDCD"/>
<path d="M239.259 247.067C234.716 255.179 230.173 263.251 225.63 271.364C225.265 272.053 226.279 272.662 226.685 271.972C231.228 263.86 235.771 255.788 240.314 247.675C240.679 246.986 239.665 246.377 239.259 247.067Z" fill="#CDCDCD"/>
<path d="M239.584 248.405C244.614 256.112 248.954 264.225 252.605 272.703C252.929 273.433 253.943 272.784 253.659 272.094C250.049 263.617 245.668 255.504 240.639 247.797C240.192 247.148 239.138 247.756 239.584 248.405Z" fill="#CDCDCD"/>
<path d="M229.971 273.108C237.353 273.108 244.776 273.108 252.158 273.108C252.929 273.108 252.929 271.891 252.158 271.891C244.776 271.891 237.353 271.891 229.971 271.891C229.2 271.891 229.2 273.108 229.971 273.108Z" fill="#CDCDCD"/>
<path d="M160.445 27.3378C162.879 22.5919 169.815 26.7699 173.426 27.3783C175.21 27.6623 177.117 27.6217 178.618 26.5265C179.51 25.8775 179.956 24.904 180.686 24.1333C181.944 22.7947 183.566 22.5919 185.31 22.9976C189.61 23.9711 193.585 29.1225 198.331 27.0538C200.765 25.9992 202.225 24.2144 205.065 24.0116C207.863 23.8088 210.541 24.8634 212.447 26.8916C212.974 27.4595 213.867 26.6076 213.299 26.0398C210.135 22.7136 204.821 21.7401 200.765 24.0522C199.386 24.8229 198.331 25.9992 196.668 26.2426C194.762 26.5265 192.977 25.5936 191.395 24.7012C189.123 23.4032 186.974 21.8618 184.256 21.6184C181.944 21.4156 180.484 22.4297 179.104 24.1739C176.711 27.2567 173.507 26.4454 170.262 25.3096C166.814 24.0927 161.46 22.6325 159.35 26.7699C159.026 27.4189 160.08 28.0273 160.445 27.3378Z" fill="#828282"/>
<path d="M0.91178 185.979C5.90101 183.221 9.3083 194.213 14.7843 191.049C16.9341 189.792 16.6096 186.709 18.8 185.492C21.1527 184.194 24.3977 185.411 26.5881 186.506C30.6849 188.575 35.593 190.968 39.1626 186.709C41.3124 184.113 42.9755 180.463 46.7884 183.18C49.141 184.843 51.4937 185.857 54.4142 186.182C55.1849 186.263 55.1849 185.046 54.4142 184.965C52.5078 184.762 50.6824 184.194 49.0194 183.221C47.9242 182.572 46.9506 181.558 45.7338 181.112C43.4622 180.26 41.4341 181.72 40.055 183.424C37.8646 186.101 36.4449 188.697 32.4291 187.764C29.6303 187.115 27.3182 185.249 24.5599 184.397C22.694 183.789 20.5037 183.464 18.6378 184.235C16.3257 185.208 16.2851 187.196 15.0682 189.062C12.5533 192.915 8.29422 187.48 6.18495 185.939C4.40018 184.6 2.37204 183.829 0.303337 184.965C-0.386232 185.29 0.222211 186.344 0.91178 185.979Z" fill="#828282"/>
<path d="M316.734 192.307C314.138 187.034 306.675 193.767 302.943 193.889C298.927 194.011 296.047 190.644 292.964 188.575C290.612 186.993 288.219 186.466 285.42 187.318C282.945 188.089 280.796 189.589 278.321 190.36C275.117 191.374 270.979 191.171 269.235 187.926C268.87 187.237 269.925 186.628 270.29 187.318C273.129 192.591 280.187 188.089 283.878 186.628C288.3 184.884 291.666 186.06 295.276 188.819C296.98 190.117 298.643 191.658 300.712 192.348C303.714 193.402 306.228 191.739 308.824 190.482C311.664 189.103 316.126 188.291 317.829 191.739C318.113 192.388 317.059 192.997 316.734 192.307Z" fill="#828282"/>
<path d="M207.174 418.648C208.715 415.687 212.204 415.159 215.165 416.052C217.801 416.863 219.83 418.932 222.466 419.581C224.535 420.108 225.833 419.175 227.253 417.877C229.808 415.524 232.81 416.092 235.852 417.187C239.421 418.485 244.127 420.879 247.656 418.12C249.035 417.025 249.643 415.605 251.834 416.052C253.213 416.336 254.592 416.822 255.931 417.228C259.135 418.161 262.34 419.094 265.544 420.027C266.315 420.23 266.639 419.053 265.868 418.85C262.421 417.836 258.973 416.863 255.525 415.849C253.416 415.24 250.576 413.821 248.589 415.484C247.453 416.417 246.885 417.552 245.384 417.958C243.883 418.364 242.22 418.08 240.76 417.674C238.164 416.985 235.811 415.605 233.134 415.119C231.106 414.754 229.037 414.956 227.374 416.214C225.711 417.471 224.738 419.094 222.263 418.242C220.844 417.755 219.667 416.782 218.329 416.092C214.354 413.983 208.594 413.415 206.2 418.039C205.754 418.729 206.809 419.337 207.174 418.648Z" fill="#828282"/>
<path d="M242.383 410.251C244.046 408.061 246.074 405.952 249.076 406.885C250.941 407.452 252.523 408.832 254.186 409.805C257.431 411.671 260.19 411.265 263.516 409.886C265.828 408.913 267.978 408.02 270.493 408.669C272.764 409.278 274.792 410.495 277.104 410.981C281.526 411.955 286.109 411.509 290.287 409.846C291.018 409.562 290.693 408.385 289.963 408.669C284.852 410.697 279.254 410.819 274.103 408.791C272.075 407.98 270.168 406.966 267.937 407.168C265.828 407.371 263.922 408.426 261.934 409.197C259.46 410.13 257.35 410.17 254.998 408.872C253.335 407.98 251.874 406.763 250.13 405.992C246.277 404.37 243.559 406.682 241.287 409.643C240.841 410.251 241.936 410.86 242.383 410.251Z" fill="#EC615B"/>
<path d="M35.755 171.62C40.8254 167.726 44.8411 174.784 49.5869 175.23C51.0066 175.352 52.0207 174.54 52.8725 173.486C54.5762 171.336 56.1176 170.078 59.0381 170.281C61.7152 170.484 64.1085 171.863 66.5422 172.958C68.0836 173.648 69.7467 174.419 71.3692 173.607C72.2616 173.161 72.9512 172.309 73.803 171.782C74.8982 171.092 76.1556 170.606 77.4131 170.362C79.9685 169.876 82.5646 170.403 84.755 171.741C85.4445 172.147 86.053 171.092 85.3634 170.687C81.8344 168.537 77.2914 168.375 73.6407 170.403C72.505 171.052 71.1258 172.674 69.8278 172.756C68.3675 172.837 66.745 171.741 65.4876 171.133C63.4189 170.159 61.3096 169.186 58.9975 169.064C57.1722 168.943 55.2252 169.348 53.7649 170.525C53.1159 171.052 52.6697 171.741 52.1424 172.39C51.4123 173.364 50.8444 174.256 49.2624 173.972C48.5729 173.851 47.6399 173.242 47.0315 172.877C43.5431 170.808 39.1217 167.523 35.1466 170.565C34.5381 171.052 35.1466 172.107 35.755 171.62Z" fill="#EC615B"/>
<path d="M319.452 181.436C320.182 177.542 325.699 181.963 327.443 182.491C329.877 183.18 332.351 182.45 334.582 181.558C337.462 180.381 340.261 178.718 343.425 178.637C347.156 178.516 350.685 180.138 353.971 181.72C354.66 182.045 355.309 180.99 354.579 180.665C351.172 179.083 347.603 177.38 343.79 177.42C340.139 177.461 337.016 179.367 333.689 180.625C331.905 181.314 329.958 181.882 328.051 181.396C326.348 180.949 325.05 179.732 323.427 179.083C321.48 178.313 318.722 178.759 318.276 181.152C318.113 181.882 319.29 182.207 319.452 181.436Z" fill="#EC615B"/>
<path d="M197.926 96.7815C201.252 91.2244 209.364 98.5663 213.502 99.0936C216.138 99.4181 217.964 98.2012 219.83 96.5381C222.385 94.2261 224.494 93.7799 227.78 94.7128C229.97 95.3618 232.08 96.3353 234.351 96.4976C236.988 96.7004 238.529 95.3213 240.679 94.0232C245.79 90.8999 251.225 96.6598 256.62 96.0919C257.391 96.0108 257.391 94.7939 256.62 94.8751C251.347 95.4429 246.358 90.0886 241.125 92.4007C239.827 92.9686 238.813 94.0232 237.556 94.7128C235.933 95.5646 234.189 95.4024 232.485 94.9562C230.092 94.3478 227.861 93.212 225.387 93.0092C222.953 92.8064 221.168 93.7393 219.383 95.3213C217.801 96.741 216.382 98.1201 214.11 97.9984C212.244 97.9173 210.46 96.9438 208.837 96.0919C205.308 94.2666 199.548 91.7112 196.83 96.2136C196.465 96.8221 197.52 97.4305 197.926 96.7815Z" fill="#EC615B"/>
<path d="M239.868 300.934C240.476 297.973 243.762 297.243 246.398 297.527C249.603 297.892 252.28 300.042 255.16 301.299C257.35 302.232 259.662 302.719 262.015 302.111C264.57 301.462 266.72 299.839 268.992 298.541C271.831 296.878 274.711 295.945 277.753 297.73C279.863 298.947 281.526 300.813 283.838 301.664C286.88 302.841 289.922 301.624 292.762 300.448C295.682 299.231 299.576 297.811 302.213 300.407C302.781 300.975 303.633 300.082 303.065 299.555C299.414 295.945 294.384 298.663 290.409 300.082C287.042 301.34 284.365 300.975 281.526 298.906C279.741 297.608 277.997 296.067 275.766 295.621C271.344 294.728 267.734 298.217 264.084 300.042C260.96 301.583 258.08 301.38 254.957 299.88C252.726 298.825 250.657 297.365 248.264 296.675C244.735 295.702 239.624 296.432 238.732 300.65C238.529 301.38 239.705 301.705 239.868 300.934Z" fill="#EC615B"/>
<path d="M231.715 9.00337C231.552 7.29973 229.362 7.2186 228.145 7.5431C227.05 7.82704 226.076 8.59774 225.103 9.16562C223.643 10.0174 222.101 10.5853 220.398 10.1391C218.735 9.69294 217.437 8.43549 216.017 7.50254C213.826 6.04228 212.001 6.32622 209.811 7.62423C207.134 9.20618 204.7 10.6259 201.901 8.39493C200.846 7.54311 199.954 6.44791 198.575 6.1234C197.236 5.7989 195.735 6.1234 194.397 6.24509C191.598 6.48847 188.759 6.73185 185.96 6.97523C185.189 7.05635 185.189 5.83947 185.96 5.75834C189.043 5.4744 192.085 5.23102 195.168 4.94708C197.48 4.74427 199.386 4.66314 201.293 6.20453C202.428 7.09691 203.442 8.39493 205.024 8.39493C206.241 8.39493 207.336 7.66479 208.35 7.09691C209.892 6.20453 211.474 5.10933 213.34 5.1499C215.246 5.23102 216.747 6.48847 218.207 7.5431C219.221 8.27324 220.317 9.04393 221.615 9.08449C223.237 9.12506 224.576 8.02986 225.914 7.25917C228.186 5.96115 232.607 5.39327 232.972 9.00337C233.013 9.77407 231.796 9.77407 231.715 9.00337Z" fill="#EC615B"/>
<path d="M441.831 102.338C411.611 156.206 381.392 210.114 351.173 263.981C331.702 237.94 312.232 211.939 292.762 185.898C275.644 226.663 258.527 267.429 241.45 308.235C219.424 296.959 197.399 285.682 175.373 274.365C195.208 277.448 215.043 280.571 234.879 283.654C250.13 237.615 265.423 191.576 280.674 145.578C303.268 178.15 325.861 210.682 348.455 243.254C379.567 196.241 410.719 149.269 441.831 102.338Z" fill="#FDB913" stroke="#FDB913" stroke-width="7" stroke-miterlimit="10"/>
<path d="M467.101 53.5007C460.733 93.0495 454.324 132.598 447.955 172.188C448.28 144.159 448.564 116.13 448.888 88.1009C425.686 102.582 402.484 117.063 379.282 131.544C408.528 105.502 437.815 79.5015 467.101 53.5007Z" fill="#FDB913" stroke="#FDB913" stroke-width="7" stroke-miterlimit="10"/>
<path d="M233.54 310.588C233.824 313.306 234.149 317.038 234.514 321.5C235.528 334.764 236.177 350.421 235.893 367.944C235.731 377.882 234.96 402.098 230.336 433.129C229.078 441.647 227.78 448.705 226.807 453.775C221.899 455.56 215.125 457.345 206.972 457.629C190.381 458.156 177.807 452.112 171.844 448.705C173.426 441.322 175.333 431.222 176.793 419.175C178.213 407.29 179.429 397.068 178.862 384.331C178.415 374.677 176.509 365.064 172.737 346.202C166.855 316.956 164.746 313.509 167.301 309.371C170.627 303.733 182.634 296.756 233.54 310.588Z" fill="white"/>
<path opacity="0.11" d="M187.704 332.086C190.056 337.278 193.099 344.945 195.37 354.518C196.952 361.089 199.467 374.15 197.601 402.869C196.709 416.538 194.762 434.71 190.259 455.965C184.094 453.532 177.928 451.098 171.763 448.664C173.142 442.296 174.764 434.021 176.143 424.286C177.239 416.701 178.577 407.087 179.023 394.513C179.51 380.6 178.658 370.094 178.05 362.792C177.198 352.976 175.657 340.442 172.614 326.002C177.685 328.03 182.674 330.058 187.704 332.086Z" fill="#898989"/>
<path d="M234.149 310.588C237.799 347.338 237.272 384.494 232.607 421.122C231.309 431.303 229.687 441.444 227.74 451.544C227.577 452.315 226.401 451.99 226.563 451.22C233.5 415.119 236.339 378.288 235.041 341.538C234.676 331.194 233.946 320.891 232.932 310.588C232.851 309.818 234.068 309.818 234.149 310.588Z" fill="#161616"/>
<path d="M176.833 344.255C180.322 371.311 180.2 398.812 176.468 425.868C175.414 433.575 174.034 441.241 172.371 448.826C172.209 449.597 171.033 449.273 171.195 448.502C176.995 421.812 179.226 394.391 177.726 367.092C177.32 359.466 176.59 351.841 175.616 344.255C175.535 343.485 176.752 343.485 176.833 344.255Z" fill="#161616"/>
<path d="M131.362 312.86C130.673 313.874 130.632 314.239 128.401 322.027C126.13 329.937 123.655 337.806 121.505 345.756C117.692 359.71 112.419 373.947 107.795 386.563C102.279 401.53 94.6933 420.392 84.6337 441.931C101.67 443.675 118.666 445.46 135.702 447.204C149.94 426.841 158.296 411.955 163.407 401.774C167.747 393.134 173.588 385.305 177.685 376.584C178.78 374.231 182.066 367.133 188.272 361.454C191.882 358.169 195.086 356.668 196.831 355.938C199.427 354.883 201.739 354.396 203.402 354.193C203.118 349.245 202.063 341.335 197.966 332.736C195.817 328.274 190.625 317.727 179.389 310.953C162.961 301.015 138.582 302.111 131.362 312.86Z" fill="white"/>
<path opacity="0.11" d="M153.753 306.776C152.049 314.807 150.021 323.041 147.668 331.438C135.702 374.029 118.017 409.643 99.9666 438.402C96.8027 435.644 93.5982 432.885 90.4343 430.127C94.9773 419.459 99.0742 409.359 102.725 399.827C105.889 391.592 110.797 378.856 116.354 361.86C120.41 349.488 123.169 340.118 125.886 330.626C129.943 316.551 133.147 304.504 135.5 295.215C141.584 299.109 147.668 302.922 153.753 306.776Z" fill="#999999"/>
<path d="M130.389 317.119C122.236 347.379 112.419 377.193 100.9 406.358C97.695 414.43 94.3689 422.461 90.9616 430.452C90.6371 431.182 89.623 430.533 89.9069 429.843C102.238 401.206 112.947 371.92 121.992 342.106C124.548 333.709 126.941 325.272 129.212 316.795C129.415 316.024 130.592 316.349 130.389 317.119Z" fill="#161616"/>
<path d="M200.4 355.816C193.748 356.587 188.677 361.251 184.783 366.443C180.646 371.96 177.441 378.126 174.075 384.088C166.327 397.758 158.742 411.509 150.629 424.976C146.005 432.642 141.219 440.187 136.189 447.529C135.743 448.178 134.688 447.569 135.134 446.92C144.545 433.251 152.942 418.932 161.135 404.491C165.192 397.393 169.167 390.254 173.182 383.155C176.671 376.99 179.997 370.621 184.337 364.983C188.393 359.751 193.586 355.41 200.36 354.599C201.171 354.477 201.171 355.694 200.4 355.816Z" fill="#161616"/>
<path d="M217.315 152.921C212.407 149.676 204.862 145.335 195.005 142.171C188.515 140.062 157.282 130.003 129.293 146.552C124.345 149.473 117.773 154.259 111.364 162.088C112.176 167.685 113.352 175.96 114.934 185.979C117.895 204.76 120.288 217.618 122.884 232.18C125.075 244.349 128.117 261.629 131.646 282.762C130.713 294.201 129.78 305.599 128.847 317.038C136.189 322.108 148.845 329.288 165.881 331.762C201.698 336.954 228.753 317.281 234.797 312.657C233.297 285.074 230.944 256.031 227.455 225.69C224.576 200.379 221.128 176.082 217.315 152.921Z" fill="#EC615B"/>
<path d="M213.908 151.541C214.435 154.097 215.246 157.95 216.179 162.615C219.505 179.083 221.168 187.48 222.142 195.755C222.71 200.663 223.359 207.721 223.44 216.361C213.827 215.996 205.998 216.726 200.563 217.415C186.122 219.322 176.468 220.742 170.871 228.205C167.504 232.667 166.774 237.737 166.652 240.942C169.694 242.605 173.832 244.674 178.861 246.702C182.715 248.243 192.085 251.813 205.268 253.922C213.38 255.22 220.519 256.315 229.768 254.895C240.152 253.314 243.762 250.068 245.425 248.121C248.346 244.755 249.197 240.982 249.441 239.887C250.252 236.034 249.603 233.316 247.859 225.812C244.614 211.777 245.303 214.333 244.654 211.777C243.194 206.261 241.409 199.527 238.367 191.212C235.933 184.6 234.027 179.327 230.741 173.324C227.821 167.807 222.629 159.816 213.908 151.541Z" fill="white"/>
<path opacity="0.14" d="M226.725 166.55C228.064 170.038 230.052 175.433 232.039 182.085C237.961 202.083 238.205 214.333 238.205 217.74C238.245 226.542 238.205 231.045 235.609 235.101C230.822 242.443 221.777 244.187 212.082 246.053C205.065 247.391 194.113 248.568 180.484 246.296C184.459 248.243 189.773 250.474 196.222 252.178C204.01 254.246 210.054 254.652 214.922 254.977C225.833 255.666 231.309 256.031 237.677 253.192C240.557 251.934 245.749 249.541 248.386 244.106C249.319 242.118 250.09 239.441 249.603 232.992C248.995 224.757 247.047 218.916 245.141 212.994C239.584 195.552 241.206 198.351 238.529 191.212C236.055 184.762 232.364 176.204 226.725 166.55Z" fill="#969595"/>
<path d="M214.354 151.095C223.44 158.68 229.768 168.821 234.514 179.53C239.828 191.536 243.681 204.232 246.683 216.969C248.224 223.459 250.131 230.314 250.293 237.007C250.414 242.402 248.102 247.148 243.843 250.433C239.26 254.003 233.459 255.301 227.74 255.666C221.128 256.112 214.354 255.707 207.783 254.855C193.302 252.989 179.227 248.405 166.368 241.428C165.679 241.063 166.287 240.009 166.977 240.374C177.969 246.337 189.854 250.515 202.145 252.746C208.31 253.841 214.597 254.449 220.844 254.571C227.05 254.652 233.581 254.49 239.3 251.772C244.614 249.257 248.751 244.471 248.995 238.427C249.157 235.02 248.427 231.653 247.778 228.327C247.169 225.122 246.52 221.958 245.79 218.794C243.032 206.747 239.463 194.741 234.757 183.302C229.89 171.498 223.318 160.181 213.421 151.906C212.894 151.46 213.746 150.608 214.354 151.095Z" fill="#161616"/>
<path d="M238.367 221.472C223.237 215.996 206.647 215.549 191.274 220.295C190.543 220.539 190.219 219.362 190.949 219.119C206.525 214.333 223.359 214.738 238.692 220.295C239.422 220.539 239.138 221.715 238.367 221.472Z" fill="#161616"/>
<path d="M213.826 151.866C220.154 172.796 223.643 194.497 224.089 216.361C224.089 217.131 222.872 217.131 222.872 216.361C222.426 194.619 218.978 172.999 212.65 152.19C212.447 151.42 213.583 151.095 213.826 151.866Z" fill="#161616"/>
<path d="M118.341 157.382C119.396 159.735 120.694 162.899 122.113 166.712C122.965 169.064 125.967 177.298 128.522 188.737C130.348 196.85 132.295 208.126 132.984 222.039C135.54 220.944 139.393 219.322 144.017 217.334C168.152 207.112 172.168 205.733 175.616 204.678C188.028 200.865 195.451 200.257 200.846 200.338C207.579 200.419 212.203 201.555 216.341 204.192C219.505 206.22 221.614 208.654 222.912 210.398C223.115 212.385 223.318 214.373 223.521 216.401C219.992 216.36 214.556 216.807 208.634 219.362C204.78 221.025 202.022 223.053 198.493 225.933C189.853 232.951 185.31 237.981 181.66 241.428C178.496 244.389 167.665 254.003 151.481 258.343C140.569 261.264 132.254 260.452 123.533 259.641C118.828 259.195 115.664 258.505 112.581 256.355C111.608 255.666 107.632 252.745 104.266 243.091C102.481 238.021 101.629 233.154 101.061 225.122C100.574 218.105 99.9254 208.288 101.507 195.106C101.954 191.293 103.617 184.519 106.983 170.971C107.511 168.861 108.444 165.332 111.364 162.087C113.757 159.451 116.516 158.112 118.341 157.382Z" fill="white"/>
<path opacity="0.15" d="M110.593 163.548C110.066 169.267 109.498 177.096 109.417 186.425C109.377 194.457 109.336 203.097 110.877 213.724C113.23 230.193 114.447 238.467 120.815 243.741C129.861 251.204 142.922 248.73 146.248 248.081C154.766 246.458 156.267 243.254 174.399 231.328C197.114 216.361 206.525 213.643 215.57 214.576C218.978 214.941 221.695 215.752 223.48 216.361C219.87 216.361 214.434 216.807 208.593 219.322C202.509 221.918 198.818 225.528 196.019 228.124C188.88 234.857 179.956 243.254 171.276 248.892C169.45 250.068 156.146 258.506 139.637 260.25C131.97 261.061 126.089 260.128 120.572 259.276C118.057 258.871 116.272 258.506 114.244 257.41C109.539 254.855 107.348 250.555 105.645 246.986C103.292 242.159 102.603 238.143 101.751 232.748C100.858 227.232 100.737 223.135 100.574 217.862C100.453 214.333 100.291 208.37 100.899 200.541C101.345 194.376 101.751 189.062 103.414 182.369C104.59 177.623 106.659 171.011 110.593 163.548Z" fill="#7A7A7A"/>
<path d="M118.868 157.098C127.792 177.461 132.538 199.446 132.781 221.674C132.781 222.445 131.564 222.445 131.564 221.674C131.362 199.689 126.697 177.866 117.854 157.747C117.489 157.017 118.544 156.368 118.868 157.098Z" fill="#161616"/>
<path d="M222.385 210.682C218.41 204.151 210.459 201.758 203.239 201.109C195.329 200.379 187.379 201.799 179.794 204.03C172.168 206.26 164.826 209.343 157.525 212.385C149.412 215.752 141.381 219.16 133.309 222.607C132.579 222.932 131.97 221.877 132.7 221.553C145.559 216.036 158.377 210.317 171.519 205.53C183.485 201.15 196.668 197.864 209.364 200.906C214.962 202.245 220.357 205.084 223.44 210.114C223.845 210.763 222.791 211.371 222.385 210.682Z" fill="#161616"/>
<path d="M223.48 216.969C215.449 217.415 207.214 219.281 200.887 224.514C195.735 228.813 191.03 233.722 186.081 238.224C175.21 248.121 161.662 257.126 146.938 259.925C137 261.832 126.738 261.304 116.962 258.789C116.191 258.587 116.516 257.41 117.286 257.613C126.332 259.925 135.864 260.574 145.113 259.033C150.629 258.1 155.618 256.315 160.648 253.962C170.059 249.541 178.455 243.619 186.081 236.561C190.786 232.221 195.248 227.556 200.197 223.5C206.728 218.145 215.165 216.198 223.48 215.712C224.251 215.712 224.251 216.929 223.48 216.969Z" fill="#161616"/>
<path d="M117.976 157.95C111.283 159.978 108.2 168.821 106.213 174.743C103.901 181.639 102.643 188.818 101.994 196.039C101.345 203.259 101.183 210.56 101.345 217.78C101.508 225.487 102.157 233.235 104.225 240.658C106.091 247.513 109.498 255.179 116.678 257.694C117.408 257.937 117.084 259.114 116.354 258.87C110.472 256.802 106.862 251.529 104.631 245.931C101.71 238.467 100.656 230.274 100.25 222.283C99.8445 214.008 100.007 205.652 100.656 197.418C101.264 189.711 102.481 182.044 104.915 174.702C107.065 168.212 110.35 158.923 117.652 156.733C118.382 156.571 118.706 157.747 117.976 157.95Z" fill="#161616"/>
<path d="M207.174 60.7615C207.864 62.2218 209.04 65.3857 209.892 68.1439C211.271 72.4436 212.853 78.528 213.624 85.951C213.989 89.6017 214.597 95.6861 213.705 103.636C213.097 108.91 212.569 113.493 210.257 118.766C208.756 122.174 205.227 128.623 197.399 134.383C194.478 134.545 190.909 134.505 186.934 133.937C184.094 133.531 181.539 132.923 179.348 132.314C178.983 135.276 178.456 138.48 177.685 141.928C176.915 145.254 176.063 148.296 175.17 151.054C172.777 151.582 169.329 152.028 165.314 151.42C156.309 150.04 150.63 144.362 148.723 142.252C149.616 137.223 150.224 132.882 150.63 129.475C151.644 120.713 151.319 118.564 150.751 116.819C149.494 112.966 147.223 111.343 143.207 107.328C135.419 99.5802 130.835 94.9966 129.172 89.115C127.022 81.6108 130.227 74.5123 133.309 67.6978C134.891 64.2499 138.218 56.8675 144.586 51.5537C163.691 35.7748 200.482 46.4834 207.174 60.7615Z" fill="white"/>
<path opacity="0.21" d="M150.589 64.9395C150.873 69.2797 151.644 75.3236 153.834 82.2193C154.686 84.8558 157.606 93.6174 166.043 105.259C171.438 112.682 181.052 124.08 196.79 134.789C193.139 134.91 188.515 134.626 183.323 133.166C170.668 129.637 162.879 121.444 159.594 117.468C158.702 127.69 157.809 137.953 156.917 148.174C154.402 146.552 151.887 144.929 149.413 143.348C149.818 140.792 150.346 136.939 150.63 132.233C151.36 120.47 151.725 114.588 148.317 110.573C144.545 106.151 140.651 108.829 135.865 103.88C131.889 99.7424 131.24 94.3881 130.551 88.9121C129.78 82.7466 129.172 77.7979 131.93 73.2549C137.041 64.7772 149.453 64.8989 150.589 64.9395Z" fill="#757575"/>
<path d="M212.529 53.6629C214.354 59.5851 211.515 65.4667 209.933 68.1439C208.594 65.4262 206.161 61.3293 201.901 57.7192C194.478 51.2697 182.066 46.5644 171.56 50.9452C166.49 53.0545 163.732 56.5023 159.351 61.9782L159.351 61.9783C152.496 70.5371 149.048 78.9336 147.263 84.4501C147.141 84.2067 144.951 80.4344 141.219 80.4344C138.664 80.4344 136.879 82.2597 136.392 82.8276C131.971 87.8574 136.473 97.5114 137.082 98.7688L137.147 98.9039C138.561 101.855 140.506 105.915 144.262 106.395C146.736 106.679 148.805 105.299 149.819 104.529C150.103 112.479 150.427 120.389 150.711 128.339C150.468 125.338 149.656 120.916 146.817 116.779C143.734 109.802 141.259 110.289 137.649 108.666C132.376 105.421 130.632 101.973 130.632 101.973C130.632 101.973 128.007 98.8368 126.9 96.4973C125.471 93.4757 125.327 91.4934 124.872 88.1819C124.269 83.7878 124.373 81.2315 124.872 76.8243C125.301 73.0426 125.734 70.915 126.9 67.292C127.901 64.1833 128.668 62.4976 130.145 59.5851C133.469 53.0319 135.869 49.4107 141.219 44.374C145.589 40.2598 150.123 37.201 153.875 35.653C157.627 34.105 159.627 34.0694 163.407 33.6249C177.055 32.0195 179.551 31.3534 197.48 39.7093C208.675 44.9419 211.515 50.4179 212.529 53.6629Z" fill="#FFA800"/>
<path d="M207.783 60.5991C213.299 73.9038 215.693 88.4658 214.435 102.866C213.34 115.237 209 128.258 197.764 134.91C197.074 135.316 196.466 134.261 197.155 133.856C208.716 127.001 212.61 113.29 213.421 100.635C214.273 87.0867 211.88 73.4576 206.647 60.9236C206.323 60.2341 207.499 59.9096 207.783 60.5991Z" fill="#161616"/>
<path d="M196.75 135.397C175.86 135.6 156.876 123.026 148.804 103.799C148.52 103.069 149.697 102.744 149.981 103.474C157.809 122.214 176.468 134.383 196.75 134.18C197.52 134.14 197.52 135.357 196.75 135.397Z" fill="#161616"/>
<path d="M144.829 82.2598C141.665 79.2176 137.447 82.057 136.23 85.5049C135.135 88.6688 135.703 92.2789 136.392 95.4833C137.001 98.4039 138.096 101.406 140.367 103.434C142.477 105.34 147.304 107.247 148.886 103.636C149.21 102.906 150.265 103.555 149.94 104.245C148.52 107.531 144.18 107.287 141.503 105.786C137.609 103.636 135.865 99.2962 135.094 95.1588C134.283 90.9403 133.715 85.8699 136.676 82.3004C138.948 79.5421 143.004 78.8525 145.681 81.408C146.249 81.9353 145.397 82.7871 144.829 82.2598Z" fill="#161616"/>
<path d="M149.656 104.366C152.252 116.86 152.131 129.718 149.251 142.131C149.088 142.901 147.912 142.577 148.074 141.806C150.914 129.597 151.035 116.941 148.48 104.691C148.318 103.92 149.494 103.596 149.656 104.366Z" fill="#161616"/>
<path d="M179.997 132.314C179.551 135.803 178.942 139.251 178.172 142.699C177.766 144.443 177.32 146.187 176.793 147.891C176.468 149.067 176.265 150.73 175.413 151.663C175.13 151.947 174.643 151.866 174.44 151.541C174.399 151.501 174.399 151.46 174.359 151.42C174.197 151.136 174.318 150.771 174.562 150.568C174.602 150.568 174.602 150.527 174.643 150.527C175.292 150.081 175.9 151.136 175.251 151.582C175.211 151.582 175.211 151.622 175.17 151.622C175.251 151.338 175.332 151.054 175.373 150.771C175.413 150.811 175.413 150.852 175.454 150.892C175.13 150.852 174.805 150.811 174.481 150.771C175.292 149.878 175.535 147.566 175.86 146.39C176.265 144.889 176.63 143.429 176.995 141.928C177.726 138.723 178.293 135.519 178.699 132.233C178.861 131.544 180.078 131.544 179.997 132.314Z" fill="#161616"/>
<path d="M175.008 151.825C169.938 153.245 164.705 152.312 159.919 150.284C157.485 149.229 155.132 147.931 152.861 146.592C151.076 145.538 149.17 144.524 148.277 142.536C147.953 141.847 149.007 141.198 149.332 141.928C150.224 143.875 152.333 144.848 154.118 145.903C156.146 147.12 158.256 148.256 160.446 149.148C164.989 151.054 169.938 151.987 174.765 150.649C175.414 150.446 175.738 151.622 175.008 151.825Z" fill="#161616"/>
<path d="M193.707 70.0908C196.952 81.7323 199.832 93.4955 202.347 105.34C202.469 105.908 201.779 106.395 201.333 105.948C198.291 102.906 195.37 99.7017 192.653 96.3755C192.166 95.7671 193.018 94.9152 193.504 95.5237C196.222 98.8498 199.143 102.054 202.185 105.097C201.86 105.299 201.495 105.502 201.171 105.705C198.615 93.8606 195.735 82.1379 192.531 70.4558C192.288 69.6851 193.464 69.3606 193.707 70.0908Z" fill="#161616"/>
<path d="M202.547 116.276C201.062 117.196 199.057 117.164 197.229 117.245C195.196 117.323 193.157 117.348 191.205 117.07C187.425 116.526 184.306 114.999 182.144 112.933C181.729 112.528 182.731 112.011 183.146 112.416C184.941 114.151 187.469 115.508 190.604 116.127C192.194 116.448 193.876 116.518 195.55 116.508C197.424 116.476 200.3 116.619 201.825 115.694C202.473 115.298 203.158 115.911 202.547 116.276Z" fill="#161616"/>
<path d="M205.106 65.0207C204.213 62.8708 202.428 61.0861 200.116 60.4776C197.236 59.7069 195.979 61.6539 195.168 64.0471C194.924 64.7773 193.748 64.4528 193.991 63.7226C194.884 61.1672 196.263 58.774 199.346 59.0985C202.55 59.4635 205.106 61.8162 206.282 64.6962C206.606 65.4263 205.43 65.7102 205.106 65.0207Z" fill="#161616"/>
<path d="M181.133 62.5867C179.916 60.2341 177.604 58.4088 174.846 58.3682C172.006 58.3276 169.532 60.153 169.329 63.1141C169.288 63.8848 168.072 63.8848 168.112 63.1141C168.315 59.9907 170.668 57.5975 173.75 57.2324C177.32 56.7863 180.565 58.9361 182.147 62.0189C182.553 62.6679 181.498 63.2763 181.133 62.5867Z" fill="#161616"/>
<path d="M182.781 72.4482C182.966 74.3397 182.859 76.2285 182.516 78.1039C182.315 79.1932 184.035 79.3326 184.236 78.2433C184.603 76.1882 184.633 74.1974 184.471 72.1261C184.38 71.0342 182.69 71.3562 182.781 72.4482Z" fill="#161616"/>
<path d="M182.29 72.0159C181.898 74.2509 181.979 76.5126 182.398 78.7099C182.602 79.7804 184.292 79.4584 184.088 78.3879C183.691 76.3032 183.653 74.2669 184.01 72.1553C184.2 71.0097 182.491 70.9266 182.29 72.0159Z" fill="#161616"/>
<path d="M199.614 70.7006C199.799 72.5921 199.692 74.4809 199.349 76.3564C199.148 77.4457 200.868 77.5851 201.069 76.4958C201.436 74.4406 201.466 72.4498 201.304 70.3786C201.213 69.2866 199.523 69.6087 199.614 70.7006Z" fill="#161616"/>
<path d="M199.113 70.2119C198.721 72.4469 198.802 74.7086 199.22 76.906C199.424 77.9765 201.115 77.6544 200.911 76.5839C200.513 74.4993 200.476 72.4629 200.833 70.3514C200.977 69.2728 199.258 69.1334 199.113 70.2119Z" fill="#161616"/>
<path d="M325.861 17.3999L345.884 45.0841H305.838L325.861 17.3999Z" fill="#F1F1F1"/>
<path d="M329.121 137L349.144 164.684H309.098L329.121 137Z" fill="#F1F1F1"/>
<path d="M332.596 377.777L311.538 340.906L356.535 342.707L332.596 377.777Z" fill="#F1F1F1"/>
<path d="M328.7 105.421L308.677 77.7372L348.724 77.7372L328.7 105.421Z" fill="#F1F1F1"/>
<path d="M376.904 29.5616C376.887 30.1273 376.763 30.7057 376.532 31.2969C376.311 31.8778 376.021 32.4619 375.662 33.0493C375.313 33.637 374.922 34.2128 374.489 34.7766C374.055 35.3297 373.623 35.8561 373.191 36.3559L372.386 37.0207L372.384 37.0847L373.414 36.9394L376.904 37.0442L376.868 38.2288L370.497 38.0375L370.511 37.5732C370.753 37.3348 371.045 37.0392 371.387 36.6862C371.729 36.3333 372.082 35.9434 372.448 35.5164C372.824 35.0791 373.19 34.6201 373.546 34.1394C373.914 33.6484 374.244 33.1509 374.536 32.647C374.84 32.1434 375.085 31.6433 375.271 31.1469C375.456 30.6504 375.556 30.1781 375.569 29.7298C375.585 29.2069 375.449 28.7702 375.16 28.4197C374.872 28.0586 374.424 27.8689 373.815 27.8506C373.41 27.8384 373.012 27.9119 372.623 28.0711C372.234 28.2197 371.898 28.3965 371.614 28.6016L371.113 27.6733C371.496 27.3643 371.946 27.1269 372.464 26.9608C372.982 26.7948 373.534 26.7206 374.121 26.7382C374.58 26.752 374.983 26.8335 375.331 26.9828C375.68 27.1215 375.973 27.3172 376.211 27.57C376.449 27.8229 376.627 28.122 376.745 28.4673C376.863 28.802 376.916 29.1668 376.904 29.5616ZM379.112 37.1105L381.353 37.1778L381.586 29.4298L381.774 28.4901L381.111 29.2233L379.312 30.4351L378.729 29.6004L382.332 26.9847L382.908 27.0021L382.602 37.2153L384.795 37.2811L384.759 38.4658L379.076 38.2951L379.112 37.1105ZM392.59 30.0327C392.573 30.5983 392.449 31.1767 392.217 31.7679C391.997 32.3488 391.707 32.9329 391.348 33.5203C390.999 34.108 390.608 34.6838 390.174 35.2476C389.741 35.8007 389.309 36.3271 388.877 36.8269L388.072 37.4917L388.07 37.5557L389.1 37.4104L392.59 37.5152L392.554 38.6998L386.183 38.5085L386.197 38.0443C386.439 37.8058 386.731 37.5102 387.072 37.1573C387.414 36.8044 387.768 36.4144 388.133 35.9874C388.509 35.5501 388.876 35.0911 389.232 34.6104C389.599 34.1194 389.929 33.6219 390.222 33.118C390.526 32.6144 390.77 32.1144 390.956 31.6179C391.142 31.1214 391.242 30.6491 391.255 30.2009C391.271 29.6779 391.134 29.2412 390.846 28.8907C390.557 28.5296 390.109 28.3399 389.501 28.3216C389.095 28.3094 388.698 28.3829 388.309 28.5422C387.92 28.6907 387.583 28.8675 387.299 29.0726L386.798 28.1443C387.181 27.8354 387.632 27.5979 388.15 27.4318C388.667 27.2658 389.22 27.1916 389.807 27.2092C390.266 27.223 390.669 27.3045 391.017 27.4538C391.365 27.5925 391.659 27.7882 391.897 28.041C392.135 28.2939 392.313 28.593 392.43 28.9383C392.549 29.273 392.602 29.6378 392.59 30.0327ZM396.807 37.8982C397.17 37.9091 397.507 37.8658 397.82 37.7684C398.133 37.671 398.404 37.5243 398.634 37.3282C398.865 37.1215 399.049 36.876 399.185 36.5917C399.322 36.3074 399.395 35.9945 399.406 35.653C399.428 34.9059 399.221 34.3442 398.783 33.9679C398.357 33.5919 397.754 33.3922 396.975 33.3689L395.79 33.3333L395.804 32.869L398.216 29.3844L398.974 28.7022L397.928 28.831L394.759 28.7358L394.794 27.5512L400.509 27.7229L400.495 28.1871L397.835 31.9366L397.261 32.384L397.26 32.4161L397.807 32.3203C398.234 32.3438 398.626 32.4357 398.985 32.596C399.344 32.7457 399.652 32.9632 399.911 33.2487C400.169 33.5235 400.368 33.8553 400.506 34.244C400.644 34.622 400.706 35.0511 400.691 35.5313C400.674 36.1076 400.557 36.6169 400.341 37.059C400.125 37.5011 399.836 37.8717 399.474 38.1706C399.124 38.4592 398.711 38.6764 398.237 38.8224C397.763 38.9684 397.264 39.0335 396.741 39.0178C396.261 39.0034 395.83 38.9531 395.448 38.8668C395.066 38.7806 394.733 38.6744 394.448 38.5484L394.818 37.4219C395.06 37.5467 395.345 37.6567 395.674 37.752C396.013 37.837 396.391 37.8857 396.807 37.8982ZM401.682 38.2369C401.691 37.9487 401.778 37.727 401.943 37.5718C402.118 37.4061 402.345 37.3275 402.623 37.3358C402.911 37.3445 403.138 37.4367 403.303 37.6126C403.469 37.7778 403.548 38.0045 403.539 38.2927C403.531 38.5701 403.439 38.7917 403.263 38.9573C403.087 39.1229 402.855 39.2014 402.567 39.1928C402.289 39.1844 402.068 39.0923 401.902 38.9164C401.747 38.7409 401.674 38.5144 401.682 38.2369ZM410.819 30.58C410.802 31.1457 410.677 31.7241 410.446 32.3153C410.226 32.8962 409.936 33.4803 409.576 34.0677C409.227 34.6554 408.836 35.2312 408.403 35.795C407.97 36.3481 407.537 36.8745 407.106 37.3743L406.301 38.0391L406.299 38.1031L407.328 37.9578L410.818 38.0626L410.783 39.2472L404.411 39.0559L404.425 38.5916C404.668 38.3532 404.959 38.0576 405.301 37.7047C405.643 37.3517 405.996 36.9618 406.362 36.5348C406.738 36.0975 407.104 35.6385 407.461 35.1578C407.828 34.6668 408.158 34.1693 408.451 33.6654C408.754 33.1618 408.999 32.6617 409.185 32.1653C409.371 31.6688 409.47 31.1965 409.484 30.7482C409.499 30.2253 409.363 29.7886 409.074 29.4381C408.786 29.077 408.338 28.8873 407.73 28.869C407.324 28.8568 406.927 28.9303 406.537 29.0895C406.148 29.2381 405.812 29.4149 405.528 29.62L405.027 28.6917C405.41 28.3828 405.861 28.1453 406.378 27.9792C406.896 27.8132 407.448 27.739 408.035 27.7566C408.494 27.7704 408.898 27.8519 409.246 28.0012C409.594 28.1399 409.887 28.3356 410.125 28.5884C410.363 28.8413 410.541 29.1404 410.659 29.4857C410.777 29.8204 410.83 30.1852 410.819 30.58ZM412.431 36.6209C412.451 35.9486 412.644 35.3722 413.011 34.8919C413.378 34.4009 413.942 33.9638 414.701 33.5807C414.439 33.4126 414.193 33.2397 413.963 33.0618C413.745 32.8737 413.548 32.6648 413.373 32.4353C413.209 32.206 413.078 31.9511 412.98 31.6704C412.892 31.39 412.854 31.0684 412.864 30.7056C412.877 30.2894 412.958 29.9126 413.107 29.5752C413.266 29.2382 413.483 28.951 413.757 28.7135C414.042 28.4764 414.374 28.2941 414.751 28.1666C415.14 28.0394 415.574 27.983 416.054 27.9974C416.502 28.0108 416.906 28.0871 417.265 28.226C417.624 28.365 417.923 28.5502 418.162 28.7817C418.411 29.0135 418.6 29.2862 418.73 29.5999C418.859 29.9135 418.918 30.2571 418.907 30.6307C418.889 31.239 418.734 31.7737 418.443 32.235C418.151 32.6856 417.679 33.1253 417.025 33.5543C417.298 33.7228 417.554 33.9067 417.793 34.1062C418.044 34.306 418.256 34.526 418.431 34.7662C418.616 35.0068 418.757 35.2781 418.855 35.5801C418.953 35.8714 418.996 36.2039 418.985 36.5774C418.971 37.0363 418.884 37.4556 418.723 37.8353C418.562 38.2044 418.334 38.5233 418.037 38.7921C417.741 39.0503 417.383 39.2531 416.962 39.4007C416.541 39.5376 416.064 39.5981 415.53 39.582C415.018 39.5667 414.567 39.4783 414.176 39.3171C413.786 39.1558 413.456 38.9429 413.186 38.6785C412.927 38.4143 412.733 38.1094 412.604 37.7637C412.476 37.4074 412.418 37.0264 412.431 36.6209ZM417.734 36.6199C417.744 36.2998 417.688 36.0204 417.567 35.7817C417.446 35.5324 417.282 35.3085 417.074 35.11C416.878 34.9012 416.648 34.7127 416.386 34.5446C416.124 34.3765 415.852 34.2134 415.568 34.0554C414.906 34.3987 414.43 34.7903 414.139 35.2302C413.848 35.6701 413.696 36.0928 413.684 36.4983C413.676 36.7545 413.712 37.0012 413.79 37.2385C413.868 37.4759 413.99 37.6825 414.156 37.8584C414.321 38.0343 414.525 38.1793 414.768 38.2934C415.021 38.3971 415.313 38.4539 415.644 38.4639C415.911 38.4719 416.168 38.4422 416.416 38.3749C416.664 38.2969 416.881 38.1859 417.066 38.0419C417.263 37.8876 417.419 37.6947 417.532 37.4631C417.657 37.2212 417.724 36.9401 417.734 36.6199ZM414.114 30.711C414.105 31.0099 414.156 31.2784 414.266 31.5167C414.377 31.7444 414.525 31.9518 414.712 32.139C414.909 32.3265 415.134 32.5042 415.385 32.6719C415.637 32.829 415.899 32.9811 416.173 33.1282C416.664 32.7691 417.027 32.4115 417.262 32.0553C417.508 31.6995 417.637 31.3029 417.65 30.8653C417.667 30.321 417.509 29.8997 417.176 29.6013C416.854 29.2925 416.458 29.1311 415.989 29.117C415.7 29.1083 415.443 29.1487 415.216 29.238C414.989 29.3273 414.793 29.4443 414.628 29.5889C414.464 29.7335 414.336 29.9059 414.244 30.1061C414.164 30.296 414.121 30.4976 414.114 30.711Z" fill="#D5D5D5"/>
<path d="M387.539 232.132L385.657 231.96L385.344 235.39L384.1 235.276L384.413 231.847L379.5 231.399L379.548 230.873L385.516 223.971L386.378 224.05L385.759 230.844L387.641 231.015L387.539 232.132ZM384.831 227.254L385.11 225.96L385.062 225.956L384.405 226.99L381.879 229.831L381.042 230.543L382.17 230.517L384.514 230.731L384.831 227.254ZM394.582 227.531C394.531 228.095 394.372 228.664 394.105 229.24C393.85 229.807 393.525 230.372 393.13 230.937C392.746 231.502 392.321 232.053 391.854 232.589C391.388 233.115 390.924 233.614 390.463 234.087L389.619 234.702L389.613 234.765L390.65 234.683L394.127 235L394.02 236.18L387.672 235.602L387.714 235.139C387.97 234.916 388.279 234.638 388.642 234.307C389.005 233.976 389.381 233.608 389.772 233.204C390.174 232.79 390.567 232.354 390.952 231.896C391.349 231.428 391.708 230.952 392.031 230.467C392.365 229.983 392.64 229.498 392.855 229.014C393.071 228.53 393.199 228.064 393.24 227.618C393.287 227.097 393.178 226.653 392.911 226.285C392.645 225.907 392.209 225.691 391.603 225.635C391.199 225.599 390.798 225.648 390.4 225.783C390.002 225.908 389.656 226.064 389.36 226.251L388.916 225.294C389.318 225.009 389.782 224.799 390.309 224.665C390.835 224.531 391.391 224.49 391.976 224.544C392.433 224.585 392.831 224.691 393.169 224.861C393.509 225.021 393.789 225.234 394.012 225.501C394.234 225.768 394.393 226.077 394.49 226.429C394.587 226.77 394.618 227.138 394.582 227.531ZM398.313 235.638C398.675 235.671 399.015 235.649 399.333 235.571C399.651 235.492 399.93 235.362 400.172 235.181C400.415 234.988 400.613 234.754 400.767 234.479C400.921 234.204 401.013 233.896 401.044 233.555C401.112 232.811 400.939 232.238 400.525 231.836C400.122 231.434 399.533 231.198 398.756 231.128L397.576 231.02L397.618 230.558L400.238 227.226L401.035 226.591L399.984 226.656L396.826 226.369L396.934 225.188L402.627 225.707L402.585 226.17L399.702 229.75L399.102 230.162L399.099 230.194L399.651 230.132C400.076 230.181 400.462 230.297 400.81 230.479C401.159 230.65 401.453 230.886 401.694 231.186C401.936 231.476 402.113 231.82 402.227 232.216C402.342 232.602 402.378 233.034 402.334 233.512C402.282 234.086 402.135 234.588 401.892 235.016C401.649 235.444 401.338 235.796 400.959 236.073C400.592 236.339 400.167 236.531 399.685 236.648C399.202 236.765 398.701 236.8 398.18 236.752C397.701 236.708 397.274 236.632 396.898 236.523C396.522 236.413 396.196 236.287 395.919 236.144L396.357 235.042C396.591 235.181 396.869 235.309 397.191 235.424C397.524 235.529 397.899 235.601 398.313 235.638ZM403.159 236.273C403.185 235.986 403.285 235.77 403.459 235.625C403.645 235.47 403.876 235.406 404.152 235.431C404.44 235.457 404.66 235.563 404.815 235.748C404.971 235.923 405.035 236.155 405.009 236.442C404.984 236.718 404.879 236.934 404.693 237.088C404.507 237.243 404.271 237.307 403.984 237.281C403.707 237.256 403.492 237.15 403.337 236.965C403.193 236.78 403.134 236.549 403.159 236.273ZM408.661 236.581C409.022 236.614 409.362 236.592 409.68 236.513C409.998 236.435 410.278 236.305 410.52 236.124C410.763 235.931 410.961 235.697 411.115 235.422C411.268 235.146 411.361 234.839 411.392 234.498C411.46 233.754 411.287 233.181 410.873 232.779C410.47 232.377 409.88 232.141 409.104 232.071L407.924 231.963L407.966 231.501L410.585 228.169L411.383 227.534L410.332 227.599L407.174 227.311L407.281 226.131L412.975 226.65L412.933 227.112L410.05 230.693L409.449 231.105L409.447 231.137L409.999 231.075C410.423 231.124 410.809 231.24 411.157 231.421C411.506 231.593 411.801 231.829 412.042 232.129C412.283 232.419 412.461 232.762 412.575 233.159C412.69 233.545 412.726 233.977 412.682 234.455C412.63 235.029 412.482 235.53 412.24 235.959C411.997 236.387 411.686 236.739 411.307 237.015C410.94 237.282 410.515 237.474 410.032 237.591C409.55 237.708 409.048 237.742 408.527 237.695C408.049 237.651 407.622 237.575 407.246 237.466C406.87 237.356 406.543 237.23 406.267 237.087L406.705 235.985C406.939 236.124 407.217 236.251 407.539 236.367C407.872 236.472 408.246 236.544 408.661 236.581ZM420.558 229.898C420.507 230.461 420.348 231.031 420.081 231.607C419.825 232.174 419.5 232.739 419.106 233.304C418.722 233.869 418.297 234.42 417.83 234.956C417.364 235.482 416.9 235.981 416.439 236.454L415.595 237.068L415.589 237.132L416.626 237.05L420.103 237.367L419.995 238.547L413.647 237.968L413.689 237.506C413.946 237.283 414.255 237.005 414.618 236.674C414.98 236.342 415.357 235.975 415.747 235.571C416.15 235.157 416.543 234.721 416.928 234.263C417.324 233.795 417.684 233.319 418.007 232.834C418.341 232.349 418.615 231.865 418.831 231.381C419.047 230.897 419.175 230.431 419.215 229.985C419.263 229.464 419.153 229.019 418.887 228.652C418.621 228.274 418.185 228.057 417.579 228.002C417.175 227.965 416.774 228.015 416.375 228.15C415.978 228.274 415.631 228.43 415.336 228.618L414.892 227.661C415.293 227.376 415.757 227.166 416.284 227.032C416.811 226.898 417.367 226.857 417.952 226.91C418.409 226.952 418.807 227.058 419.145 227.228C419.484 227.388 419.765 227.601 419.987 227.868C420.21 228.135 420.369 228.444 420.466 228.796C420.563 229.137 420.594 229.504 420.558 229.898Z" fill="#D5D5D5"/>
</svg>
