<svg width="52" height="52" viewBox="0 0 52 52" fill="none" xmlns="http://www.w3.org/2000/svg">
<path d="M26.8086 0.829378L26.8087 0.829394L50.2462 11.7669C50.8575 12.0522 51.2662 12.6344 51.3381 13.292L26.8086 0.829378ZM26.8086 0.829378C26.296 0.590207 25.7038 0.590207 25.1912 0.829378L25.1912 0.829394M26.8086 0.829378L25.1912 0.829394M25.1912 0.829394L1.75365 11.7669L1.75363 11.7669M25.1912 0.829394L1.75363 11.7669M1.75363 11.7669C1.14207 12.0524 0.733196 12.6349 0.661622 13.2931M1.75363 11.7669L0.661622 13.2931M0.661622 13.2931C0.659602 13.3123 0.656749 13.3632 0.655036 13.3938M0.661622 13.2931L0.655036 13.3938M0.655036 13.3938L0.654858 13.397M0.655036 13.3938L0.654858 13.397M0.654858 13.397L0.654669 13.4004M0.654858 13.397L0.654669 13.4004M0.654669 13.4004C0.652929 13.4314 0.65 13.4835 0.65 13.5M0.654669 13.4004L0.65 13.5M0.65 13.5V40.0625M0.65 13.5V40.0625M0.65 40.0625C0.65 40.8444 1.12608 41.5478 1.85229 41.8382M0.65 40.0625L1.85229 41.8382M1.85229 41.8382L25.2897 51.2131C25.5176 51.3043 25.7589 51.35 26 51.35C26.241 51.35 26.4823 51.3045 26.7104 51.2131L50.1477 41.8382C50.8739 41.5478 51.35 40.8444 51.35 40.0625V13.5C51.35 13.4833 51.347 13.4311 51.3452 13.4002L51.345 13.3965L51.3448 13.3935C51.3431 13.3632 51.3402 13.3126 51.3382 13.2931L1.85229 41.8382ZM26 4.67293L44.6256 13.3649L37.999 16.0156L18.9821 7.94802L26 4.67293ZM26 20.8151L7.37437 13.3649L14.3183 10.1245L32.9579 18.032L26 20.8151ZM4.475 38.7676V16.3248L24.0875 24.1698V46.6126L4.475 38.7676ZM47.525 38.7676L27.9125 46.6127V24.1698L47.525 16.3247V38.7676Z" fill="#000000" stroke="#000000" stroke-width="0.7"/>
</svg>
